M48
METRIC,LZ,000.000
;FILE_FORMAT=3:3
;TYPE=PLATED
;Layer: PTH_Through
;EasyEDA v6.5.23, 2023-06-08 09:20:47
;55327712f0a3441bad1e631ee7ba6bcd,133cb59a28494424a397ab70695d2c60,10
;Gerber Generator version 0.2
;Holesize 1 = 0.801 mm
T01C0.801
;Holesize 2 = 0.889 mm
T02C0.889
;Holesize 3 = 0.900 mm
T03C0.900
;Holesize 4 = 0.915 mm
T04C0.915
;Holesize 5 = 1.001 mm
T05C1.001
;Holesize 6 = 1.016 mm
T06C1.016
;Holesize 7 = 1.040 mm
T07C1.040
;Holesize 8 = 1.101 mm
T08C1.101
;Holesize 9 = 1.501 mm
T09C1.501
%
G05
G90
T01
X021441Y114578G85X021441Y114573
X018901Y114578G85X018901Y114573
X016361Y114578G85X016361Y114573
X013821Y114578G85X013821Y114573
X011281Y114578G85X011281Y114573
X008741Y114578G85X008741Y114573
X021441Y124738G85X021441Y124733
X018901Y124738G85X018901Y124733
X016361Y124738G85X016361Y124733
X013821Y124738G85X013821Y124733
X011281Y124738G85X011281Y124733
X008741Y124738G85X008741Y124733
T02
X014837Y137690
X014837Y135150
X014837Y132610
X014837Y130070
X027156Y088160
X027156Y090700
X027156Y093240
X027156Y095780
X011662Y137690
X011662Y135150
X011662Y132610
X011662Y130070
X008487Y137690
X008487Y135150
X008487Y132610
X008487Y130070
T03
X029696Y128165
X022076Y128165
T04
X037399Y087271
X039899Y087271
X042399Y087271
X049958Y087271
X052458Y087271
X054958Y087271
X062517Y087271
X065017Y087271
X067517Y087271
X075076Y087271
X077576Y087271
X080075Y087271
X042399Y136547
X039899Y136547
X037399Y136547
X054958Y136547
X052458Y136547
X049958Y136547
X067517Y136547
X065017Y136547
X062517Y136547
X080076Y136547
X077575Y136547
X075075Y136547
T05
X009122Y109877
X009122Y107337
X009122Y104797
X009122Y102257
X009122Y099717
X009122Y097177
X009122Y094637
X009122Y092097
X009122Y089557
X009122Y087017
T06
X080115Y128927
X077575Y128927
X075035Y128927
X072495Y128927
X069955Y128927
X067415Y128927
X064875Y128927
X062335Y128927
X059795Y128927
X057255Y128927
X054715Y128927
X052175Y128927
X049635Y128927
X047095Y128927
X044555Y128927
X042015Y128927
X039475Y128927
X036935Y128927
X034395Y128927
X079988Y094510
X077448Y094510
X074908Y094510
X072368Y094510
X069828Y094510
X067288Y094510
X064748Y094510
X062208Y094510
X059668Y094510
X057128Y094510
X054588Y094510
X052048Y094510
X049508Y094510
X046968Y094510
X044428Y094510
X041888Y094510
X039348Y094510
X036808Y094510
X034268Y094510
T07
X034234Y098922G85X034234Y098927
X036774Y098922G85X036774Y098927
X039314Y098922G85X039314Y098927
X041854Y098922G85X041854Y098927
X044394Y098922G85X044394Y098927
X046934Y098922G85X046934Y098927
X049474Y098922G85X049474Y098927
X052014Y098922G85X052014Y098927
X054554Y098922G85X054554Y098927
X057094Y098922G85X057094Y098927
X059634Y098922G85X059634Y098927
X062174Y098922G85X062174Y098927
X064714Y098922G85X064714Y098927
X067254Y098922G85X067254Y098927
X069794Y098922G85X069794Y098927
X072334Y098922G85X072334Y098927
X074874Y098922G85X074874Y098927
X077414Y098922G85X077414Y098927
X079954Y098922G85X079954Y098927
X034234Y124352G85X034234Y124357
X036774Y124352G85X036774Y124357
X039314Y124352G85X039314Y124357
X041854Y124352G85X041854Y124357
X044394Y124352G85X044394Y124357
X046934Y124352G85X046934Y124357
X049474Y124352G85X049474Y124357
X052014Y124352G85X052014Y124357
X054554Y124352G85X054554Y124357
X057094Y124352G85X057094Y124357
X059634Y124352G85X059634Y124357
X062174Y124352G85X062174Y124357
X064714Y124352G85X064714Y124357
X067254Y124352G85X067254Y124357
X069794Y124352G85X069794Y124357
X072334Y124352G85X072334Y124357
X074874Y124352G85X074874Y124357
X077414Y124352G85X077414Y124357
X079954Y124352G85X079954Y124357
T08
X024997Y117370
X027537Y117370
X024997Y120418
X027537Y120418
X024997Y114322
X027537Y114322
T09
X022878Y135150
X027878Y135150
M30
