G04 Layer: BottomLayer*
G04 EasyEDA v6.5.23, 2023-06-08 09:20:47*
G04 55327712f0a3441bad1e631ee7ba6bcd,133cb59a28494424a397ab70695d2c60,10*
G04 Gerber Generator version 0.2*
G04 Scale: 100 percent, Rotated: No, Reflected: No *
G04 Dimensions in millimeters *
G04 leading zeros omitted , absolute positions ,4 integer and 5 decimal *
%FSLAX45Y45*%
%MOMM*%

%ADD10C,0.2540*%
%ADD11C,1.7000*%
%ADD12R,1.7000X1.7000*%
%ADD13C,2.3000*%
%ADD14R,2.3000X2.3000*%
%ADD15C,1.5240*%
%ADD16R,1.5240X1.5240*%
%ADD17C,1.5750*%
%ADD18R,1.5750X1.5750*%
%ADD19C,1.5748*%
%ADD20R,1.5748X1.5748*%
%ADD21R,1.6764X1.6764*%
%ADD22C,1.6764*%
%ADD23C,1.8796*%
%ADD24R,1.5601X1.5601*%
%ADD25C,1.5600*%
%ADD26R,1.3995X1.3995*%
%ADD27C,1.3995*%
%ADD28R,1.8796X1.8796*%
%ADD29C,0.6100*%
%ADD30C,0.0166*%

%LPD*%
G36*
X808278Y8407908D02*
G01*
X786079Y8408822D01*
X764743Y8411362D01*
X743610Y8415578D01*
X722934Y8421471D01*
X702767Y8428939D01*
X683209Y8437981D01*
X664464Y8448497D01*
X646582Y8460486D01*
X629716Y8473846D01*
X613918Y8488476D01*
X599338Y8504275D01*
X586028Y8521192D01*
X574141Y8539124D01*
X563626Y8557920D01*
X554634Y8577478D01*
X547217Y8597696D01*
X541426Y8618372D01*
X537260Y8639505D01*
X534771Y8660892D01*
X533908Y8682685D01*
X533908Y13669314D01*
X534822Y13691869D01*
X537362Y13713256D01*
X541629Y13734338D01*
X547471Y13755065D01*
X554939Y13775232D01*
X563981Y13794740D01*
X574548Y13813485D01*
X586536Y13831366D01*
X599846Y13848283D01*
X614476Y13864031D01*
X630326Y13878610D01*
X647242Y13891920D01*
X665124Y13903858D01*
X683920Y13914323D01*
X703478Y13923314D01*
X723696Y13930731D01*
X744423Y13936573D01*
X765505Y13940739D01*
X786892Y13943228D01*
X808685Y13944041D01*
X8207298Y13944041D01*
X8229904Y13943177D01*
X8251240Y13940586D01*
X8272373Y13936370D01*
X8293049Y13930477D01*
X8313216Y13923010D01*
X8332774Y13913967D01*
X8351520Y13903451D01*
X8369401Y13891463D01*
X8386267Y13878102D01*
X8402066Y13863472D01*
X8416645Y13847673D01*
X8429955Y13830757D01*
X8441842Y13812824D01*
X8452358Y13794028D01*
X8461349Y13774470D01*
X8468766Y13754303D01*
X8474557Y13733576D01*
X8478723Y13712444D01*
X8481212Y13691057D01*
X8482076Y13669263D01*
X8482076Y8682685D01*
X8481161Y8660079D01*
X8478621Y8638692D01*
X8474354Y8617610D01*
X8468512Y8596934D01*
X8461044Y8576716D01*
X8452002Y8557209D01*
X8441436Y8538464D01*
X8429447Y8520582D01*
X8416137Y8503716D01*
X8401507Y8487918D01*
X8385657Y8473338D01*
X8368741Y8460028D01*
X8350859Y8448090D01*
X8332063Y8437626D01*
X8312505Y8428634D01*
X8292287Y8421217D01*
X8271560Y8415426D01*
X8250478Y8411260D01*
X8229092Y8408720D01*
X8207298Y8407908D01*
G37*

%LPC*%
G36*
X3110280Y8576513D02*
G01*
X3799433Y8576513D01*
X3807460Y8577326D01*
X3814673Y8579510D01*
X3821328Y8583066D01*
X3827576Y8588197D01*
X3877005Y8637625D01*
X3880002Y8639708D01*
X3883507Y8640572D01*
X3887114Y8640165D01*
X3890365Y8638540D01*
X3893515Y8634730D01*
X3897579Y8630666D01*
X3902506Y8627567D01*
X3907942Y8625636D01*
X3914292Y8624925D01*
X4065524Y8624925D01*
X4071874Y8625636D01*
X4077309Y8627567D01*
X4082186Y8630666D01*
X4086301Y8634730D01*
X4089450Y8638540D01*
X4092701Y8640216D01*
X4096308Y8640622D01*
X4099814Y8639708D01*
X4102811Y8637625D01*
X4152239Y8588197D01*
X4158487Y8583066D01*
X4165142Y8579510D01*
X4172356Y8577326D01*
X4180382Y8576513D01*
X5152339Y8576513D01*
X5160365Y8577326D01*
X5167579Y8579510D01*
X5174284Y8583066D01*
X5180482Y8588197D01*
X5214264Y8621979D01*
X5217566Y8624163D01*
X5221478Y8624925D01*
X5321401Y8624925D01*
X5327751Y8625636D01*
X5333187Y8627567D01*
X5338114Y8630666D01*
X5342178Y8634730D01*
X5345328Y8638540D01*
X5348579Y8640165D01*
X5352186Y8640572D01*
X5355691Y8639708D01*
X5358688Y8637625D01*
X5408117Y8588197D01*
X5414365Y8583066D01*
X5421020Y8579510D01*
X5428234Y8577326D01*
X5436260Y8576513D01*
X6408267Y8576513D01*
X6416294Y8577326D01*
X6423507Y8579510D01*
X6430162Y8583066D01*
X6436410Y8588197D01*
X6470192Y8621979D01*
X6473494Y8624163D01*
X6477355Y8624925D01*
X6577330Y8624925D01*
X6583629Y8625636D01*
X6589115Y8627567D01*
X6593992Y8630666D01*
X6598107Y8634730D01*
X6601256Y8638540D01*
X6604457Y8640216D01*
X6608064Y8640622D01*
X6611620Y8639708D01*
X6614566Y8637625D01*
X6664045Y8588197D01*
X6670243Y8583066D01*
X6676948Y8579510D01*
X6684162Y8577326D01*
X6692188Y8576513D01*
X7593075Y8576513D01*
X7601102Y8577326D01*
X7608316Y8579510D01*
X7615021Y8583066D01*
X7621219Y8588197D01*
X7658557Y8625535D01*
X7661706Y8627668D01*
X7665364Y8628481D01*
X7669123Y8627922D01*
X7675625Y8625636D01*
X7681925Y8624925D01*
X7833207Y8624925D01*
X7839506Y8625636D01*
X7844993Y8627567D01*
X7849870Y8630666D01*
X7853984Y8634730D01*
X7857032Y8639657D01*
X7858963Y8645093D01*
X7859674Y8651443D01*
X7859674Y8802674D01*
X7858963Y8809024D01*
X7857032Y8814460D01*
X7853984Y8819388D01*
X7849870Y8823452D01*
X7844993Y8826550D01*
X7839506Y8828430D01*
X7833461Y8829141D01*
X7829854Y8830259D01*
X7826908Y8832596D01*
X7824978Y8835898D01*
X7824419Y8839606D01*
X7825282Y8843314D01*
X7827416Y8846413D01*
X8025790Y9044787D01*
X8030921Y9051036D01*
X8034477Y9057690D01*
X8036661Y9064904D01*
X8037474Y9072930D01*
X8037474Y9320885D01*
X8038236Y9324797D01*
X8040420Y9328099D01*
X8043722Y9330283D01*
X8047634Y9331045D01*
X8092236Y9331045D01*
X8098586Y9331756D01*
X8104022Y9333687D01*
X8108950Y9336786D01*
X8113014Y9340850D01*
X8116112Y9345777D01*
X8118043Y9351213D01*
X8118754Y9357563D01*
X8118754Y9544354D01*
X8118043Y9550704D01*
X8116112Y9556140D01*
X8113014Y9561068D01*
X8108950Y9565132D01*
X8104022Y9568230D01*
X8098586Y9570110D01*
X8092236Y9570821D01*
X8047634Y9570821D01*
X8043722Y9571634D01*
X8040420Y9573818D01*
X8038236Y9577120D01*
X8037474Y9580981D01*
X8037474Y9778390D01*
X8038236Y9782251D01*
X8040420Y9785553D01*
X8043722Y9787788D01*
X8047634Y9788550D01*
X8072881Y9788550D01*
X8079181Y9789261D01*
X8084667Y9791192D01*
X8089544Y9794240D01*
X8093659Y9798354D01*
X8096707Y9803231D01*
X8098637Y9808718D01*
X8099348Y9815017D01*
X8099348Y9969906D01*
X8098637Y9976205D01*
X8096707Y9981692D01*
X8093659Y9986568D01*
X8089544Y9990683D01*
X8084667Y9993731D01*
X8079181Y9995662D01*
X8072881Y9996373D01*
X7917992Y9996373D01*
X7911693Y9995662D01*
X7906207Y9993731D01*
X7901330Y9990683D01*
X7897215Y9986568D01*
X7894167Y9981692D01*
X7892237Y9976205D01*
X7891525Y9969906D01*
X7891525Y9815017D01*
X7892237Y9808718D01*
X7894167Y9803231D01*
X7897215Y9798354D01*
X7901330Y9794240D01*
X7906207Y9791192D01*
X7911693Y9789261D01*
X7917992Y9788550D01*
X7947456Y9788550D01*
X7951114Y9787890D01*
X7954314Y9785908D01*
X7956550Y9782962D01*
X7959801Y9771837D01*
X7960258Y9768890D01*
X7960258Y9580981D01*
X7959445Y9577120D01*
X7957261Y9573818D01*
X7953959Y9571634D01*
X7950098Y9570821D01*
X7905445Y9570821D01*
X7899095Y9570110D01*
X7893659Y9568230D01*
X7888731Y9565132D01*
X7884668Y9561068D01*
X7881569Y9556140D01*
X7879689Y9550704D01*
X7878978Y9544354D01*
X7878978Y9489744D01*
X7878165Y9485782D01*
X7875879Y9482480D01*
X7872475Y9480296D01*
X7868462Y9479584D01*
X7864551Y9480550D01*
X7861300Y9482886D01*
X7859217Y9486392D01*
X7855254Y9497669D01*
X7848650Y9510877D01*
X7840522Y9523171D01*
X7830921Y9534398D01*
X7819999Y9544354D01*
X7807959Y9552889D01*
X7794955Y9559848D01*
X7789925Y9561779D01*
X7786522Y9563963D01*
X7784236Y9567316D01*
X7783474Y9571278D01*
X7783474Y9791293D01*
X7784134Y9794951D01*
X7786116Y9798151D01*
X7789113Y9800386D01*
X7793380Y9802469D01*
X7804658Y9810038D01*
X7814919Y9818979D01*
X7823860Y9829241D01*
X7831429Y9840518D01*
X7837424Y9852710D01*
X7841792Y9865563D01*
X7844434Y9878923D01*
X7845348Y9892436D01*
X7844434Y9906000D01*
X7841792Y9919360D01*
X7837424Y9932212D01*
X7831429Y9944404D01*
X7823860Y9955682D01*
X7814919Y9965893D01*
X7804658Y9974884D01*
X7793380Y9982403D01*
X7781188Y9988448D01*
X7768336Y9992817D01*
X7754975Y9995458D01*
X7741462Y9996322D01*
X7727899Y9995458D01*
X7714538Y9992817D01*
X7701686Y9988448D01*
X7689494Y9982403D01*
X7678216Y9974884D01*
X7668006Y9965893D01*
X7659014Y9955682D01*
X7651496Y9944404D01*
X7645450Y9932212D01*
X7641081Y9919360D01*
X7638440Y9906000D01*
X7637576Y9892436D01*
X7638440Y9878923D01*
X7641081Y9865563D01*
X7645450Y9852710D01*
X7651496Y9840518D01*
X7659014Y9829241D01*
X7668006Y9818979D01*
X7678216Y9810038D01*
X7689494Y9802469D01*
X7700568Y9797034D01*
X7703566Y9794798D01*
X7705547Y9791598D01*
X7706258Y9787940D01*
X7706258Y9571278D01*
X7705445Y9567316D01*
X7703159Y9563963D01*
X7699756Y9561779D01*
X7694726Y9559848D01*
X7681722Y9552889D01*
X7669682Y9544354D01*
X7658811Y9534398D01*
X7649209Y9523171D01*
X7641031Y9510877D01*
X7634478Y9497669D01*
X7629550Y9483750D01*
X7627772Y9475622D01*
X7626197Y9472015D01*
X7623403Y9469323D01*
X7619796Y9467799D01*
X7615885Y9467799D01*
X7612278Y9469323D01*
X7609484Y9472015D01*
X7607909Y9475622D01*
X7606131Y9483750D01*
X7601254Y9497669D01*
X7594650Y9510877D01*
X7586522Y9523171D01*
X7576921Y9534398D01*
X7565999Y9544354D01*
X7553959Y9552889D01*
X7540955Y9559848D01*
X7532522Y9563100D01*
X7529118Y9565284D01*
X7526832Y9568637D01*
X7526070Y9572599D01*
X7526070Y9789617D01*
X7526731Y9793274D01*
X7528712Y9796475D01*
X7531709Y9798710D01*
X7539380Y9802469D01*
X7550658Y9810038D01*
X7560919Y9818979D01*
X7569860Y9829241D01*
X7577429Y9840518D01*
X7583424Y9852710D01*
X7587792Y9865563D01*
X7590434Y9878923D01*
X7591348Y9892436D01*
X7590434Y9906000D01*
X7587792Y9919360D01*
X7583424Y9932212D01*
X7577429Y9944404D01*
X7569860Y9955682D01*
X7560919Y9965893D01*
X7550658Y9974884D01*
X7539380Y9982403D01*
X7527188Y9988448D01*
X7514336Y9992817D01*
X7500975Y9995458D01*
X7487462Y9996322D01*
X7473899Y9995458D01*
X7460538Y9992817D01*
X7447686Y9988448D01*
X7435494Y9982403D01*
X7424216Y9974884D01*
X7414006Y9965893D01*
X7405014Y9955682D01*
X7397496Y9944404D01*
X7391450Y9932212D01*
X7387081Y9919360D01*
X7384440Y9906000D01*
X7383576Y9892436D01*
X7384440Y9878923D01*
X7387081Y9865563D01*
X7391450Y9852710D01*
X7397496Y9840518D01*
X7405014Y9829241D01*
X7414006Y9818979D01*
X7424216Y9810038D01*
X7435494Y9802469D01*
X7443165Y9798710D01*
X7446162Y9796475D01*
X7448143Y9793274D01*
X7448854Y9789617D01*
X7448854Y9569958D01*
X7448042Y9565995D01*
X7445756Y9562642D01*
X7442352Y9560458D01*
X7440726Y9559848D01*
X7427722Y9552889D01*
X7415682Y9544354D01*
X7404811Y9534398D01*
X7395209Y9523171D01*
X7387031Y9510877D01*
X7380478Y9497669D01*
X7375550Y9483750D01*
X7373772Y9475622D01*
X7372197Y9472015D01*
X7369403Y9469323D01*
X7365796Y9467799D01*
X7361885Y9467799D01*
X7358278Y9469323D01*
X7355484Y9472015D01*
X7353909Y9475622D01*
X7352131Y9483750D01*
X7347254Y9497669D01*
X7340650Y9510877D01*
X7332522Y9523171D01*
X7322921Y9534398D01*
X7311999Y9544354D01*
X7299959Y9552889D01*
X7286955Y9559848D01*
X7278522Y9563100D01*
X7275118Y9565284D01*
X7272832Y9568637D01*
X7272070Y9572599D01*
X7272070Y9789617D01*
X7272731Y9793274D01*
X7274712Y9796475D01*
X7277709Y9798710D01*
X7285380Y9802469D01*
X7296658Y9810038D01*
X7306919Y9818979D01*
X7315860Y9829241D01*
X7323429Y9840518D01*
X7329424Y9852710D01*
X7333792Y9865563D01*
X7336434Y9878923D01*
X7337348Y9892436D01*
X7336434Y9906000D01*
X7333792Y9919360D01*
X7329424Y9932212D01*
X7323429Y9944404D01*
X7315860Y9955682D01*
X7306919Y9965893D01*
X7296658Y9974884D01*
X7285380Y9982403D01*
X7273188Y9988448D01*
X7260336Y9992817D01*
X7246975Y9995458D01*
X7233462Y9996322D01*
X7219899Y9995458D01*
X7206538Y9992817D01*
X7193686Y9988448D01*
X7181494Y9982403D01*
X7170216Y9974884D01*
X7160006Y9965893D01*
X7151014Y9955682D01*
X7143496Y9944404D01*
X7137450Y9932212D01*
X7133081Y9919360D01*
X7130440Y9906000D01*
X7129576Y9892436D01*
X7130440Y9878923D01*
X7133081Y9865563D01*
X7137450Y9852710D01*
X7143496Y9840518D01*
X7151014Y9829241D01*
X7160006Y9818979D01*
X7170216Y9810038D01*
X7181494Y9802469D01*
X7189165Y9798710D01*
X7192162Y9796475D01*
X7194143Y9793274D01*
X7194854Y9789617D01*
X7194854Y9569958D01*
X7194042Y9565995D01*
X7191756Y9562642D01*
X7188352Y9560458D01*
X7186726Y9559848D01*
X7173722Y9552889D01*
X7161682Y9544354D01*
X7150811Y9534398D01*
X7141209Y9523171D01*
X7133031Y9510877D01*
X7126478Y9497669D01*
X7121550Y9483750D01*
X7119772Y9475622D01*
X7118197Y9472015D01*
X7115403Y9469323D01*
X7111796Y9467799D01*
X7107885Y9467799D01*
X7104278Y9469323D01*
X7101484Y9472015D01*
X7099909Y9475622D01*
X7098131Y9483750D01*
X7093254Y9497669D01*
X7086650Y9510877D01*
X7078522Y9523171D01*
X7068921Y9534398D01*
X7057999Y9544354D01*
X7045959Y9552889D01*
X7032955Y9559848D01*
X7024522Y9563100D01*
X7021118Y9565284D01*
X7018832Y9568637D01*
X7018070Y9572599D01*
X7018070Y9789617D01*
X7018731Y9793274D01*
X7020712Y9796475D01*
X7023709Y9798710D01*
X7031380Y9802469D01*
X7042658Y9810038D01*
X7052919Y9818979D01*
X7061860Y9829241D01*
X7069429Y9840518D01*
X7075424Y9852710D01*
X7079792Y9865563D01*
X7082434Y9878923D01*
X7083348Y9892436D01*
X7082434Y9906000D01*
X7079792Y9919360D01*
X7075424Y9932212D01*
X7069429Y9944404D01*
X7061860Y9955682D01*
X7052919Y9965893D01*
X7042658Y9974884D01*
X7031380Y9982403D01*
X7019188Y9988448D01*
X7006336Y9992817D01*
X6992975Y9995458D01*
X6979462Y9996322D01*
X6965899Y9995458D01*
X6952538Y9992817D01*
X6939686Y9988448D01*
X6927494Y9982403D01*
X6916216Y9974884D01*
X6906006Y9965893D01*
X6897014Y9955682D01*
X6889496Y9944404D01*
X6883450Y9932212D01*
X6879081Y9919360D01*
X6876440Y9906000D01*
X6875576Y9892436D01*
X6876440Y9878923D01*
X6879081Y9865563D01*
X6883450Y9852710D01*
X6889496Y9840518D01*
X6897014Y9829241D01*
X6906006Y9818979D01*
X6916216Y9810038D01*
X6927494Y9802469D01*
X6935165Y9798710D01*
X6938162Y9796475D01*
X6940143Y9793274D01*
X6940854Y9789617D01*
X6940854Y9569958D01*
X6940042Y9565995D01*
X6937756Y9562642D01*
X6934352Y9560458D01*
X6932726Y9559848D01*
X6919722Y9552889D01*
X6907682Y9544354D01*
X6896811Y9534398D01*
X6887209Y9523171D01*
X6879031Y9510877D01*
X6872478Y9497669D01*
X6867550Y9483750D01*
X6864400Y9469323D01*
X6863029Y9454642D01*
X6863486Y9439910D01*
X6865772Y9425178D01*
X6869785Y9411106D01*
X6875525Y9397542D01*
X6882942Y9384741D01*
X6891832Y9372955D01*
X6902094Y9362389D01*
X6913575Y9353143D01*
X6926122Y9345371D01*
X6939534Y9339173D01*
X6953605Y9334703D01*
X6968134Y9332010D01*
X6982866Y9331096D01*
X6997598Y9332010D01*
X7012076Y9334703D01*
X7026148Y9339173D01*
X7039559Y9345371D01*
X7052106Y9353143D01*
X7063587Y9362389D01*
X7073849Y9372955D01*
X7082790Y9384741D01*
X7090156Y9397542D01*
X7095896Y9411106D01*
X7100062Y9425787D01*
X7102144Y9429597D01*
X7105599Y9432239D01*
X7109866Y9433153D01*
X7114082Y9432239D01*
X7117537Y9429597D01*
X7119620Y9425787D01*
X7123785Y9411106D01*
X7129525Y9397542D01*
X7136942Y9384741D01*
X7145832Y9372955D01*
X7156094Y9362389D01*
X7167575Y9353143D01*
X7180122Y9345371D01*
X7193534Y9339173D01*
X7207605Y9334703D01*
X7222134Y9332010D01*
X7236866Y9331096D01*
X7251598Y9332010D01*
X7266076Y9334703D01*
X7280148Y9339173D01*
X7293559Y9345371D01*
X7306106Y9353143D01*
X7317587Y9362389D01*
X7327849Y9372955D01*
X7336790Y9384741D01*
X7344156Y9397542D01*
X7349896Y9411106D01*
X7354062Y9425787D01*
X7356144Y9429597D01*
X7359599Y9432239D01*
X7363866Y9433153D01*
X7368082Y9432239D01*
X7371537Y9429597D01*
X7373620Y9425787D01*
X7377785Y9411106D01*
X7383525Y9397542D01*
X7390942Y9384741D01*
X7399832Y9372955D01*
X7410094Y9362389D01*
X7421575Y9353143D01*
X7434122Y9345371D01*
X7447534Y9339173D01*
X7461605Y9334703D01*
X7476134Y9332010D01*
X7490866Y9331096D01*
X7505598Y9332010D01*
X7520076Y9334703D01*
X7534148Y9339173D01*
X7547559Y9345371D01*
X7560106Y9353143D01*
X7571587Y9362389D01*
X7581849Y9372955D01*
X7590790Y9384741D01*
X7598156Y9397542D01*
X7603896Y9411106D01*
X7608062Y9425787D01*
X7610144Y9429597D01*
X7613599Y9432239D01*
X7617866Y9433153D01*
X7622082Y9432239D01*
X7625537Y9429597D01*
X7627620Y9425787D01*
X7631785Y9411106D01*
X7637525Y9397542D01*
X7644942Y9384741D01*
X7653832Y9372955D01*
X7664094Y9362389D01*
X7675575Y9353143D01*
X7688122Y9345371D01*
X7701534Y9339173D01*
X7715605Y9334703D01*
X7730134Y9332010D01*
X7744866Y9331096D01*
X7759598Y9332010D01*
X7774076Y9334703D01*
X7788148Y9339173D01*
X7801559Y9345371D01*
X7814106Y9353143D01*
X7825587Y9362389D01*
X7835849Y9372955D01*
X7844790Y9384741D01*
X7852156Y9397542D01*
X7857896Y9411106D01*
X7859014Y9415068D01*
X7860944Y9418726D01*
X7864144Y9421317D01*
X7868107Y9422434D01*
X7872222Y9421876D01*
X7875727Y9419691D01*
X7878114Y9416338D01*
X7878978Y9412274D01*
X7878978Y9357563D01*
X7879689Y9351213D01*
X7881569Y9345777D01*
X7884668Y9340850D01*
X7888731Y9336786D01*
X7893659Y9333687D01*
X7899095Y9331756D01*
X7905445Y9331045D01*
X7950098Y9331045D01*
X7953959Y9330283D01*
X7957261Y9328099D01*
X7959445Y9324797D01*
X7960258Y9320885D01*
X7960258Y9092641D01*
X7959445Y9088780D01*
X7957261Y9085478D01*
X7730642Y8858808D01*
X7725511Y8852611D01*
X7721955Y8845905D01*
X7718653Y8834780D01*
X7716418Y8831783D01*
X7713268Y8829852D01*
X7709611Y8829141D01*
X7681925Y8829141D01*
X7675625Y8828430D01*
X7670139Y8826550D01*
X7665262Y8823452D01*
X7661148Y8819388D01*
X7658100Y8814460D01*
X7656169Y8809024D01*
X7655458Y8802674D01*
X7655458Y8735822D01*
X7654696Y8731961D01*
X7652461Y8728659D01*
X7609433Y8685580D01*
X7606131Y8683396D01*
X7602220Y8682583D01*
X7552029Y8682583D01*
X7552029Y8663889D01*
X7551216Y8660028D01*
X7549032Y8656726D01*
X7545730Y8654542D01*
X7541869Y8653729D01*
X7473289Y8653729D01*
X7469378Y8654542D01*
X7466075Y8656726D01*
X7463891Y8660028D01*
X7463129Y8663889D01*
X7463129Y8682583D01*
X7415784Y8682583D01*
X7416444Y8681008D01*
X7423505Y8669070D01*
X7424877Y8665057D01*
X7424470Y8660841D01*
X7422337Y8657132D01*
X7418933Y8654643D01*
X7414768Y8653729D01*
X6844182Y8653729D01*
X6839915Y8654694D01*
X6836409Y8657336D01*
X6834378Y8661247D01*
X6834174Y8665616D01*
X6835800Y8669680D01*
X6839508Y8675014D01*
X6845655Y8687206D01*
X6850125Y8700109D01*
X6852818Y8713470D01*
X6853732Y8727033D01*
X6852818Y8740648D01*
X6850125Y8754008D01*
X6845655Y8766911D01*
X6839508Y8779103D01*
X6831787Y8790330D01*
X6822643Y8800439D01*
X6812229Y8809228D01*
X6800697Y8816594D01*
X6788353Y8822334D01*
X6775297Y8826347D01*
X6761886Y8828633D01*
X6748221Y8829090D01*
X6734657Y8827719D01*
X6721398Y8824569D01*
X6708698Y8819642D01*
X6696709Y8813088D01*
X6685737Y8805011D01*
X6675932Y8795512D01*
X6667500Y8784844D01*
X6660540Y8773109D01*
X6655206Y8760561D01*
X6653580Y8754618D01*
X6651548Y8750706D01*
X6647992Y8748014D01*
X6643674Y8747099D01*
X6639407Y8748115D01*
X6635953Y8750808D01*
X6633057Y8754313D01*
X6627215Y8759139D01*
X6620560Y8762695D01*
X6609384Y8765946D01*
X6606438Y8768181D01*
X6604457Y8771382D01*
X6603796Y8775039D01*
X6603796Y8802674D01*
X6603085Y8809024D01*
X6601155Y8814460D01*
X6598107Y8819388D01*
X6593992Y8823452D01*
X6589115Y8826550D01*
X6583629Y8828430D01*
X6577330Y8829141D01*
X6426047Y8829141D01*
X6419748Y8828430D01*
X6414262Y8826550D01*
X6409385Y8823452D01*
X6405270Y8819388D01*
X6402171Y8814460D01*
X6400292Y8809024D01*
X6399580Y8802674D01*
X6399580Y8664752D01*
X6398818Y8660892D01*
X6395720Y8656726D01*
X6392418Y8654542D01*
X6388557Y8653729D01*
X6344208Y8653729D01*
X6339890Y8654694D01*
X6336436Y8657336D01*
X6334404Y8661247D01*
X6334150Y8665616D01*
X6335826Y8669680D01*
X6339484Y8675014D01*
X6343345Y8682583D01*
X6296101Y8682583D01*
X6296101Y8663889D01*
X6295339Y8660028D01*
X6293154Y8656726D01*
X6289852Y8654542D01*
X6285941Y8653729D01*
X6217361Y8653729D01*
X6213500Y8654542D01*
X6210198Y8656726D01*
X6208014Y8660028D01*
X6207201Y8663889D01*
X6207201Y8682583D01*
X6159855Y8682583D01*
X6160566Y8681008D01*
X6167628Y8669070D01*
X6168948Y8665057D01*
X6168542Y8660841D01*
X6166459Y8657132D01*
X6163005Y8654643D01*
X6158890Y8653729D01*
X5588304Y8653729D01*
X5583986Y8654694D01*
X5580532Y8657336D01*
X5578500Y8661247D01*
X5578246Y8665616D01*
X5579922Y8669680D01*
X5583580Y8675014D01*
X5589727Y8687206D01*
X5594197Y8700109D01*
X5596940Y8713470D01*
X5597855Y8727033D01*
X5596940Y8740648D01*
X5594197Y8754008D01*
X5589727Y8766911D01*
X5583580Y8779103D01*
X5575858Y8790330D01*
X5566714Y8800439D01*
X5556300Y8809228D01*
X5544820Y8816594D01*
X5532475Y8822334D01*
X5519420Y8826347D01*
X5505958Y8828633D01*
X5492343Y8829090D01*
X5478780Y8827719D01*
X5465521Y8824569D01*
X5452770Y8819642D01*
X5440832Y8813088D01*
X5429859Y8805011D01*
X5420055Y8795512D01*
X5411622Y8784844D01*
X5404662Y8773109D01*
X5399328Y8760561D01*
X5397703Y8754567D01*
X5395620Y8750706D01*
X5392115Y8748014D01*
X5387797Y8747099D01*
X5383530Y8748115D01*
X5380024Y8750808D01*
X5377180Y8754313D01*
X5371338Y8759139D01*
X5364632Y8762695D01*
X5353507Y8765946D01*
X5350510Y8768181D01*
X5348579Y8771382D01*
X5347919Y8775039D01*
X5347919Y8802674D01*
X5347208Y8809024D01*
X5345277Y8814460D01*
X5342178Y8819388D01*
X5338114Y8823452D01*
X5333187Y8826550D01*
X5327751Y8828430D01*
X5321401Y8829141D01*
X5170170Y8829141D01*
X5163820Y8828430D01*
X5158384Y8826550D01*
X5153456Y8823452D01*
X5149392Y8819388D01*
X5146294Y8814460D01*
X5144414Y8809024D01*
X5143703Y8802674D01*
X5143703Y8664803D01*
X5142890Y8660892D01*
X5139842Y8656726D01*
X5136540Y8654542D01*
X5132628Y8653729D01*
X5088280Y8653729D01*
X5084013Y8654694D01*
X5080558Y8657336D01*
X5078526Y8661247D01*
X5078272Y8665616D01*
X5079949Y8669680D01*
X5083606Y8675014D01*
X5087416Y8682583D01*
X5040223Y8682583D01*
X5040223Y8663889D01*
X5039461Y8660028D01*
X5037226Y8656726D01*
X5033975Y8654542D01*
X5030063Y8653729D01*
X4961483Y8653729D01*
X4957622Y8654542D01*
X4954320Y8656726D01*
X4952085Y8660028D01*
X4951323Y8663889D01*
X4951323Y8682583D01*
X4903978Y8682583D01*
X4904638Y8681008D01*
X4911750Y8669070D01*
X4913071Y8665057D01*
X4912664Y8660841D01*
X4910582Y8657132D01*
X4907127Y8654643D01*
X4902962Y8653729D01*
X4332376Y8653729D01*
X4328109Y8654694D01*
X4324654Y8657336D01*
X4322622Y8661247D01*
X4322368Y8665616D01*
X4324045Y8669680D01*
X4327702Y8675014D01*
X4333849Y8687206D01*
X4338320Y8700109D01*
X4341063Y8713470D01*
X4341977Y8727033D01*
X4341063Y8740648D01*
X4338320Y8754008D01*
X4333849Y8766911D01*
X4327702Y8779103D01*
X4319981Y8790330D01*
X4310837Y8800439D01*
X4300423Y8809228D01*
X4288942Y8816594D01*
X4276547Y8822334D01*
X4263542Y8826347D01*
X4250080Y8828633D01*
X4236466Y8829090D01*
X4222902Y8827719D01*
X4209643Y8824569D01*
X4206697Y8823401D01*
X4202836Y8822740D01*
X4199077Y8823553D01*
X4195826Y8825738D01*
X3843528Y9177985D01*
X3841546Y9180880D01*
X3840632Y9184284D01*
X3839921Y9192361D01*
X3837381Y9201861D01*
X3833215Y9210751D01*
X3827576Y9218777D01*
X3820617Y9225737D01*
X3812590Y9231376D01*
X3803700Y9235541D01*
X3794201Y9238081D01*
X3784396Y9238945D01*
X3774592Y9238081D01*
X3765092Y9235541D01*
X3756202Y9231376D01*
X3748176Y9225737D01*
X3741216Y9218777D01*
X3735578Y9210751D01*
X3731412Y9201861D01*
X3728872Y9192361D01*
X3728008Y9182557D01*
X3728872Y9172752D01*
X3731412Y9163253D01*
X3735578Y9154363D01*
X3741216Y9146336D01*
X3748176Y9139377D01*
X3756202Y9133738D01*
X3765092Y9129572D01*
X3774592Y9127032D01*
X3782669Y9126321D01*
X3786073Y9125407D01*
X3788968Y9123426D01*
X4065828Y8846515D01*
X4068064Y8843213D01*
X4068826Y8839301D01*
X4068064Y8835440D01*
X4065828Y8832138D01*
X4062526Y8829954D01*
X4058665Y8829141D01*
X3914292Y8829141D01*
X3907942Y8828430D01*
X3902506Y8826550D01*
X3897579Y8823452D01*
X3893515Y8819388D01*
X3890416Y8814460D01*
X3888486Y8809024D01*
X3887774Y8802674D01*
X3887774Y8775039D01*
X3887114Y8771382D01*
X3885133Y8768181D01*
X3882186Y8765946D01*
X3871061Y8762695D01*
X3864356Y8759139D01*
X3858514Y8754313D01*
X3853738Y8748471D01*
X3850182Y8741816D01*
X3847998Y8734602D01*
X3847185Y8726576D01*
X3847185Y8721242D01*
X3846423Y8717330D01*
X3844188Y8714028D01*
X3815740Y8685580D01*
X3812438Y8683396D01*
X3808577Y8682583D01*
X3784346Y8682583D01*
X3784346Y8663889D01*
X3783584Y8660028D01*
X3781348Y8656726D01*
X3778046Y8654542D01*
X3774186Y8653729D01*
X3705606Y8653729D01*
X3701694Y8654542D01*
X3698392Y8656726D01*
X3696208Y8660028D01*
X3695446Y8663889D01*
X3695446Y8682583D01*
X3648100Y8682583D01*
X3648760Y8681008D01*
X3655822Y8669070D01*
X3657193Y8665057D01*
X3656787Y8660841D01*
X3654653Y8657132D01*
X3651250Y8654643D01*
X3647084Y8653729D01*
X3129991Y8653729D01*
X3126130Y8654542D01*
X3122828Y8656726D01*
X2950565Y8828989D01*
X2948381Y8832291D01*
X2947568Y8836152D01*
X2947568Y11389309D01*
X2946806Y11397335D01*
X2944622Y11404549D01*
X2941066Y11411254D01*
X2935935Y11417452D01*
X2894279Y11459108D01*
X2888081Y11464239D01*
X2881376Y11467795D01*
X2870250Y11471046D01*
X2867253Y11473281D01*
X2865323Y11476482D01*
X2864662Y11480139D01*
X2864662Y11516563D01*
X2863951Y11522913D01*
X2862021Y11528348D01*
X2858922Y11533276D01*
X2854858Y11537340D01*
X2849930Y11540439D01*
X2844495Y11542369D01*
X2838145Y11543080D01*
X2802534Y11543080D01*
X2798622Y11543842D01*
X2795320Y11546027D01*
X2793136Y11549329D01*
X2792374Y11553240D01*
X2792374Y11615877D01*
X2793136Y11619788D01*
X2795320Y11623090D01*
X2798622Y11625275D01*
X2802534Y11626037D01*
X2838145Y11626037D01*
X2844495Y11626748D01*
X2849930Y11628678D01*
X2854858Y11631726D01*
X2858922Y11635841D01*
X2862021Y11640718D01*
X2863951Y11646204D01*
X2864662Y11652504D01*
X2864662Y11821363D01*
X2863951Y11827713D01*
X2862021Y11833148D01*
X2858922Y11838076D01*
X2854858Y11842140D01*
X2849930Y11845239D01*
X2844495Y11847169D01*
X2838145Y11847880D01*
X2802534Y11847880D01*
X2798622Y11848642D01*
X2795320Y11850827D01*
X2793136Y11854129D01*
X2792374Y11858040D01*
X2792374Y11920677D01*
X2793136Y11924588D01*
X2795320Y11927890D01*
X2798622Y11930075D01*
X2802534Y11930837D01*
X2838145Y11930837D01*
X2844495Y11931548D01*
X2849930Y11933478D01*
X2854858Y11936526D01*
X2858922Y11940641D01*
X2862021Y11945518D01*
X2863951Y11951004D01*
X2864662Y11957304D01*
X2864662Y12080341D01*
X2865424Y12084253D01*
X2867609Y12087504D01*
X2870911Y12089739D01*
X2874822Y12090501D01*
X2878683Y12089739D01*
X2881985Y12087504D01*
X3381857Y11587632D01*
X3384042Y11584330D01*
X3384854Y11580469D01*
X3384854Y10006533D01*
X3384042Y10002621D01*
X3381857Y9999370D01*
X3378555Y9997135D01*
X3374694Y9996373D01*
X3345992Y9996373D01*
X3339693Y9995662D01*
X3334207Y9993731D01*
X3329330Y9990683D01*
X3325215Y9986568D01*
X3322167Y9981692D01*
X3320237Y9976205D01*
X3319526Y9969906D01*
X3319526Y9815017D01*
X3320237Y9808718D01*
X3322167Y9803231D01*
X3325215Y9798354D01*
X3329330Y9794240D01*
X3334207Y9791192D01*
X3339693Y9789261D01*
X3345992Y9788550D01*
X3374694Y9788550D01*
X3378555Y9787788D01*
X3381857Y9785553D01*
X3384042Y9782251D01*
X3384854Y9778390D01*
X3384854Y9569958D01*
X3384042Y9565995D01*
X3381756Y9562642D01*
X3378352Y9560458D01*
X3376726Y9559848D01*
X3363722Y9552889D01*
X3351682Y9544354D01*
X3340811Y9534398D01*
X3331210Y9523171D01*
X3323031Y9510877D01*
X3316478Y9497669D01*
X3311550Y9483750D01*
X3308400Y9469323D01*
X3307029Y9454642D01*
X3307486Y9439910D01*
X3309772Y9425330D01*
X3313785Y9411106D01*
X3319526Y9397542D01*
X3326942Y9384741D01*
X3335832Y9372955D01*
X3346094Y9362389D01*
X3357575Y9353143D01*
X3370122Y9345371D01*
X3383534Y9339173D01*
X3397605Y9334703D01*
X3412134Y9332010D01*
X3426866Y9331096D01*
X3441598Y9332010D01*
X3456076Y9334703D01*
X3470148Y9339173D01*
X3483559Y9345371D01*
X3496106Y9353143D01*
X3507587Y9362389D01*
X3517849Y9372955D01*
X3526790Y9384741D01*
X3534156Y9397542D01*
X3539896Y9411106D01*
X3544062Y9425787D01*
X3546144Y9429597D01*
X3549599Y9432239D01*
X3553866Y9433153D01*
X3558082Y9432239D01*
X3561537Y9429597D01*
X3563620Y9425787D01*
X3567785Y9411106D01*
X3573526Y9397542D01*
X3580942Y9384741D01*
X3589832Y9372955D01*
X3600094Y9362389D01*
X3611575Y9353143D01*
X3624122Y9345371D01*
X3637534Y9339173D01*
X3651605Y9334703D01*
X3666134Y9332010D01*
X3680866Y9331096D01*
X3695598Y9332010D01*
X3710076Y9334703D01*
X3724148Y9339173D01*
X3737559Y9345371D01*
X3750106Y9353143D01*
X3761587Y9362389D01*
X3771849Y9372955D01*
X3780790Y9384741D01*
X3788156Y9397542D01*
X3793896Y9411106D01*
X3798062Y9425787D01*
X3800144Y9429597D01*
X3803599Y9432239D01*
X3807866Y9433153D01*
X3812082Y9432239D01*
X3815537Y9429597D01*
X3817620Y9425787D01*
X3821785Y9411106D01*
X3827526Y9397542D01*
X3834942Y9384741D01*
X3843832Y9372955D01*
X3854094Y9362389D01*
X3865575Y9353143D01*
X3878122Y9345371D01*
X3891534Y9339173D01*
X3905605Y9334703D01*
X3920134Y9332010D01*
X3934866Y9331096D01*
X3949598Y9332010D01*
X3964076Y9334703D01*
X3978148Y9339173D01*
X3991559Y9345371D01*
X4004106Y9353143D01*
X4015587Y9362389D01*
X4025849Y9372955D01*
X4034790Y9384741D01*
X4042156Y9397542D01*
X4047896Y9411106D01*
X4052062Y9425787D01*
X4054144Y9429597D01*
X4057599Y9432239D01*
X4061866Y9433153D01*
X4066082Y9432239D01*
X4069537Y9429597D01*
X4071620Y9425787D01*
X4075785Y9411106D01*
X4081526Y9397542D01*
X4088942Y9384741D01*
X4097832Y9372955D01*
X4108094Y9362389D01*
X4119575Y9353143D01*
X4132122Y9345371D01*
X4145534Y9339173D01*
X4159605Y9334703D01*
X4174134Y9332010D01*
X4188866Y9331096D01*
X4203598Y9332010D01*
X4218076Y9334703D01*
X4232148Y9339173D01*
X4245559Y9345371D01*
X4258106Y9353143D01*
X4269587Y9362389D01*
X4279849Y9372955D01*
X4288790Y9384741D01*
X4296156Y9397542D01*
X4301896Y9411106D01*
X4306062Y9425787D01*
X4308144Y9429597D01*
X4311599Y9432239D01*
X4315866Y9433153D01*
X4320082Y9432239D01*
X4323537Y9429597D01*
X4325620Y9425787D01*
X4329785Y9411106D01*
X4335526Y9397542D01*
X4342942Y9384741D01*
X4351832Y9372955D01*
X4362094Y9362389D01*
X4373575Y9353143D01*
X4386122Y9345371D01*
X4399534Y9339173D01*
X4413605Y9334703D01*
X4428134Y9332010D01*
X4442866Y9331096D01*
X4457598Y9332010D01*
X4472076Y9334703D01*
X4486148Y9339173D01*
X4499559Y9345371D01*
X4512106Y9353143D01*
X4523587Y9362389D01*
X4533849Y9372955D01*
X4542790Y9384741D01*
X4550156Y9397542D01*
X4555896Y9411106D01*
X4560062Y9425787D01*
X4562144Y9429597D01*
X4565599Y9432239D01*
X4569866Y9433153D01*
X4574082Y9432239D01*
X4577537Y9429597D01*
X4579620Y9425787D01*
X4583785Y9411106D01*
X4589526Y9397542D01*
X4596942Y9384741D01*
X4605832Y9372955D01*
X4616094Y9362389D01*
X4627575Y9353143D01*
X4640122Y9345371D01*
X4653534Y9339173D01*
X4667605Y9334703D01*
X4682134Y9332010D01*
X4696866Y9331096D01*
X4711598Y9332010D01*
X4726076Y9334703D01*
X4740148Y9339173D01*
X4753559Y9345371D01*
X4766106Y9353143D01*
X4777587Y9362389D01*
X4787849Y9372955D01*
X4796790Y9384741D01*
X4804156Y9397542D01*
X4809896Y9411106D01*
X4814062Y9425787D01*
X4816144Y9429597D01*
X4819599Y9432239D01*
X4823866Y9433153D01*
X4828082Y9432239D01*
X4831537Y9429597D01*
X4833620Y9425787D01*
X4837785Y9411106D01*
X4843526Y9397542D01*
X4850942Y9384741D01*
X4859832Y9372955D01*
X4870094Y9362389D01*
X4881575Y9353143D01*
X4894122Y9345371D01*
X4907534Y9339173D01*
X4921605Y9334703D01*
X4936134Y9332010D01*
X4950866Y9331096D01*
X4965598Y9332010D01*
X4980076Y9334703D01*
X4994148Y9339173D01*
X5007559Y9345371D01*
X5020106Y9353143D01*
X5031587Y9362389D01*
X5041849Y9372955D01*
X5050790Y9384741D01*
X5058156Y9397542D01*
X5063896Y9411106D01*
X5068062Y9425787D01*
X5070144Y9429597D01*
X5073599Y9432239D01*
X5077866Y9433153D01*
X5082082Y9432239D01*
X5085537Y9429597D01*
X5087620Y9425787D01*
X5091785Y9411106D01*
X5097526Y9397542D01*
X5104942Y9384741D01*
X5113832Y9372955D01*
X5124094Y9362389D01*
X5135575Y9353143D01*
X5148122Y9345371D01*
X5161534Y9339173D01*
X5175605Y9334703D01*
X5190134Y9332010D01*
X5204866Y9331096D01*
X5219598Y9332010D01*
X5234076Y9334703D01*
X5248148Y9339173D01*
X5261559Y9345371D01*
X5274106Y9353143D01*
X5285587Y9362389D01*
X5295849Y9372955D01*
X5304790Y9384741D01*
X5312156Y9397542D01*
X5317896Y9411106D01*
X5322062Y9425787D01*
X5324144Y9429597D01*
X5327599Y9432239D01*
X5331866Y9433153D01*
X5336082Y9432239D01*
X5339537Y9429597D01*
X5341620Y9425787D01*
X5345785Y9411106D01*
X5351526Y9397542D01*
X5358942Y9384741D01*
X5367832Y9372955D01*
X5378094Y9362389D01*
X5389575Y9353143D01*
X5402122Y9345371D01*
X5415534Y9339173D01*
X5429605Y9334703D01*
X5444134Y9332010D01*
X5458866Y9331096D01*
X5473598Y9332010D01*
X5488076Y9334703D01*
X5502148Y9339173D01*
X5515559Y9345371D01*
X5528106Y9353143D01*
X5539587Y9362389D01*
X5549849Y9372955D01*
X5558790Y9384741D01*
X5566156Y9397542D01*
X5571896Y9411106D01*
X5576062Y9425787D01*
X5578144Y9429597D01*
X5581599Y9432239D01*
X5585866Y9433153D01*
X5590082Y9432239D01*
X5593537Y9429597D01*
X5595620Y9425787D01*
X5599785Y9411106D01*
X5605526Y9397542D01*
X5612942Y9384741D01*
X5621832Y9372955D01*
X5632094Y9362389D01*
X5643575Y9353143D01*
X5656122Y9345371D01*
X5669534Y9339173D01*
X5683605Y9334703D01*
X5698134Y9332010D01*
X5712866Y9331096D01*
X5727598Y9332010D01*
X5742076Y9334703D01*
X5756148Y9339173D01*
X5769559Y9345371D01*
X5782106Y9353143D01*
X5793587Y9362389D01*
X5803849Y9372955D01*
X5812790Y9384741D01*
X5820156Y9397542D01*
X5825896Y9411106D01*
X5830062Y9425787D01*
X5832144Y9429597D01*
X5835599Y9432239D01*
X5839866Y9433153D01*
X5844082Y9432239D01*
X5847537Y9429597D01*
X5849620Y9425787D01*
X5853785Y9411106D01*
X5859526Y9397542D01*
X5866942Y9384741D01*
X5875832Y9372955D01*
X5886094Y9362389D01*
X5897575Y9353143D01*
X5910122Y9345371D01*
X5923534Y9339173D01*
X5937605Y9334703D01*
X5952134Y9332010D01*
X5966866Y9331096D01*
X5981598Y9332010D01*
X5996076Y9334703D01*
X6010148Y9339173D01*
X6023559Y9345371D01*
X6036106Y9353143D01*
X6047587Y9362389D01*
X6057849Y9372955D01*
X6066790Y9384741D01*
X6074156Y9397542D01*
X6079896Y9411106D01*
X6084062Y9425787D01*
X6086144Y9429597D01*
X6089599Y9432239D01*
X6093866Y9433153D01*
X6098082Y9432239D01*
X6101537Y9429597D01*
X6103620Y9425787D01*
X6107785Y9411106D01*
X6113526Y9397542D01*
X6120942Y9384741D01*
X6129832Y9372955D01*
X6140094Y9362389D01*
X6151575Y9353143D01*
X6164122Y9345371D01*
X6177534Y9339173D01*
X6191605Y9334703D01*
X6206134Y9332010D01*
X6220866Y9331096D01*
X6235598Y9332010D01*
X6250076Y9334703D01*
X6264148Y9339173D01*
X6277559Y9345371D01*
X6290106Y9353143D01*
X6301587Y9362389D01*
X6311849Y9372955D01*
X6320790Y9384741D01*
X6328156Y9397542D01*
X6333896Y9411106D01*
X6338062Y9425787D01*
X6340144Y9429597D01*
X6343599Y9432239D01*
X6347866Y9433153D01*
X6352082Y9432239D01*
X6355537Y9429597D01*
X6357620Y9425787D01*
X6361785Y9411106D01*
X6367526Y9397542D01*
X6374942Y9384741D01*
X6383832Y9372955D01*
X6394094Y9362389D01*
X6405575Y9353143D01*
X6418122Y9345371D01*
X6431534Y9339173D01*
X6445605Y9334703D01*
X6460134Y9332010D01*
X6474866Y9331096D01*
X6489598Y9332010D01*
X6504076Y9334703D01*
X6518148Y9339173D01*
X6531559Y9345371D01*
X6544106Y9353143D01*
X6555587Y9362389D01*
X6565849Y9372955D01*
X6574790Y9384741D01*
X6582156Y9397542D01*
X6587896Y9411106D01*
X6591960Y9425330D01*
X6594195Y9439910D01*
X6594652Y9454642D01*
X6593281Y9469323D01*
X6590131Y9483750D01*
X6585254Y9497669D01*
X6578650Y9510877D01*
X6570522Y9523171D01*
X6560921Y9534398D01*
X6549999Y9544354D01*
X6537959Y9552889D01*
X6524955Y9559848D01*
X6516522Y9563100D01*
X6513118Y9565284D01*
X6510832Y9568637D01*
X6510070Y9572599D01*
X6510070Y9789617D01*
X6510731Y9793274D01*
X6512712Y9796475D01*
X6515709Y9798710D01*
X6523380Y9802469D01*
X6534657Y9810038D01*
X6544919Y9818979D01*
X6553860Y9829241D01*
X6561429Y9840518D01*
X6567424Y9852710D01*
X6571792Y9865563D01*
X6574434Y9878923D01*
X6575348Y9892436D01*
X6574434Y9906000D01*
X6571792Y9919360D01*
X6567424Y9932212D01*
X6561429Y9944404D01*
X6553860Y9955682D01*
X6544919Y9965893D01*
X6534657Y9974884D01*
X6523380Y9982403D01*
X6511188Y9988448D01*
X6498336Y9992817D01*
X6484975Y9995458D01*
X6471462Y9996322D01*
X6457899Y9995458D01*
X6444538Y9992817D01*
X6431686Y9988448D01*
X6419494Y9982403D01*
X6408216Y9974884D01*
X6398006Y9965893D01*
X6389014Y9955682D01*
X6381496Y9944404D01*
X6375450Y9932212D01*
X6371082Y9919360D01*
X6368440Y9906000D01*
X6367576Y9892436D01*
X6368440Y9878923D01*
X6371082Y9865563D01*
X6375450Y9852710D01*
X6381496Y9840518D01*
X6389014Y9829241D01*
X6398006Y9818979D01*
X6408216Y9810038D01*
X6419494Y9802469D01*
X6427165Y9798710D01*
X6430162Y9796475D01*
X6432143Y9793274D01*
X6432854Y9789617D01*
X6432854Y9569958D01*
X6432042Y9565995D01*
X6429756Y9562642D01*
X6426352Y9560458D01*
X6424726Y9559848D01*
X6411722Y9552889D01*
X6399682Y9544354D01*
X6388811Y9534398D01*
X6379210Y9523171D01*
X6371031Y9510877D01*
X6364478Y9497669D01*
X6359550Y9483750D01*
X6357772Y9475622D01*
X6356197Y9472015D01*
X6353403Y9469323D01*
X6349796Y9467799D01*
X6345885Y9467799D01*
X6342278Y9469323D01*
X6339484Y9472015D01*
X6337909Y9475622D01*
X6336131Y9483750D01*
X6331254Y9497669D01*
X6324650Y9510877D01*
X6316522Y9523171D01*
X6306921Y9534398D01*
X6295999Y9544354D01*
X6283960Y9552889D01*
X6270955Y9559848D01*
X6262522Y9563100D01*
X6259118Y9565284D01*
X6256832Y9568637D01*
X6256070Y9572599D01*
X6256070Y9789617D01*
X6256731Y9793274D01*
X6258712Y9796475D01*
X6261709Y9798710D01*
X6269380Y9802469D01*
X6280658Y9810038D01*
X6290919Y9818979D01*
X6299860Y9829241D01*
X6307429Y9840518D01*
X6313424Y9852710D01*
X6317792Y9865563D01*
X6320434Y9878923D01*
X6321348Y9892436D01*
X6320434Y9906000D01*
X6317792Y9919360D01*
X6313424Y9932212D01*
X6307429Y9944404D01*
X6299860Y9955682D01*
X6290919Y9965893D01*
X6280658Y9974884D01*
X6269380Y9982403D01*
X6257188Y9988448D01*
X6244336Y9992817D01*
X6230975Y9995458D01*
X6217462Y9996322D01*
X6203899Y9995458D01*
X6190538Y9992817D01*
X6177686Y9988448D01*
X6165494Y9982403D01*
X6154216Y9974884D01*
X6144006Y9965893D01*
X6135014Y9955682D01*
X6127496Y9944404D01*
X6121450Y9932212D01*
X6117082Y9919360D01*
X6114440Y9906000D01*
X6113576Y9892436D01*
X6114440Y9878923D01*
X6117082Y9865563D01*
X6121450Y9852710D01*
X6127496Y9840518D01*
X6135014Y9829241D01*
X6144006Y9818979D01*
X6154216Y9810038D01*
X6165494Y9802469D01*
X6173165Y9798710D01*
X6176162Y9796475D01*
X6178143Y9793274D01*
X6178854Y9789617D01*
X6178854Y9569958D01*
X6178042Y9565995D01*
X6175756Y9562642D01*
X6172352Y9560458D01*
X6170726Y9559848D01*
X6157722Y9552889D01*
X6145682Y9544354D01*
X6134811Y9534398D01*
X6125210Y9523171D01*
X6117031Y9510877D01*
X6110478Y9497669D01*
X6105550Y9483750D01*
X6103772Y9475622D01*
X6102197Y9472015D01*
X6099403Y9469323D01*
X6095796Y9467799D01*
X6091885Y9467799D01*
X6088278Y9469323D01*
X6085484Y9472015D01*
X6083909Y9475622D01*
X6082131Y9483750D01*
X6077254Y9497669D01*
X6070650Y9510877D01*
X6062522Y9523171D01*
X6052921Y9534398D01*
X6041999Y9544354D01*
X6029960Y9552889D01*
X6016955Y9559848D01*
X6008522Y9563100D01*
X6005118Y9565284D01*
X6002832Y9568637D01*
X6002070Y9572599D01*
X6002070Y9789617D01*
X6002731Y9793274D01*
X6004712Y9796475D01*
X6007709Y9798710D01*
X6015380Y9802469D01*
X6026658Y9810038D01*
X6036919Y9818979D01*
X6045860Y9829241D01*
X6053429Y9840518D01*
X6059424Y9852710D01*
X6063792Y9865563D01*
X6066434Y9878923D01*
X6067348Y9892436D01*
X6066434Y9906000D01*
X6063792Y9919360D01*
X6059424Y9932212D01*
X6053429Y9944404D01*
X6045860Y9955682D01*
X6036919Y9965893D01*
X6026658Y9974884D01*
X6015380Y9982403D01*
X6003188Y9988448D01*
X5990336Y9992817D01*
X5976975Y9995458D01*
X5963462Y9996322D01*
X5949899Y9995458D01*
X5936538Y9992817D01*
X5923686Y9988448D01*
X5911494Y9982403D01*
X5900216Y9974884D01*
X5890006Y9965893D01*
X5881014Y9955682D01*
X5873496Y9944404D01*
X5867450Y9932212D01*
X5863082Y9919360D01*
X5860440Y9906000D01*
X5859576Y9892436D01*
X5860440Y9878923D01*
X5863082Y9865563D01*
X5867450Y9852710D01*
X5873496Y9840518D01*
X5881014Y9829241D01*
X5890006Y9818979D01*
X5900216Y9810038D01*
X5911494Y9802469D01*
X5919165Y9798710D01*
X5922162Y9796475D01*
X5924143Y9793274D01*
X5924854Y9789617D01*
X5924854Y9569958D01*
X5924042Y9565995D01*
X5921756Y9562642D01*
X5918352Y9560458D01*
X5916726Y9559848D01*
X5903722Y9552889D01*
X5891682Y9544354D01*
X5880811Y9534398D01*
X5871210Y9523171D01*
X5863031Y9510877D01*
X5856478Y9497669D01*
X5851550Y9483750D01*
X5849772Y9475622D01*
X5848197Y9472015D01*
X5845403Y9469323D01*
X5841796Y9467799D01*
X5837885Y9467799D01*
X5834278Y9469323D01*
X5831484Y9472015D01*
X5829909Y9475622D01*
X5828131Y9483750D01*
X5823254Y9497669D01*
X5816650Y9510877D01*
X5808522Y9523171D01*
X5798921Y9534398D01*
X5787999Y9544354D01*
X5775960Y9552889D01*
X5762955Y9559848D01*
X5754522Y9563100D01*
X5751118Y9565284D01*
X5748832Y9568637D01*
X5748070Y9572599D01*
X5748070Y9789617D01*
X5748731Y9793274D01*
X5750712Y9796475D01*
X5753709Y9798710D01*
X5761380Y9802469D01*
X5772658Y9810038D01*
X5782919Y9818979D01*
X5791860Y9829241D01*
X5799429Y9840518D01*
X5805424Y9852710D01*
X5809792Y9865563D01*
X5812434Y9878923D01*
X5813348Y9892436D01*
X5812434Y9906000D01*
X5809792Y9919360D01*
X5805424Y9932212D01*
X5799429Y9944404D01*
X5791860Y9955682D01*
X5782919Y9965893D01*
X5772658Y9974884D01*
X5761380Y9982403D01*
X5749188Y9988448D01*
X5736336Y9992817D01*
X5722975Y9995458D01*
X5709462Y9996322D01*
X5695899Y9995458D01*
X5682538Y9992817D01*
X5669686Y9988448D01*
X5657494Y9982403D01*
X5646216Y9974884D01*
X5636006Y9965893D01*
X5627014Y9955682D01*
X5619496Y9944404D01*
X5613450Y9932212D01*
X5609082Y9919360D01*
X5606440Y9906000D01*
X5605576Y9892436D01*
X5606440Y9878923D01*
X5609082Y9865563D01*
X5613450Y9852710D01*
X5619496Y9840518D01*
X5627014Y9829241D01*
X5636006Y9818979D01*
X5646216Y9810038D01*
X5657494Y9802469D01*
X5665165Y9798710D01*
X5668162Y9796475D01*
X5670143Y9793274D01*
X5670854Y9789617D01*
X5670854Y9569958D01*
X5670042Y9565995D01*
X5667756Y9562642D01*
X5664352Y9560458D01*
X5662726Y9559848D01*
X5649722Y9552889D01*
X5637682Y9544354D01*
X5626811Y9534398D01*
X5617210Y9523171D01*
X5609031Y9510877D01*
X5602478Y9497669D01*
X5597550Y9483750D01*
X5595772Y9475622D01*
X5594197Y9472015D01*
X5591403Y9469323D01*
X5587796Y9467799D01*
X5583885Y9467799D01*
X5580278Y9469323D01*
X5577484Y9472015D01*
X5575909Y9475622D01*
X5574131Y9483750D01*
X5569254Y9497669D01*
X5562650Y9510877D01*
X5554522Y9523171D01*
X5544921Y9534398D01*
X5533999Y9544354D01*
X5521960Y9552889D01*
X5508955Y9559848D01*
X5500522Y9563100D01*
X5497118Y9565284D01*
X5494832Y9568637D01*
X5494070Y9572599D01*
X5494070Y9789617D01*
X5494731Y9793274D01*
X5496712Y9796475D01*
X5499709Y9798710D01*
X5507380Y9802469D01*
X5518658Y9810038D01*
X5528919Y9818979D01*
X5537860Y9829241D01*
X5545429Y9840518D01*
X5551424Y9852710D01*
X5555792Y9865563D01*
X5558434Y9878923D01*
X5559348Y9892436D01*
X5558434Y9906000D01*
X5555792Y9919360D01*
X5551424Y9932212D01*
X5545429Y9944404D01*
X5537860Y9955682D01*
X5528919Y9965893D01*
X5518658Y9974884D01*
X5507380Y9982403D01*
X5495188Y9988448D01*
X5482336Y9992817D01*
X5468975Y9995458D01*
X5455462Y9996322D01*
X5441899Y9995458D01*
X5428538Y9992817D01*
X5415686Y9988448D01*
X5403494Y9982403D01*
X5392216Y9974884D01*
X5382006Y9965893D01*
X5373014Y9955682D01*
X5365496Y9944404D01*
X5359450Y9932212D01*
X5355082Y9919360D01*
X5352440Y9906000D01*
X5351576Y9892436D01*
X5352440Y9878923D01*
X5355082Y9865563D01*
X5359450Y9852710D01*
X5365496Y9840518D01*
X5373014Y9829241D01*
X5382006Y9818979D01*
X5392216Y9810038D01*
X5403494Y9802469D01*
X5411165Y9798710D01*
X5414162Y9796475D01*
X5416143Y9793274D01*
X5416854Y9789617D01*
X5416854Y9569958D01*
X5416042Y9565995D01*
X5413756Y9562642D01*
X5410352Y9560458D01*
X5408726Y9559848D01*
X5395722Y9552889D01*
X5383682Y9544354D01*
X5372811Y9534398D01*
X5363210Y9523171D01*
X5355031Y9510877D01*
X5348478Y9497669D01*
X5343550Y9483750D01*
X5341772Y9475622D01*
X5340197Y9472015D01*
X5337403Y9469323D01*
X5333796Y9467799D01*
X5329885Y9467799D01*
X5326278Y9469323D01*
X5323484Y9472015D01*
X5321909Y9475622D01*
X5320131Y9483750D01*
X5315254Y9497669D01*
X5308650Y9510877D01*
X5300522Y9523171D01*
X5290921Y9534398D01*
X5279999Y9544354D01*
X5267960Y9552889D01*
X5254955Y9559848D01*
X5246522Y9563100D01*
X5243118Y9565284D01*
X5240832Y9568637D01*
X5240070Y9572599D01*
X5240070Y9789617D01*
X5240731Y9793274D01*
X5242712Y9796475D01*
X5245709Y9798710D01*
X5253380Y9802469D01*
X5264658Y9810038D01*
X5274919Y9818979D01*
X5283860Y9829241D01*
X5291429Y9840518D01*
X5297424Y9852710D01*
X5301792Y9865563D01*
X5304434Y9878923D01*
X5305348Y9892436D01*
X5304434Y9906000D01*
X5301792Y9919360D01*
X5297424Y9932212D01*
X5291429Y9944404D01*
X5283860Y9955682D01*
X5274919Y9965893D01*
X5264658Y9974884D01*
X5253380Y9982403D01*
X5241188Y9988448D01*
X5228336Y9992817D01*
X5214975Y9995458D01*
X5201462Y9996322D01*
X5187899Y9995458D01*
X5174538Y9992817D01*
X5161686Y9988448D01*
X5149494Y9982403D01*
X5138216Y9974884D01*
X5128006Y9965893D01*
X5119014Y9955682D01*
X5111496Y9944404D01*
X5105450Y9932212D01*
X5101082Y9919360D01*
X5098440Y9906000D01*
X5097576Y9892436D01*
X5098440Y9878923D01*
X5101082Y9865563D01*
X5105450Y9852710D01*
X5111496Y9840518D01*
X5119014Y9829241D01*
X5128006Y9818979D01*
X5138216Y9810038D01*
X5149494Y9802469D01*
X5157165Y9798710D01*
X5160162Y9796475D01*
X5162143Y9793274D01*
X5162854Y9789617D01*
X5162854Y9569958D01*
X5162042Y9565995D01*
X5159756Y9562642D01*
X5156352Y9560458D01*
X5154726Y9559848D01*
X5141722Y9552889D01*
X5129682Y9544354D01*
X5118811Y9534398D01*
X5109210Y9523171D01*
X5101031Y9510877D01*
X5094478Y9497669D01*
X5089550Y9483750D01*
X5087772Y9475622D01*
X5086197Y9472015D01*
X5083403Y9469323D01*
X5079796Y9467799D01*
X5075885Y9467799D01*
X5072278Y9469323D01*
X5069484Y9472015D01*
X5067909Y9475622D01*
X5066131Y9483750D01*
X5061254Y9497669D01*
X5054650Y9510877D01*
X5046522Y9523171D01*
X5036921Y9534398D01*
X5025999Y9544354D01*
X5013960Y9552889D01*
X5000955Y9559848D01*
X4992522Y9563100D01*
X4989118Y9565284D01*
X4986832Y9568637D01*
X4986070Y9572599D01*
X4986070Y9789617D01*
X4986731Y9793274D01*
X4988712Y9796475D01*
X4991709Y9798710D01*
X4999380Y9802469D01*
X5010658Y9810038D01*
X5020919Y9818979D01*
X5029860Y9829241D01*
X5037429Y9840518D01*
X5043424Y9852710D01*
X5047792Y9865563D01*
X5050434Y9878923D01*
X5051348Y9892436D01*
X5050434Y9906000D01*
X5047792Y9919360D01*
X5043424Y9932212D01*
X5037429Y9944404D01*
X5029860Y9955682D01*
X5020919Y9965893D01*
X5010658Y9974884D01*
X4999380Y9982403D01*
X4987188Y9988448D01*
X4974336Y9992817D01*
X4960975Y9995458D01*
X4947462Y9996322D01*
X4933899Y9995458D01*
X4920538Y9992817D01*
X4907686Y9988448D01*
X4895494Y9982403D01*
X4884216Y9974884D01*
X4874006Y9965893D01*
X4865014Y9955682D01*
X4857496Y9944404D01*
X4851450Y9932212D01*
X4847082Y9919360D01*
X4844440Y9906000D01*
X4843576Y9892436D01*
X4844440Y9878923D01*
X4847082Y9865563D01*
X4851450Y9852710D01*
X4857496Y9840518D01*
X4865014Y9829241D01*
X4874006Y9818979D01*
X4884216Y9810038D01*
X4895494Y9802469D01*
X4903165Y9798710D01*
X4906162Y9796475D01*
X4908143Y9793274D01*
X4908854Y9789617D01*
X4908854Y9569958D01*
X4908042Y9565995D01*
X4905756Y9562642D01*
X4902352Y9560458D01*
X4900726Y9559848D01*
X4887722Y9552889D01*
X4875682Y9544354D01*
X4864811Y9534398D01*
X4855210Y9523171D01*
X4847031Y9510877D01*
X4840478Y9497669D01*
X4835550Y9483750D01*
X4833772Y9475622D01*
X4832197Y9472015D01*
X4829403Y9469323D01*
X4825796Y9467799D01*
X4821885Y9467799D01*
X4818278Y9469323D01*
X4815484Y9472015D01*
X4813909Y9475622D01*
X4812131Y9483750D01*
X4807254Y9497669D01*
X4800650Y9510877D01*
X4792522Y9523171D01*
X4782921Y9534398D01*
X4771999Y9544354D01*
X4759960Y9552889D01*
X4746955Y9559848D01*
X4738522Y9563100D01*
X4735118Y9565284D01*
X4732832Y9568637D01*
X4732070Y9572599D01*
X4732070Y9789617D01*
X4732731Y9793274D01*
X4734712Y9796475D01*
X4737709Y9798710D01*
X4745380Y9802469D01*
X4756658Y9810038D01*
X4766919Y9818979D01*
X4775860Y9829241D01*
X4783429Y9840518D01*
X4789424Y9852710D01*
X4793792Y9865563D01*
X4796434Y9878923D01*
X4797348Y9892436D01*
X4796434Y9906000D01*
X4793792Y9919360D01*
X4789424Y9932212D01*
X4783429Y9944404D01*
X4775860Y9955682D01*
X4766919Y9965893D01*
X4756658Y9974884D01*
X4745380Y9982403D01*
X4733188Y9988448D01*
X4720336Y9992817D01*
X4706975Y9995458D01*
X4693462Y9996322D01*
X4679899Y9995458D01*
X4666538Y9992817D01*
X4653686Y9988448D01*
X4641494Y9982403D01*
X4630216Y9974884D01*
X4620006Y9965893D01*
X4611014Y9955682D01*
X4603496Y9944404D01*
X4597450Y9932212D01*
X4593082Y9919360D01*
X4590440Y9906000D01*
X4589576Y9892436D01*
X4590440Y9878923D01*
X4593082Y9865563D01*
X4597450Y9852710D01*
X4603496Y9840518D01*
X4611014Y9829241D01*
X4620006Y9818979D01*
X4630216Y9810038D01*
X4641494Y9802469D01*
X4649165Y9798710D01*
X4652162Y9796475D01*
X4654143Y9793274D01*
X4654854Y9789617D01*
X4654854Y9569958D01*
X4654042Y9565995D01*
X4651756Y9562642D01*
X4648352Y9560458D01*
X4646726Y9559848D01*
X4633722Y9552889D01*
X4621682Y9544354D01*
X4610811Y9534398D01*
X4601210Y9523171D01*
X4593031Y9510877D01*
X4586478Y9497669D01*
X4581550Y9483750D01*
X4579772Y9475622D01*
X4578197Y9472015D01*
X4575403Y9469323D01*
X4571796Y9467799D01*
X4567885Y9467799D01*
X4564278Y9469323D01*
X4561484Y9472015D01*
X4559909Y9475622D01*
X4558131Y9483750D01*
X4553254Y9497669D01*
X4546650Y9510877D01*
X4538522Y9523171D01*
X4528921Y9534398D01*
X4517999Y9544354D01*
X4505960Y9552889D01*
X4492955Y9559848D01*
X4484522Y9563100D01*
X4481118Y9565284D01*
X4478832Y9568637D01*
X4478070Y9572599D01*
X4478070Y9789617D01*
X4478731Y9793274D01*
X4480712Y9796475D01*
X4483709Y9798710D01*
X4491380Y9802469D01*
X4502658Y9810038D01*
X4512919Y9818979D01*
X4521860Y9829241D01*
X4529429Y9840518D01*
X4535424Y9852710D01*
X4539792Y9865563D01*
X4542434Y9878923D01*
X4543348Y9892436D01*
X4542434Y9906000D01*
X4539792Y9919360D01*
X4535424Y9932212D01*
X4529429Y9944404D01*
X4521860Y9955682D01*
X4512919Y9965893D01*
X4502658Y9974884D01*
X4491380Y9982403D01*
X4479188Y9988448D01*
X4466336Y9992817D01*
X4452975Y9995458D01*
X4439462Y9996322D01*
X4425899Y9995458D01*
X4412538Y9992817D01*
X4399686Y9988448D01*
X4387494Y9982403D01*
X4376216Y9974884D01*
X4366006Y9965893D01*
X4357014Y9955682D01*
X4349496Y9944404D01*
X4343450Y9932212D01*
X4339082Y9919360D01*
X4336440Y9906000D01*
X4335576Y9892436D01*
X4336440Y9878923D01*
X4339082Y9865563D01*
X4343450Y9852710D01*
X4349496Y9840518D01*
X4357014Y9829241D01*
X4366006Y9818979D01*
X4376216Y9810038D01*
X4387494Y9802469D01*
X4395165Y9798710D01*
X4398162Y9796475D01*
X4400143Y9793274D01*
X4400854Y9789617D01*
X4400854Y9569958D01*
X4400042Y9565995D01*
X4397756Y9562642D01*
X4394352Y9560458D01*
X4392726Y9559848D01*
X4379722Y9552889D01*
X4367682Y9544354D01*
X4356811Y9534398D01*
X4347210Y9523171D01*
X4339031Y9510877D01*
X4332478Y9497669D01*
X4327550Y9483750D01*
X4325772Y9475622D01*
X4324197Y9472015D01*
X4321403Y9469323D01*
X4317796Y9467799D01*
X4313885Y9467799D01*
X4310278Y9469323D01*
X4307484Y9472015D01*
X4305909Y9475622D01*
X4304131Y9483750D01*
X4299254Y9497669D01*
X4292650Y9510877D01*
X4284522Y9523171D01*
X4274921Y9534398D01*
X4263999Y9544354D01*
X4251960Y9552889D01*
X4238955Y9559848D01*
X4230522Y9563100D01*
X4227118Y9565284D01*
X4224832Y9568637D01*
X4224070Y9572599D01*
X4224070Y9789617D01*
X4224731Y9793274D01*
X4226712Y9796475D01*
X4229709Y9798710D01*
X4237380Y9802469D01*
X4248658Y9810038D01*
X4258919Y9818979D01*
X4267860Y9829241D01*
X4275429Y9840518D01*
X4281424Y9852710D01*
X4285792Y9865563D01*
X4288434Y9878923D01*
X4289348Y9892436D01*
X4288434Y9906000D01*
X4285792Y9919360D01*
X4281424Y9932212D01*
X4275429Y9944404D01*
X4267860Y9955682D01*
X4258919Y9965893D01*
X4248658Y9974884D01*
X4237380Y9982403D01*
X4225188Y9988448D01*
X4212336Y9992817D01*
X4198975Y9995458D01*
X4185462Y9996322D01*
X4171899Y9995458D01*
X4158538Y9992817D01*
X4145686Y9988448D01*
X4133494Y9982403D01*
X4122216Y9974884D01*
X4112006Y9965893D01*
X4103014Y9955682D01*
X4095496Y9944404D01*
X4089450Y9932212D01*
X4085082Y9919360D01*
X4082440Y9906000D01*
X4081576Y9892436D01*
X4082440Y9878923D01*
X4085082Y9865563D01*
X4089450Y9852710D01*
X4095496Y9840518D01*
X4103014Y9829241D01*
X4112006Y9818979D01*
X4122216Y9810038D01*
X4133494Y9802469D01*
X4141165Y9798710D01*
X4144162Y9796475D01*
X4146143Y9793274D01*
X4146854Y9789617D01*
X4146854Y9569958D01*
X4146042Y9565995D01*
X4143756Y9562642D01*
X4140352Y9560458D01*
X4138726Y9559848D01*
X4125722Y9552889D01*
X4113682Y9544354D01*
X4102811Y9534398D01*
X4093210Y9523171D01*
X4085031Y9510877D01*
X4078478Y9497669D01*
X4073550Y9483750D01*
X4071772Y9475622D01*
X4070197Y9472015D01*
X4067403Y9469323D01*
X4063796Y9467799D01*
X4059885Y9467799D01*
X4056278Y9469323D01*
X4053484Y9472015D01*
X4051909Y9475622D01*
X4050131Y9483750D01*
X4045254Y9497669D01*
X4038650Y9510877D01*
X4030522Y9523171D01*
X4020921Y9534398D01*
X4009999Y9544354D01*
X3997960Y9552889D01*
X3984955Y9559848D01*
X3976522Y9563100D01*
X3973118Y9565284D01*
X3970832Y9568637D01*
X3970070Y9572599D01*
X3970070Y9789617D01*
X3970731Y9793274D01*
X3972712Y9796475D01*
X3975709Y9798710D01*
X3983380Y9802469D01*
X3994658Y9810038D01*
X4004919Y9818979D01*
X4013860Y9829241D01*
X4021429Y9840518D01*
X4027424Y9852710D01*
X4031792Y9865563D01*
X4034434Y9878923D01*
X4035348Y9892436D01*
X4034434Y9906000D01*
X4031792Y9919360D01*
X4027424Y9932212D01*
X4021429Y9944404D01*
X4013860Y9955682D01*
X4004919Y9965893D01*
X3994658Y9974884D01*
X3983380Y9982403D01*
X3971188Y9988448D01*
X3958336Y9992817D01*
X3944975Y9995458D01*
X3931462Y9996322D01*
X3917899Y9995458D01*
X3904538Y9992817D01*
X3891686Y9988448D01*
X3879494Y9982403D01*
X3868216Y9974884D01*
X3858006Y9965893D01*
X3849014Y9955682D01*
X3841496Y9944404D01*
X3835450Y9932212D01*
X3831082Y9919360D01*
X3828440Y9906000D01*
X3827576Y9892436D01*
X3828440Y9878923D01*
X3831082Y9865563D01*
X3835450Y9852710D01*
X3841496Y9840518D01*
X3849014Y9829241D01*
X3858006Y9818979D01*
X3868216Y9810038D01*
X3879494Y9802469D01*
X3887165Y9798710D01*
X3890162Y9796475D01*
X3892143Y9793274D01*
X3892854Y9789617D01*
X3892854Y9569958D01*
X3892042Y9565995D01*
X3889756Y9562642D01*
X3886352Y9560458D01*
X3884726Y9559848D01*
X3871722Y9552889D01*
X3859682Y9544354D01*
X3848811Y9534398D01*
X3839210Y9523171D01*
X3831031Y9510877D01*
X3824478Y9497669D01*
X3819550Y9483750D01*
X3817772Y9475622D01*
X3816197Y9472015D01*
X3813403Y9469323D01*
X3809796Y9467799D01*
X3805885Y9467799D01*
X3802278Y9469323D01*
X3799484Y9472015D01*
X3797909Y9475622D01*
X3796131Y9483750D01*
X3791254Y9497669D01*
X3784650Y9510877D01*
X3776522Y9523171D01*
X3766921Y9534398D01*
X3755999Y9544354D01*
X3743960Y9552889D01*
X3730955Y9559848D01*
X3722522Y9563100D01*
X3719118Y9565284D01*
X3716832Y9568637D01*
X3716070Y9572599D01*
X3716070Y9789617D01*
X3716731Y9793274D01*
X3718712Y9796475D01*
X3721709Y9798710D01*
X3729380Y9802469D01*
X3740658Y9810038D01*
X3750919Y9818979D01*
X3759860Y9829241D01*
X3767429Y9840518D01*
X3773424Y9852710D01*
X3777792Y9865563D01*
X3780434Y9878923D01*
X3781348Y9892436D01*
X3780434Y9906000D01*
X3777792Y9919360D01*
X3773424Y9932212D01*
X3767429Y9944404D01*
X3759860Y9955682D01*
X3750919Y9965893D01*
X3740658Y9974884D01*
X3729380Y9982403D01*
X3717188Y9988448D01*
X3704336Y9992817D01*
X3690975Y9995458D01*
X3677462Y9996322D01*
X3663899Y9995458D01*
X3650538Y9992817D01*
X3637686Y9988448D01*
X3625494Y9982403D01*
X3614216Y9974884D01*
X3604006Y9965893D01*
X3595014Y9955682D01*
X3587496Y9944404D01*
X3581450Y9932212D01*
X3577082Y9919360D01*
X3574440Y9906000D01*
X3573576Y9892436D01*
X3574440Y9878923D01*
X3577082Y9865563D01*
X3581450Y9852710D01*
X3587496Y9840518D01*
X3595014Y9829241D01*
X3604006Y9818979D01*
X3614216Y9810038D01*
X3625494Y9802469D01*
X3633165Y9798710D01*
X3636162Y9796475D01*
X3638143Y9793274D01*
X3638854Y9789617D01*
X3638854Y9569958D01*
X3638042Y9565995D01*
X3635756Y9562642D01*
X3632352Y9560458D01*
X3630726Y9559848D01*
X3617722Y9552889D01*
X3605682Y9544354D01*
X3594811Y9534398D01*
X3585210Y9523171D01*
X3577031Y9510877D01*
X3570478Y9497669D01*
X3565550Y9483750D01*
X3563772Y9475622D01*
X3562197Y9472015D01*
X3559403Y9469323D01*
X3555796Y9467799D01*
X3551885Y9467799D01*
X3548278Y9469323D01*
X3545484Y9472015D01*
X3543909Y9475622D01*
X3542131Y9483750D01*
X3537254Y9497669D01*
X3530650Y9510877D01*
X3522522Y9523171D01*
X3512921Y9534398D01*
X3501999Y9544354D01*
X3489960Y9552889D01*
X3476955Y9559848D01*
X3468522Y9563100D01*
X3465118Y9565284D01*
X3462832Y9568637D01*
X3462070Y9572599D01*
X3462070Y9778390D01*
X3462832Y9782251D01*
X3465017Y9785553D01*
X3468319Y9787788D01*
X3472230Y9788550D01*
X3500882Y9788550D01*
X3507181Y9789261D01*
X3512667Y9791192D01*
X3517544Y9794240D01*
X3521659Y9798354D01*
X3524707Y9803231D01*
X3526637Y9808718D01*
X3527348Y9815017D01*
X3527348Y9969906D01*
X3526637Y9976205D01*
X3524707Y9981692D01*
X3521659Y9986568D01*
X3517544Y9990683D01*
X3512667Y9993731D01*
X3507181Y9995662D01*
X3500882Y9996373D01*
X3472230Y9996373D01*
X3468319Y9997135D01*
X3465017Y9999370D01*
X3462832Y10002621D01*
X3462070Y10006533D01*
X3462070Y11600180D01*
X3461258Y11608206D01*
X3459073Y11615420D01*
X3455517Y11622074D01*
X3450386Y11628323D01*
X2739694Y12339066D01*
X2737459Y12342317D01*
X2736697Y12346228D01*
X2737459Y12350140D01*
X2739694Y12353391D01*
X3118662Y12732410D01*
X3123793Y12738608D01*
X3127349Y12745313D01*
X3129534Y12752527D01*
X3130346Y12760553D01*
X3130346Y12986308D01*
X3131108Y12990169D01*
X3133293Y12993471D01*
X3695801Y13555980D01*
X3698798Y13558062D01*
X3702354Y13558977D01*
X3706012Y13558519D01*
X3716223Y13555370D01*
X3729634Y13553084D01*
X3743299Y13552627D01*
X3756863Y13553998D01*
X3770122Y13557148D01*
X3782822Y13562076D01*
X3794810Y13568629D01*
X3805783Y13576706D01*
X3815587Y13586155D01*
X3824020Y13596874D01*
X3830980Y13608608D01*
X3836314Y13621156D01*
X3839921Y13634313D01*
X3841750Y13647826D01*
X3841750Y13661491D01*
X3839921Y13675004D01*
X3836314Y13688161D01*
X3830980Y13700709D01*
X3824020Y13712444D01*
X3815587Y13723112D01*
X3805783Y13732611D01*
X3794810Y13740688D01*
X3782822Y13747242D01*
X3770122Y13752169D01*
X3756863Y13755319D01*
X3743299Y13756690D01*
X3729634Y13756233D01*
X3716223Y13753947D01*
X3703167Y13749934D01*
X3690823Y13744194D01*
X3679342Y13736828D01*
X3668928Y13728039D01*
X3659733Y13717930D01*
X3652062Y13706703D01*
X3645865Y13694511D01*
X3641394Y13681608D01*
X3638702Y13668248D01*
X3637787Y13654633D01*
X3638702Y13641069D01*
X3641394Y13627709D01*
X3643680Y13621156D01*
X3644239Y13617448D01*
X3643376Y13613790D01*
X3641242Y13610640D01*
X3064764Y13034162D01*
X3059633Y13027913D01*
X3056077Y13021259D01*
X3053892Y13014045D01*
X3053130Y13006019D01*
X3053130Y12923570D01*
X3052165Y12919354D01*
X3049574Y12915900D01*
X3045714Y12913817D01*
X3041396Y12913563D01*
X3037332Y12915138D01*
X3029559Y12920268D01*
X3016351Y12926822D01*
X3002432Y12931749D01*
X2988005Y12934899D01*
X2973324Y12936270D01*
X2958592Y12935813D01*
X2944012Y12933527D01*
X2929788Y12929514D01*
X2916224Y12923774D01*
X2903423Y12916357D01*
X2891637Y12907467D01*
X2881071Y12897205D01*
X2871825Y12885724D01*
X2864053Y12873177D01*
X2857855Y12859766D01*
X2853385Y12845694D01*
X2850692Y12831165D01*
X2849778Y12816433D01*
X2850692Y12801701D01*
X2853385Y12787223D01*
X2857855Y12773152D01*
X2864053Y12759740D01*
X2871825Y12747193D01*
X2881071Y12735712D01*
X2891637Y12725450D01*
X2903423Y12716510D01*
X2916224Y12709144D01*
X2929788Y12703403D01*
X2944012Y12699339D01*
X2952292Y12698069D01*
X2956407Y12696444D01*
X2959455Y12693243D01*
X2960827Y12689027D01*
X2960319Y12684607D01*
X2957931Y12680848D01*
X2685084Y12408001D01*
X2681782Y12405817D01*
X2677871Y12405055D01*
X2674010Y12405817D01*
X2670708Y12408001D01*
X2320036Y12758674D01*
X2317902Y12761874D01*
X2317089Y12765684D01*
X2317750Y12769494D01*
X2321864Y12780111D01*
X2325471Y12794437D01*
X2327300Y12809067D01*
X2327300Y12823850D01*
X2325471Y12838480D01*
X2321864Y12852806D01*
X2316530Y12866573D01*
X2309571Y12879578D01*
X2301036Y12891617D01*
X2291080Y12902488D01*
X2279904Y12912090D01*
X2267559Y12920268D01*
X2254351Y12926822D01*
X2240432Y12931749D01*
X2226005Y12934899D01*
X2211324Y12936270D01*
X2196592Y12935813D01*
X2182012Y12933527D01*
X2167788Y12929514D01*
X2154224Y12923774D01*
X2141423Y12916357D01*
X2129637Y12907467D01*
X2119071Y12897205D01*
X2109825Y12885724D01*
X2102053Y12873177D01*
X2095855Y12859766D01*
X2091385Y12845694D01*
X2088692Y12831165D01*
X2087778Y12816433D01*
X2088692Y12801701D01*
X2091385Y12787223D01*
X2095855Y12773152D01*
X2102053Y12759740D01*
X2109825Y12747193D01*
X2119071Y12735712D01*
X2129637Y12725450D01*
X2141423Y12716510D01*
X2154224Y12709144D01*
X2167788Y12703403D01*
X2182012Y12699339D01*
X2196592Y12697104D01*
X2211324Y12696647D01*
X2226005Y12698018D01*
X2240432Y12701168D01*
X2255012Y12706299D01*
X2258771Y12706908D01*
X2262479Y12706045D01*
X2265578Y12703911D01*
X2799537Y12170003D01*
X2801721Y12166701D01*
X2802483Y12162840D01*
X2801721Y12158929D01*
X2799486Y12155627D01*
X2796235Y12153442D01*
X2792323Y12152680D01*
X2669286Y12152680D01*
X2662986Y12151969D01*
X2657500Y12150039D01*
X2652623Y12146940D01*
X2648508Y12142876D01*
X2645460Y12137948D01*
X2643530Y12132513D01*
X2642819Y12126163D01*
X2642819Y11957304D01*
X2643530Y11951004D01*
X2645460Y11945518D01*
X2648508Y11940641D01*
X2652623Y11936526D01*
X2657500Y11933478D01*
X2662986Y11931548D01*
X2669286Y11930837D01*
X2704998Y11930837D01*
X2708859Y11930075D01*
X2712161Y11927890D01*
X2714345Y11924588D01*
X2715158Y11920677D01*
X2715158Y11858040D01*
X2714345Y11854129D01*
X2712161Y11850827D01*
X2708859Y11848642D01*
X2704998Y11847880D01*
X2669286Y11847880D01*
X2662986Y11847169D01*
X2657500Y11845239D01*
X2652623Y11842140D01*
X2648508Y11838076D01*
X2645460Y11833148D01*
X2643530Y11827713D01*
X2642819Y11821363D01*
X2642819Y11652504D01*
X2643530Y11646204D01*
X2645460Y11640718D01*
X2648508Y11635841D01*
X2652623Y11631726D01*
X2657500Y11628678D01*
X2662986Y11626748D01*
X2669286Y11626037D01*
X2704998Y11626037D01*
X2708859Y11625275D01*
X2712161Y11623090D01*
X2714345Y11619788D01*
X2715158Y11615877D01*
X2715158Y11553240D01*
X2714345Y11549329D01*
X2712161Y11546027D01*
X2708859Y11543842D01*
X2704998Y11543080D01*
X2669286Y11543080D01*
X2662986Y11542369D01*
X2657500Y11540439D01*
X2652623Y11537340D01*
X2648508Y11533276D01*
X2645460Y11528348D01*
X2643530Y11522913D01*
X2642819Y11516563D01*
X2642819Y11347704D01*
X2643530Y11341404D01*
X2645460Y11335918D01*
X2648508Y11331041D01*
X2652623Y11326926D01*
X2657500Y11323878D01*
X2662986Y11321948D01*
X2669286Y11321237D01*
X2838145Y11321237D01*
X2844495Y11321948D01*
X2849930Y11323878D01*
X2854807Y11326926D01*
X2858871Y11328400D01*
X2863138Y11328044D01*
X2866898Y11325961D01*
X2869488Y11322507D01*
X2870352Y11318341D01*
X2870352Y10698734D01*
X2869590Y10694822D01*
X2867406Y10691520D01*
X2864104Y10689336D01*
X2860243Y10688574D01*
X2856331Y10689336D01*
X2853029Y10691520D01*
X2214067Y11330482D01*
X2211882Y11333784D01*
X2211120Y11337645D01*
X2211882Y11341557D01*
X2214067Y11344859D01*
X2217369Y11347043D01*
X2221280Y11347805D01*
X2227376Y11347805D01*
X2233726Y11348516D01*
X2239162Y11350447D01*
X2244090Y11353546D01*
X2248154Y11357610D01*
X2251252Y11362537D01*
X2253183Y11367973D01*
X2253894Y11374323D01*
X2253894Y11540794D01*
X2253183Y11547144D01*
X2251252Y11552580D01*
X2248154Y11557508D01*
X2244090Y11561572D01*
X2239162Y11564670D01*
X2233726Y11566550D01*
X2227376Y11567261D01*
X2060905Y11567261D01*
X2054555Y11566550D01*
X2049119Y11564670D01*
X2044192Y11561572D01*
X2040128Y11557508D01*
X2037029Y11552580D01*
X2035149Y11547144D01*
X2034438Y11540794D01*
X2034438Y11374323D01*
X2035149Y11367973D01*
X2037029Y11362537D01*
X2040128Y11357610D01*
X2044192Y11353546D01*
X2049119Y11350447D01*
X2054555Y11348516D01*
X2060905Y11347805D01*
X2096160Y11347805D01*
X2099818Y11347145D01*
X2103018Y11345214D01*
X2105253Y11342217D01*
X2108504Y11331092D01*
X2112060Y11324386D01*
X2117191Y11318189D01*
X2817571Y10617809D01*
X2819755Y10614507D01*
X2820568Y10610596D01*
X2820568Y10094671D01*
X2819552Y10090251D01*
X2816758Y10086746D01*
X2812694Y10084765D01*
X2808173Y10084714D01*
X2804109Y10086644D01*
X2800756Y10089286D01*
X2787599Y10097262D01*
X2773527Y10103561D01*
X2758846Y10108133D01*
X2743708Y10110927D01*
X2728366Y10111841D01*
X2712974Y10110927D01*
X2697835Y10108133D01*
X2683154Y10103561D01*
X2669082Y10097262D01*
X2655925Y10089286D01*
X2643784Y10079786D01*
X2632913Y10068915D01*
X2623413Y10056774D01*
X2615438Y10043617D01*
X2609138Y10029545D01*
X2604566Y10014864D01*
X2601772Y9999726D01*
X2600858Y9984333D01*
X2601772Y9968992D01*
X2604566Y9953853D01*
X2609138Y9939172D01*
X2615438Y9925100D01*
X2623413Y9911943D01*
X2632913Y9899802D01*
X2643784Y9888931D01*
X2655925Y9879431D01*
X2669082Y9871456D01*
X2683154Y9865156D01*
X2697835Y9860584D01*
X2712974Y9857790D01*
X2728366Y9856876D01*
X2743708Y9857790D01*
X2758846Y9860584D01*
X2773527Y9865156D01*
X2787599Y9871456D01*
X2800756Y9879431D01*
X2804109Y9882073D01*
X2808173Y9884003D01*
X2812694Y9883952D01*
X2816758Y9881971D01*
X2819552Y9878466D01*
X2820568Y9874046D01*
X2820568Y9642398D01*
X2819654Y9638182D01*
X2817063Y9634728D01*
X2813354Y9632645D01*
X2809036Y9632289D01*
X2805023Y9633762D01*
X2801924Y9636709D01*
X2798673Y9641636D01*
X2789631Y9651949D01*
X2779318Y9660940D01*
X2767939Y9668560D01*
X2755696Y9674606D01*
X2742742Y9679025D01*
X2729280Y9681667D01*
X2715666Y9682581D01*
X2702001Y9681667D01*
X2688539Y9679025D01*
X2680055Y9676130D01*
X2676347Y9675622D01*
X2672740Y9676434D01*
X2669641Y9678568D01*
X1931720Y10416489D01*
X1929536Y10419791D01*
X1928774Y10423652D01*
X1928774Y11348262D01*
X1929434Y11351971D01*
X1931466Y11355171D01*
X1934514Y11357406D01*
X1943963Y11361978D01*
X1955749Y11369649D01*
X1966468Y11378742D01*
X1975916Y11389156D01*
X1983943Y11400688D01*
X1990445Y11413134D01*
X1995322Y11426342D01*
X1998421Y11440058D01*
X1999792Y11454028D01*
X1999335Y11468100D01*
X1997100Y11481968D01*
X1993087Y11495430D01*
X1987397Y11508282D01*
X1980133Y11520322D01*
X1971344Y11531295D01*
X1961235Y11541099D01*
X1950008Y11549481D01*
X1937766Y11556390D01*
X1924710Y11561673D01*
X1911096Y11565229D01*
X1897176Y11567058D01*
X1883105Y11567058D01*
X1869186Y11565229D01*
X1855571Y11561673D01*
X1842566Y11556390D01*
X1830273Y11549481D01*
X1819046Y11541099D01*
X1808937Y11531295D01*
X1800148Y11520322D01*
X1792884Y11508282D01*
X1787194Y11495430D01*
X1783181Y11481968D01*
X1780946Y11468100D01*
X1780489Y11454028D01*
X1781860Y11440058D01*
X1784959Y11426342D01*
X1789836Y11413134D01*
X1796338Y11400688D01*
X1804365Y11389156D01*
X1813814Y11378742D01*
X1824532Y11369649D01*
X1836318Y11361978D01*
X1845767Y11357406D01*
X1848815Y11355171D01*
X1850847Y11351971D01*
X1851558Y11348262D01*
X1851558Y10403941D01*
X1852320Y10395915D01*
X1854504Y10388701D01*
X1858060Y10382046D01*
X1863191Y10375798D01*
X2615031Y9623958D01*
X2617165Y9620859D01*
X2617978Y9617252D01*
X2617470Y9613544D01*
X2614574Y9605060D01*
X2611932Y9591598D01*
X2611018Y9577933D01*
X2611932Y9564319D01*
X2614574Y9550857D01*
X2618994Y9537903D01*
X2625039Y9525660D01*
X2632659Y9514281D01*
X2641650Y9503968D01*
X2651963Y9494926D01*
X2663342Y9487357D01*
X2675585Y9481312D01*
X2688539Y9476892D01*
X2702001Y9474200D01*
X2715666Y9473336D01*
X2729280Y9474200D01*
X2742742Y9476892D01*
X2755696Y9481312D01*
X2767939Y9487357D01*
X2779318Y9494926D01*
X2789631Y9503968D01*
X2798673Y9514281D01*
X2801924Y9519158D01*
X2805023Y9522155D01*
X2809036Y9523628D01*
X2813354Y9523272D01*
X2817063Y9521190D01*
X2819654Y9517735D01*
X2820568Y9513519D01*
X2820568Y9487662D01*
X2819755Y9483801D01*
X2817571Y9480499D01*
X2761640Y9424568D01*
X2758541Y9422434D01*
X2754934Y9421622D01*
X2751226Y9422130D01*
X2742742Y9425025D01*
X2729280Y9427667D01*
X2715666Y9428581D01*
X2702001Y9427667D01*
X2688539Y9425025D01*
X2675585Y9420606D01*
X2663342Y9414560D01*
X2651963Y9406940D01*
X2641650Y9397949D01*
X2632659Y9387636D01*
X2625039Y9376257D01*
X2618994Y9364014D01*
X2614574Y9351060D01*
X2611932Y9337598D01*
X2611018Y9323933D01*
X2611932Y9310319D01*
X2614574Y9296857D01*
X2618994Y9283903D01*
X2625039Y9271660D01*
X2632659Y9260281D01*
X2641650Y9249968D01*
X2651963Y9240926D01*
X2663342Y9233357D01*
X2675585Y9227312D01*
X2688539Y9222892D01*
X2702001Y9220200D01*
X2715666Y9219336D01*
X2729280Y9220200D01*
X2742742Y9222892D01*
X2755696Y9227312D01*
X2767939Y9233357D01*
X2779318Y9240926D01*
X2789631Y9249968D01*
X2798673Y9260281D01*
X2806242Y9271660D01*
X2812288Y9283903D01*
X2816707Y9296857D01*
X2819400Y9310319D01*
X2820263Y9323933D01*
X2819400Y9337598D01*
X2816707Y9351060D01*
X2813812Y9359544D01*
X2813304Y9363252D01*
X2814167Y9366859D01*
X2816250Y9369958D01*
X2853029Y9406737D01*
X2856331Y9408972D01*
X2860243Y9409734D01*
X2864104Y9408972D01*
X2867406Y9406737D01*
X2869590Y9403435D01*
X2870352Y9399574D01*
X2870352Y8864701D01*
X2869590Y8860840D01*
X2867406Y8857538D01*
X2864104Y8855354D01*
X2860243Y8854541D01*
X2830474Y8854541D01*
X2826562Y8855354D01*
X2823260Y8857538D01*
X2821076Y8860840D01*
X2820314Y8864701D01*
X2820314Y8894114D01*
X2819603Y8900464D01*
X2817672Y8905900D01*
X2814574Y8910828D01*
X2810510Y8914892D01*
X2805582Y8917990D01*
X2800146Y8919870D01*
X2793796Y8920581D01*
X2637485Y8920581D01*
X2631135Y8919870D01*
X2625699Y8917990D01*
X2620772Y8914892D01*
X2616708Y8910828D01*
X2613609Y8905900D01*
X2611729Y8900464D01*
X2611018Y8894114D01*
X2611018Y8737803D01*
X2611729Y8731453D01*
X2613609Y8726017D01*
X2616708Y8721090D01*
X2620772Y8717026D01*
X2625699Y8713927D01*
X2631135Y8711996D01*
X2637485Y8711285D01*
X2793796Y8711285D01*
X2800146Y8711996D01*
X2805582Y8713927D01*
X2810510Y8717026D01*
X2814574Y8721090D01*
X2817672Y8726017D01*
X2819603Y8731453D01*
X2820314Y8737803D01*
X2820314Y8767165D01*
X2821076Y8771077D01*
X2823260Y8774379D01*
X2826562Y8776563D01*
X2830474Y8777325D01*
X2888792Y8777325D01*
X2892653Y8776563D01*
X2895955Y8774379D01*
X3082137Y8588197D01*
X3088386Y8583066D01*
X3095040Y8579510D01*
X3102254Y8577326D01*
G37*
G36*
X905713Y8606028D02*
G01*
X918768Y8606028D01*
X931722Y8607806D01*
X944321Y8611311D01*
X956360Y8616543D01*
X967536Y8623350D01*
X977696Y8631580D01*
X986586Y8641181D01*
X994156Y8651849D01*
X1000150Y8663482D01*
X1004569Y8675776D01*
X1007211Y8688578D01*
X1008126Y8701633D01*
X1007211Y8714689D01*
X1004569Y8727541D01*
X1000150Y8739835D01*
X994156Y8751468D01*
X986586Y8762136D01*
X977696Y8771737D01*
X967536Y8779967D01*
X956360Y8786774D01*
X944321Y8792006D01*
X931722Y8795512D01*
X918768Y8797290D01*
X905713Y8797290D01*
X892759Y8795512D01*
X880160Y8792006D01*
X868121Y8786774D01*
X856945Y8779967D01*
X846836Y8771737D01*
X837895Y8762136D01*
X830326Y8751468D01*
X824331Y8739835D01*
X819912Y8727541D01*
X817270Y8714689D01*
X816406Y8701633D01*
X817270Y8688578D01*
X819912Y8675776D01*
X824331Y8663482D01*
X830326Y8651849D01*
X837895Y8641181D01*
X846836Y8631580D01*
X856945Y8623350D01*
X868121Y8616543D01*
X880160Y8611311D01*
X892759Y8607806D01*
G37*
G36*
X8004149Y8625027D02*
G01*
X8017764Y8625484D01*
X8031225Y8627770D01*
X8044230Y8631783D01*
X8056625Y8637524D01*
X8068106Y8644890D01*
X8078520Y8653678D01*
X8087664Y8663787D01*
X8095386Y8675014D01*
X8101533Y8687206D01*
X8106003Y8700109D01*
X8108696Y8713470D01*
X8109610Y8727033D01*
X8108696Y8740648D01*
X8106003Y8754008D01*
X8101533Y8766911D01*
X8095386Y8779103D01*
X8087664Y8790330D01*
X8078520Y8800439D01*
X8068106Y8809228D01*
X8056625Y8816594D01*
X8044230Y8822334D01*
X8031225Y8826347D01*
X8017764Y8828633D01*
X8004149Y8829090D01*
X7990586Y8827719D01*
X7977276Y8824569D01*
X7964576Y8819642D01*
X7952587Y8813088D01*
X7941614Y8805011D01*
X7931810Y8795512D01*
X7923377Y8784844D01*
X7916418Y8773109D01*
X7911084Y8760561D01*
X7907528Y8747404D01*
X7905699Y8733891D01*
X7905699Y8720226D01*
X7907528Y8706713D01*
X7911084Y8693556D01*
X7916418Y8681008D01*
X7923377Y8669274D01*
X7931810Y8658555D01*
X7941614Y8649106D01*
X7952587Y8641029D01*
X7964576Y8634476D01*
X7977276Y8629548D01*
X7990586Y8626398D01*
G37*
G36*
X3784346Y8771483D02*
G01*
X3831539Y8771483D01*
X3827729Y8779103D01*
X3820007Y8790330D01*
X3810863Y8800439D01*
X3800449Y8809228D01*
X3788968Y8816594D01*
X3784346Y8818727D01*
G37*
G36*
X7552029Y8771483D02*
G01*
X7599222Y8771483D01*
X7595412Y8779103D01*
X7587691Y8790330D01*
X7578547Y8800439D01*
X7568133Y8809228D01*
X7556601Y8816594D01*
X7552029Y8818727D01*
G37*
G36*
X6296101Y8771483D02*
G01*
X6343345Y8771483D01*
X6339484Y8779103D01*
X6331762Y8790330D01*
X6322618Y8800439D01*
X6312204Y8809228D01*
X6300724Y8816594D01*
X6296101Y8818727D01*
G37*
G36*
X5040223Y8771483D02*
G01*
X5087416Y8771483D01*
X5083606Y8779103D01*
X5075885Y8790330D01*
X5066741Y8800439D01*
X5056327Y8809228D01*
X5044846Y8816594D01*
X5040223Y8818727D01*
G37*
G36*
X4903978Y8771483D02*
G01*
X4951323Y8771483D01*
X4951323Y8818829D01*
X4940858Y8813088D01*
X4929886Y8805011D01*
X4920081Y8795512D01*
X4911598Y8784844D01*
X4904638Y8773109D01*
G37*
G36*
X3648100Y8771483D02*
G01*
X3695446Y8771483D01*
X3695446Y8818829D01*
X3684930Y8813088D01*
X3673957Y8805011D01*
X3664153Y8795512D01*
X3655720Y8784844D01*
X3648760Y8773109D01*
G37*
G36*
X7415784Y8771483D02*
G01*
X7463129Y8771483D01*
X7463129Y8818829D01*
X7452614Y8813088D01*
X7441641Y8805011D01*
X7431836Y8795512D01*
X7423403Y8784844D01*
X7416444Y8773109D01*
G37*
G36*
X6159855Y8771483D02*
G01*
X6207201Y8771483D01*
X6207201Y8818829D01*
X6196736Y8813088D01*
X6185763Y8805011D01*
X6175959Y8795512D01*
X6167526Y8784844D01*
X6160566Y8773109D01*
G37*
G36*
X905713Y8860028D02*
G01*
X918768Y8860028D01*
X931722Y8861806D01*
X944321Y8865311D01*
X956360Y8870543D01*
X967536Y8877350D01*
X977696Y8885580D01*
X986586Y8895181D01*
X994156Y8905849D01*
X1000150Y8917482D01*
X1004569Y8929776D01*
X1007211Y8942578D01*
X1008126Y8955633D01*
X1007211Y8968689D01*
X1004569Y8981541D01*
X1000150Y8993835D01*
X994156Y9005468D01*
X986586Y9016136D01*
X977696Y9025737D01*
X967536Y9033967D01*
X956360Y9040774D01*
X944321Y9046006D01*
X931722Y9049512D01*
X918768Y9051290D01*
X905713Y9051290D01*
X892759Y9049512D01*
X880160Y9046006D01*
X868121Y9040774D01*
X856945Y9033967D01*
X846836Y9025737D01*
X837895Y9016136D01*
X830326Y9005468D01*
X824331Y8993835D01*
X819912Y8981541D01*
X817270Y8968689D01*
X816406Y8955633D01*
X817270Y8942578D01*
X819912Y8929776D01*
X824331Y8917482D01*
X830326Y8905849D01*
X837895Y8895181D01*
X846836Y8885580D01*
X856945Y8877350D01*
X868121Y8870543D01*
X880160Y8865311D01*
X892759Y8861806D01*
G37*
G36*
X2761386Y8976106D02*
G01*
X2767939Y8979357D01*
X2779318Y8986926D01*
X2789631Y8995968D01*
X2798673Y9006281D01*
X2806242Y9017660D01*
X2809494Y9024213D01*
X2761386Y9024213D01*
G37*
G36*
X2669946Y8976106D02*
G01*
X2669946Y9024213D01*
X2621788Y9024213D01*
X2625039Y9017660D01*
X2632659Y9006281D01*
X2641650Y8995968D01*
X2651963Y8986926D01*
X2663342Y8979357D01*
G37*
G36*
X905713Y9114028D02*
G01*
X918768Y9114028D01*
X931722Y9115806D01*
X944321Y9119311D01*
X956360Y9124543D01*
X967536Y9131350D01*
X977696Y9139580D01*
X986586Y9149181D01*
X994156Y9159849D01*
X1000150Y9171482D01*
X1004569Y9183776D01*
X1007211Y9196578D01*
X1008126Y9209633D01*
X1007211Y9222689D01*
X1004569Y9235541D01*
X1000150Y9247835D01*
X994156Y9259468D01*
X986586Y9270136D01*
X977696Y9279737D01*
X967536Y9287967D01*
X956360Y9294774D01*
X944321Y9300006D01*
X931722Y9303512D01*
X918768Y9305290D01*
X905713Y9305290D01*
X892759Y9303512D01*
X880160Y9300006D01*
X868121Y9294774D01*
X856945Y9287967D01*
X846836Y9279737D01*
X837895Y9270136D01*
X830326Y9259468D01*
X824331Y9247835D01*
X819912Y9235541D01*
X817270Y9222689D01*
X816406Y9209633D01*
X817270Y9196578D01*
X819912Y9183776D01*
X824331Y9171482D01*
X830326Y9159849D01*
X837895Y9149181D01*
X846836Y9139580D01*
X856945Y9131350D01*
X868121Y9124543D01*
X880160Y9119311D01*
X892759Y9115806D01*
G37*
G36*
X2621788Y9115653D02*
G01*
X2669946Y9115653D01*
X2669946Y9163812D01*
X2663342Y9160560D01*
X2651963Y9152940D01*
X2641650Y9143949D01*
X2632659Y9133636D01*
X2625039Y9122257D01*
G37*
G36*
X2761386Y9115653D02*
G01*
X2809494Y9115653D01*
X2806242Y9122257D01*
X2798673Y9133636D01*
X2789631Y9143949D01*
X2779318Y9152940D01*
X2767939Y9160560D01*
X2761386Y9163812D01*
G37*
G36*
X8316366Y9247276D02*
G01*
X8331708Y9248190D01*
X8346846Y9250984D01*
X8361527Y9255556D01*
X8375599Y9261856D01*
X8388756Y9269831D01*
X8400897Y9279331D01*
X8411768Y9290202D01*
X8421268Y9302343D01*
X8429244Y9315500D01*
X8435543Y9329572D01*
X8440115Y9344253D01*
X8442909Y9359392D01*
X8443823Y9374733D01*
X8442909Y9390126D01*
X8440115Y9405264D01*
X8435543Y9419945D01*
X8429244Y9434017D01*
X8421268Y9447174D01*
X8411768Y9459315D01*
X8400897Y9470186D01*
X8388756Y9479686D01*
X8375599Y9487662D01*
X8361527Y9493961D01*
X8346846Y9498533D01*
X8331708Y9501327D01*
X8316366Y9502241D01*
X8300974Y9501327D01*
X8285835Y9498533D01*
X8271154Y9493961D01*
X8257082Y9487662D01*
X8243925Y9479686D01*
X8231784Y9470186D01*
X8220913Y9459315D01*
X8211413Y9447174D01*
X8203438Y9434017D01*
X8197138Y9419945D01*
X8192566Y9405264D01*
X8189772Y9390126D01*
X8188858Y9374733D01*
X8189772Y9359392D01*
X8192566Y9344253D01*
X8197138Y9329572D01*
X8203438Y9315500D01*
X8211413Y9302343D01*
X8220913Y9290202D01*
X8231784Y9279331D01*
X8243925Y9269831D01*
X8257082Y9261856D01*
X8271154Y9255556D01*
X8285835Y9250984D01*
X8300974Y9248190D01*
G37*
G36*
X6782206Y9343796D02*
G01*
X6785559Y9345371D01*
X6798106Y9353143D01*
X6809587Y9362389D01*
X6819849Y9372955D01*
X6828790Y9384741D01*
X6836206Y9397593D01*
X6782206Y9397593D01*
G37*
G36*
X6675526Y9343796D02*
G01*
X6675526Y9397593D01*
X6621525Y9397593D01*
X6628942Y9384741D01*
X6637832Y9372955D01*
X6648094Y9362389D01*
X6659575Y9353143D01*
X6672122Y9345371D01*
G37*
G36*
X905713Y9368028D02*
G01*
X918768Y9368028D01*
X931722Y9369806D01*
X944321Y9373311D01*
X956360Y9378543D01*
X967536Y9385350D01*
X977696Y9393580D01*
X986586Y9403181D01*
X994156Y9413849D01*
X1000150Y9425482D01*
X1004569Y9437776D01*
X1007211Y9450578D01*
X1008126Y9463633D01*
X1007211Y9476689D01*
X1004569Y9489541D01*
X1000150Y9501835D01*
X994156Y9513468D01*
X986586Y9524136D01*
X977696Y9533737D01*
X967536Y9541967D01*
X956360Y9548774D01*
X944321Y9554006D01*
X931722Y9557512D01*
X918768Y9559290D01*
X905713Y9559290D01*
X892759Y9557512D01*
X880160Y9554006D01*
X868121Y9548774D01*
X856945Y9541967D01*
X846836Y9533737D01*
X837895Y9524136D01*
X830326Y9513468D01*
X824331Y9501835D01*
X819912Y9489541D01*
X817270Y9476689D01*
X816406Y9463633D01*
X817270Y9450578D01*
X819912Y9437776D01*
X824331Y9425482D01*
X830326Y9413849D01*
X837895Y9403181D01*
X846836Y9393580D01*
X856945Y9385350D01*
X868121Y9378543D01*
X880160Y9373311D01*
X892759Y9369806D01*
G37*
G36*
X6782206Y9504273D02*
G01*
X6835952Y9504273D01*
X6832650Y9510877D01*
X6824522Y9523171D01*
X6814921Y9534398D01*
X6803999Y9544354D01*
X6791959Y9552889D01*
X6782206Y9558121D01*
G37*
G36*
X6621729Y9504273D02*
G01*
X6675526Y9504273D01*
X6675526Y9558121D01*
X6665722Y9552889D01*
X6653682Y9544354D01*
X6642811Y9534398D01*
X6633209Y9523171D01*
X6625031Y9510877D01*
G37*
G36*
X905713Y9622028D02*
G01*
X918768Y9622028D01*
X931722Y9623806D01*
X944321Y9627311D01*
X956360Y9632543D01*
X967536Y9639350D01*
X977696Y9647580D01*
X986586Y9657181D01*
X994156Y9667849D01*
X1000150Y9679482D01*
X1004569Y9691776D01*
X1007211Y9704578D01*
X1008126Y9717633D01*
X1007211Y9730689D01*
X1004569Y9743541D01*
X1000150Y9755835D01*
X994156Y9767468D01*
X986586Y9778136D01*
X977696Y9787737D01*
X967536Y9795967D01*
X956360Y9802774D01*
X944321Y9808006D01*
X931722Y9811512D01*
X918768Y9813290D01*
X905713Y9813290D01*
X892759Y9811512D01*
X880160Y9808006D01*
X868121Y9802774D01*
X856945Y9795967D01*
X846836Y9787737D01*
X837895Y9778136D01*
X830326Y9767468D01*
X824331Y9755835D01*
X819912Y9743541D01*
X817270Y9730689D01*
X816406Y9717633D01*
X817270Y9704578D01*
X819912Y9691776D01*
X824331Y9679482D01*
X830326Y9667849D01*
X837895Y9657181D01*
X846836Y9647580D01*
X856945Y9639350D01*
X868121Y9632543D01*
X880160Y9627311D01*
X892759Y9623806D01*
G37*
G36*
X6770776Y9799218D02*
G01*
X6777380Y9802469D01*
X6788658Y9810038D01*
X6798919Y9818979D01*
X6807860Y9829241D01*
X6815429Y9840518D01*
X6818680Y9847122D01*
X6770776Y9847122D01*
G37*
G36*
X6680098Y9799218D02*
G01*
X6680098Y9847122D01*
X6632244Y9847122D01*
X6635496Y9840518D01*
X6643014Y9829241D01*
X6652006Y9818979D01*
X6662216Y9810038D01*
X6673494Y9802469D01*
G37*
G36*
X870915Y9885324D02*
G01*
X870915Y9930333D01*
X825957Y9930333D01*
X830326Y9921849D01*
X837895Y9911181D01*
X846836Y9901580D01*
X856945Y9893350D01*
X868121Y9886543D01*
G37*
G36*
X953566Y9885324D02*
G01*
X956360Y9886543D01*
X967536Y9893350D01*
X977696Y9901580D01*
X986586Y9911181D01*
X994156Y9921849D01*
X998524Y9930333D01*
X953566Y9930333D01*
G37*
G36*
X6770776Y9937800D02*
G01*
X6818680Y9937800D01*
X6815429Y9944404D01*
X6807860Y9955682D01*
X6798919Y9965893D01*
X6788658Y9974884D01*
X6777380Y9982403D01*
X6770776Y9985654D01*
G37*
G36*
X6632244Y9937800D02*
G01*
X6680098Y9937800D01*
X6680098Y9985654D01*
X6673494Y9982403D01*
X6662216Y9974884D01*
X6652006Y9965893D01*
X6643014Y9955682D01*
X6635496Y9944404D01*
G37*
G36*
X953566Y10012984D02*
G01*
X998524Y10012984D01*
X994156Y10021468D01*
X986586Y10032136D01*
X977696Y10041737D01*
X967536Y10049967D01*
X956360Y10056774D01*
X953566Y10057993D01*
G37*
G36*
X825957Y10012984D02*
G01*
X870915Y10012984D01*
X870915Y10057993D01*
X868121Y10056774D01*
X856945Y10049967D01*
X846836Y10041737D01*
X837895Y10032136D01*
X830326Y10021468D01*
G37*
G36*
X905713Y10130028D02*
G01*
X918768Y10130028D01*
X931722Y10131806D01*
X944321Y10135311D01*
X956360Y10140543D01*
X967536Y10147350D01*
X977696Y10155580D01*
X986586Y10165181D01*
X994156Y10175849D01*
X1000150Y10187482D01*
X1004569Y10199776D01*
X1007211Y10212578D01*
X1008126Y10225633D01*
X1007211Y10238689D01*
X1004569Y10251541D01*
X1003604Y10254234D01*
X1002995Y10257942D01*
X1003858Y10261650D01*
X1005992Y10264800D01*
X1155090Y10413898D01*
X1160221Y10420146D01*
X1163777Y10426801D01*
X1165961Y10434015D01*
X1166774Y10442041D01*
X1166774Y11348262D01*
X1167434Y11351971D01*
X1169466Y11355171D01*
X1172514Y11357406D01*
X1181963Y11361978D01*
X1193749Y11369649D01*
X1204468Y11378742D01*
X1213916Y11389156D01*
X1221943Y11400688D01*
X1228445Y11413134D01*
X1233322Y11426342D01*
X1236421Y11440058D01*
X1237792Y11454028D01*
X1237335Y11468100D01*
X1235100Y11481968D01*
X1231087Y11495430D01*
X1225397Y11508282D01*
X1218133Y11520322D01*
X1209344Y11531295D01*
X1199235Y11541099D01*
X1188008Y11549481D01*
X1175766Y11556390D01*
X1162710Y11561673D01*
X1149096Y11565229D01*
X1135176Y11567058D01*
X1121105Y11567058D01*
X1107186Y11565229D01*
X1093571Y11561673D01*
X1089152Y11559895D01*
X1085291Y11559133D01*
X1081430Y11559946D01*
X1078179Y11562130D01*
X1037488Y11602821D01*
X1035303Y11606123D01*
X1034542Y11609984D01*
X1034542Y12387529D01*
X1035253Y12391288D01*
X1037285Y12394488D01*
X1040434Y12396724D01*
X1044143Y12397638D01*
X1047953Y12397130D01*
X1051255Y12395250D01*
X1062532Y12385649D01*
X1074318Y12377978D01*
X1086967Y12371882D01*
X1100328Y12367412D01*
X1114094Y12364770D01*
X1128166Y12363856D01*
X1142187Y12364770D01*
X1155954Y12367412D01*
X1169314Y12371882D01*
X1181963Y12377978D01*
X1193749Y12385649D01*
X1204468Y12394742D01*
X1213916Y12405156D01*
X1221943Y12416688D01*
X1228445Y12429134D01*
X1233322Y12442342D01*
X1236421Y12456058D01*
X1237792Y12470028D01*
X1237335Y12484100D01*
X1235100Y12497968D01*
X1231087Y12511430D01*
X1225397Y12524282D01*
X1218133Y12536322D01*
X1209344Y12547295D01*
X1199235Y12557099D01*
X1188008Y12565481D01*
X1175766Y12572390D01*
X1162710Y12577673D01*
X1149096Y12581229D01*
X1135176Y12583058D01*
X1121105Y12583058D01*
X1107186Y12581229D01*
X1093571Y12577673D01*
X1080566Y12572390D01*
X1068273Y12565481D01*
X1057046Y12557099D01*
X1051763Y12551968D01*
X1048461Y12549835D01*
X1044549Y12549124D01*
X1040688Y12549936D01*
X1037437Y12552121D01*
X1035303Y12555423D01*
X1034542Y12559284D01*
X1034542Y13113308D01*
X1033729Y13121335D01*
X1031544Y13128548D01*
X1027988Y13135203D01*
X1022858Y13141451D01*
X949350Y13214959D01*
X947267Y13218007D01*
X946403Y13221665D01*
X946912Y13225373D01*
X949807Y13233857D01*
X952500Y13247319D01*
X953363Y13260933D01*
X952500Y13274598D01*
X949807Y13288060D01*
X945387Y13301014D01*
X939342Y13313257D01*
X931773Y13324636D01*
X922731Y13334949D01*
X912418Y13343940D01*
X901039Y13351560D01*
X888796Y13357606D01*
X875842Y13362025D01*
X862380Y13364667D01*
X848766Y13365581D01*
X835101Y13364667D01*
X821639Y13362025D01*
X808685Y13357606D01*
X796442Y13351560D01*
X785063Y13343940D01*
X774750Y13334949D01*
X765759Y13324636D01*
X758139Y13313257D01*
X752094Y13301014D01*
X747674Y13288060D01*
X745032Y13274598D01*
X744118Y13260933D01*
X745032Y13247319D01*
X747674Y13233857D01*
X752094Y13220903D01*
X758139Y13208660D01*
X765759Y13197281D01*
X774750Y13186968D01*
X785063Y13177926D01*
X796442Y13170357D01*
X808685Y13164312D01*
X821639Y13159892D01*
X835101Y13157200D01*
X848766Y13156336D01*
X862380Y13157200D01*
X875842Y13159892D01*
X884326Y13162788D01*
X888034Y13163296D01*
X891692Y13162432D01*
X894740Y13160349D01*
X954328Y13100761D01*
X956513Y13097459D01*
X957326Y13093598D01*
X957326Y13065912D01*
X956411Y13061696D01*
X953820Y13058241D01*
X950112Y13056158D01*
X945794Y13055803D01*
X941781Y13057276D01*
X938682Y13060273D01*
X931773Y13070636D01*
X922731Y13080949D01*
X912418Y13089940D01*
X901039Y13097560D01*
X888796Y13103606D01*
X875842Y13108025D01*
X862380Y13110667D01*
X848766Y13111581D01*
X835101Y13110667D01*
X821639Y13108025D01*
X808685Y13103606D01*
X796442Y13097560D01*
X785063Y13089940D01*
X774750Y13080949D01*
X765759Y13070636D01*
X758139Y13059257D01*
X752094Y13047014D01*
X747674Y13034060D01*
X745032Y13020598D01*
X744118Y13006933D01*
X745032Y12993319D01*
X747674Y12979857D01*
X750570Y12971373D01*
X751078Y12967665D01*
X750265Y12964058D01*
X748131Y12960959D01*
X734618Y12947396D01*
X729488Y12941198D01*
X725932Y12934492D01*
X723747Y12927279D01*
X722934Y12919252D01*
X722934Y11570665D01*
X723747Y11562638D01*
X725932Y11555425D01*
X729488Y11548719D01*
X734618Y11542522D01*
X769467Y11507622D01*
X771702Y11504269D01*
X772464Y11500256D01*
X767181Y11481968D01*
X764946Y11468100D01*
X764489Y11454028D01*
X765860Y11440058D01*
X768959Y11426342D01*
X773836Y11413134D01*
X780338Y11400688D01*
X788365Y11389156D01*
X797814Y11378742D01*
X808532Y11369649D01*
X820318Y11361978D01*
X832967Y11355882D01*
X846328Y11351412D01*
X860094Y11348770D01*
X874166Y11347856D01*
X888187Y11348770D01*
X901953Y11351412D01*
X913790Y11355374D01*
X917498Y11355882D01*
X921105Y11355019D01*
X924204Y11352885D01*
X968705Y11308384D01*
X970940Y11305082D01*
X971702Y11301171D01*
X971702Y11093704D01*
X970940Y11089792D01*
X968705Y11086541D01*
X965453Y11084306D01*
X961542Y11083544D01*
X842822Y11083544D01*
X836523Y11082832D01*
X831037Y11080902D01*
X826160Y11077854D01*
X822045Y11073739D01*
X818997Y11068862D01*
X817067Y11063376D01*
X816356Y11057077D01*
X816356Y10918240D01*
X817067Y10911941D01*
X818997Y10906455D01*
X822045Y10901578D01*
X826160Y10897463D01*
X831037Y10894415D01*
X836523Y10892485D01*
X842822Y10891774D01*
X961542Y10891774D01*
X965453Y10891012D01*
X968705Y10888776D01*
X970940Y10885474D01*
X971702Y10881614D01*
X971702Y10827512D01*
X970889Y10823549D01*
X968654Y10820247D01*
X965301Y10818063D01*
X961339Y10817352D01*
X957427Y10818215D01*
X953566Y10819892D01*
X953566Y10774984D01*
X961542Y10774984D01*
X965453Y10774222D01*
X968705Y10772038D01*
X970940Y10768736D01*
X971702Y10764824D01*
X971702Y10702493D01*
X970940Y10698581D01*
X968705Y10695279D01*
X965453Y10693095D01*
X961542Y10692333D01*
X953566Y10692333D01*
X953566Y10647426D01*
X957427Y10649102D01*
X961339Y10649966D01*
X965301Y10649254D01*
X968654Y10647070D01*
X970889Y10643717D01*
X971702Y10639806D01*
X971702Y10597946D01*
X970940Y10594035D01*
X968705Y10590733D01*
X951382Y10573410D01*
X948436Y10571327D01*
X944981Y10570464D01*
X941425Y10570768D01*
X931722Y10573512D01*
X918768Y10575290D01*
X905713Y10575290D01*
X892759Y10573512D01*
X880160Y10570006D01*
X868121Y10564774D01*
X856945Y10557967D01*
X846836Y10549737D01*
X837895Y10540136D01*
X830326Y10529468D01*
X824331Y10517835D01*
X819912Y10505541D01*
X817270Y10492689D01*
X816406Y10479633D01*
X817270Y10466578D01*
X819912Y10453776D01*
X824331Y10441482D01*
X830326Y10429849D01*
X837895Y10419181D01*
X846836Y10409580D01*
X856945Y10401350D01*
X868121Y10394543D01*
X880160Y10389311D01*
X892759Y10385806D01*
X905713Y10384028D01*
X918768Y10384028D01*
X931722Y10385806D01*
X944321Y10389311D01*
X956360Y10394543D01*
X967536Y10401350D01*
X977696Y10409580D01*
X986586Y10419181D01*
X994156Y10429849D01*
X1000150Y10441482D01*
X1004569Y10453776D01*
X1007211Y10466578D01*
X1008126Y10479633D01*
X1007211Y10492689D01*
X1004569Y10505541D01*
X1003604Y10508234D01*
X1002995Y10511942D01*
X1003858Y10515650D01*
X1005992Y10518800D01*
X1037234Y10550093D01*
X1042365Y10556290D01*
X1045921Y10562996D01*
X1048105Y10570210D01*
X1048918Y10578236D01*
X1048918Y11320881D01*
X1048105Y11328908D01*
X1045921Y11336121D01*
X1042365Y11342827D01*
X1037234Y11349024D01*
X978712Y11407597D01*
X976579Y11410746D01*
X975715Y11414506D01*
X976376Y11418265D01*
X979322Y11426342D01*
X982421Y11440058D01*
X983792Y11454028D01*
X983335Y11468100D01*
X981100Y11481968D01*
X977087Y11495430D01*
X971397Y11508282D01*
X964133Y11520322D01*
X955344Y11531295D01*
X945235Y11541099D01*
X934008Y11549481D01*
X921766Y11556390D01*
X908710Y11561673D01*
X895096Y11565229D01*
X881176Y11567058D01*
X867105Y11567058D01*
X853186Y11565229D01*
X839571Y11561673D01*
X835152Y11559895D01*
X831291Y11559133D01*
X827430Y11559946D01*
X824179Y11562130D01*
X803148Y11583162D01*
X800912Y11586464D01*
X800150Y11590375D01*
X800150Y12372340D01*
X801065Y12376607D01*
X803656Y12380061D01*
X807466Y12382093D01*
X811784Y12382398D01*
X815848Y12380874D01*
X820318Y12377978D01*
X832967Y12371882D01*
X846328Y12367412D01*
X860094Y12364770D01*
X874166Y12363856D01*
X888187Y12364770D01*
X901953Y12367412D01*
X915314Y12371882D01*
X927963Y12377978D01*
X943864Y12388189D01*
X947674Y12388697D01*
X951382Y12387783D01*
X954532Y12385548D01*
X956564Y12382347D01*
X957326Y12378588D01*
X957326Y11590274D01*
X958087Y11582247D01*
X960272Y11575034D01*
X963828Y11568379D01*
X968959Y11562130D01*
X1023467Y11507622D01*
X1025702Y11504269D01*
X1026464Y11500256D01*
X1021181Y11481968D01*
X1018946Y11468100D01*
X1018489Y11454028D01*
X1019860Y11440058D01*
X1022959Y11426342D01*
X1027836Y11413134D01*
X1034338Y11400688D01*
X1042365Y11389156D01*
X1051814Y11378742D01*
X1062532Y11369649D01*
X1074318Y11361978D01*
X1083767Y11357406D01*
X1086815Y11355171D01*
X1088847Y11351971D01*
X1089558Y11348262D01*
X1089558Y10461752D01*
X1088745Y10457891D01*
X1086561Y10454589D01*
X951382Y10319410D01*
X948436Y10317327D01*
X944981Y10316464D01*
X941425Y10316768D01*
X931722Y10319512D01*
X918768Y10321290D01*
X905713Y10321290D01*
X892759Y10319512D01*
X880160Y10316006D01*
X868121Y10310774D01*
X856945Y10303967D01*
X846836Y10295737D01*
X837895Y10286136D01*
X830326Y10275468D01*
X824331Y10263835D01*
X819912Y10251541D01*
X817270Y10238689D01*
X816406Y10225633D01*
X817270Y10212578D01*
X819912Y10199776D01*
X824331Y10187482D01*
X830326Y10175849D01*
X837895Y10165181D01*
X846836Y10155580D01*
X856945Y10147350D01*
X868121Y10140543D01*
X880160Y10135311D01*
X892759Y10131806D01*
G37*
G36*
X870915Y10647324D02*
G01*
X870915Y10692333D01*
X825957Y10692333D01*
X830326Y10683849D01*
X837895Y10673181D01*
X846836Y10663580D01*
X856945Y10655350D01*
X868121Y10648543D01*
G37*
G36*
X825957Y10774984D02*
G01*
X870915Y10774984D01*
X870915Y10819993D01*
X868121Y10818774D01*
X856945Y10811967D01*
X846836Y10803737D01*
X837895Y10794136D01*
X830326Y10783468D01*
G37*
G36*
X2450896Y11332768D02*
G01*
X2450896Y11383314D01*
X2400249Y11383314D01*
X2406802Y11371681D01*
X2415286Y11360251D01*
X2425192Y11350091D01*
X2436317Y11341201D01*
X2448458Y11333835D01*
G37*
G36*
X2548585Y11332819D02*
G01*
X2557221Y11337340D01*
X2568854Y11345468D01*
X2579370Y11355019D01*
X2588615Y11365839D01*
X2596337Y11377726D01*
X2599029Y11383314D01*
X2548585Y11383314D01*
G37*
G36*
X1552905Y11347805D02*
G01*
X1719376Y11347805D01*
X1725726Y11348516D01*
X1731162Y11350447D01*
X1736089Y11353546D01*
X1740154Y11357610D01*
X1743252Y11362537D01*
X1745183Y11367973D01*
X1745894Y11374323D01*
X1745894Y11540794D01*
X1745183Y11547144D01*
X1743252Y11552580D01*
X1740154Y11557508D01*
X1736089Y11561572D01*
X1731162Y11564670D01*
X1725726Y11566550D01*
X1719376Y11567261D01*
X1713280Y11567261D01*
X1709369Y11568074D01*
X1706067Y11570258D01*
X1703882Y11573560D01*
X1703120Y11577421D01*
X1703882Y11581333D01*
X1706067Y11584635D01*
X1775714Y11654282D01*
X1780844Y11660479D01*
X1784400Y11667185D01*
X1786585Y11674398D01*
X1787398Y11682425D01*
X1787398Y12397587D01*
X1788160Y12401550D01*
X1790446Y12404852D01*
X1793849Y12407036D01*
X1797862Y12407747D01*
X1801774Y12406782D01*
X1805076Y12404394D01*
X1813814Y12394742D01*
X1824532Y12385649D01*
X1836318Y12377978D01*
X1848967Y12371882D01*
X1862328Y12367412D01*
X1876094Y12364770D01*
X1890166Y12363856D01*
X1904187Y12364770D01*
X1917954Y12367412D01*
X1931314Y12371882D01*
X1943963Y12377978D01*
X1955749Y12385649D01*
X1966468Y12394742D01*
X1975916Y12405156D01*
X1983943Y12416688D01*
X1990445Y12429134D01*
X1995322Y12442342D01*
X1998421Y12456058D01*
X1999792Y12470028D01*
X1999335Y12484100D01*
X1997100Y12497968D01*
X1993087Y12511430D01*
X1987397Y12524282D01*
X1980133Y12536322D01*
X1971344Y12547295D01*
X1961235Y12557099D01*
X1950008Y12565481D01*
X1937766Y12572390D01*
X1924710Y12577673D01*
X1911096Y12581229D01*
X1897176Y12583058D01*
X1883105Y12583058D01*
X1869186Y12581229D01*
X1855571Y12577673D01*
X1842566Y12572390D01*
X1830273Y12565481D01*
X1819046Y12557099D01*
X1808937Y12547295D01*
X1805482Y12542977D01*
X1802282Y12540335D01*
X1798269Y12539167D01*
X1794154Y12539726D01*
X1790598Y12541859D01*
X1788210Y12545263D01*
X1787398Y12549327D01*
X1787398Y13356082D01*
X1786585Y13364108D01*
X1784400Y13371322D01*
X1780844Y13378027D01*
X1775714Y13384225D01*
X1618030Y13541908D01*
X1611833Y13547039D01*
X1605127Y13550595D01*
X1593951Y13553846D01*
X1591005Y13556081D01*
X1589074Y13559282D01*
X1588363Y13562939D01*
X1588363Y13593114D01*
X1587652Y13599464D01*
X1585772Y13604900D01*
X1582674Y13609828D01*
X1578610Y13613892D01*
X1573682Y13616990D01*
X1568246Y13618921D01*
X1561896Y13619632D01*
X1405534Y13619632D01*
X1399235Y13618921D01*
X1393748Y13616990D01*
X1388872Y13613892D01*
X1384757Y13609828D01*
X1381709Y13604900D01*
X1379778Y13599464D01*
X1379067Y13593114D01*
X1379067Y13436803D01*
X1379778Y13430453D01*
X1381709Y13425017D01*
X1384757Y13420090D01*
X1388872Y13416026D01*
X1393748Y13412927D01*
X1399235Y13410996D01*
X1405534Y13410285D01*
X1561896Y13410285D01*
X1568246Y13410996D01*
X1573682Y13412927D01*
X1578610Y13416026D01*
X1582674Y13420090D01*
X1585772Y13425017D01*
X1587652Y13430453D01*
X1588363Y13437869D01*
X1589176Y13441730D01*
X1591360Y13445032D01*
X1594662Y13447217D01*
X1598523Y13448030D01*
X1602435Y13447217D01*
X1605737Y13445032D01*
X1707184Y13343585D01*
X1709369Y13340283D01*
X1710182Y13336371D01*
X1710182Y12574930D01*
X1709267Y12570815D01*
X1706829Y12567361D01*
X1703222Y12565278D01*
X1699006Y12564770D01*
X1694992Y12566040D01*
X1683766Y12572390D01*
X1670710Y12577673D01*
X1657096Y12581229D01*
X1643176Y12583058D01*
X1629105Y12583058D01*
X1615186Y12581229D01*
X1601571Y12577673D01*
X1588566Y12572390D01*
X1576273Y12565481D01*
X1565046Y12557099D01*
X1554937Y12547295D01*
X1546148Y12536322D01*
X1538884Y12524282D01*
X1533194Y12511430D01*
X1529181Y12497968D01*
X1526946Y12484100D01*
X1526489Y12470028D01*
X1527860Y12456058D01*
X1530959Y12442342D01*
X1535836Y12429134D01*
X1542338Y12416688D01*
X1550365Y12405156D01*
X1559814Y12394742D01*
X1570532Y12385649D01*
X1582318Y12377978D01*
X1594967Y12371882D01*
X1608328Y12367412D01*
X1622094Y12364770D01*
X1636166Y12363856D01*
X1650187Y12364770D01*
X1663954Y12367412D01*
X1677314Y12371882D01*
X1689963Y12377978D01*
X1694434Y12380874D01*
X1698498Y12382398D01*
X1702816Y12382144D01*
X1706625Y12380061D01*
X1709216Y12376607D01*
X1710182Y12372340D01*
X1710182Y11702135D01*
X1709369Y11698224D01*
X1707184Y11694922D01*
X1609191Y11596928D01*
X1604060Y11590731D01*
X1600504Y11584025D01*
X1597253Y11572900D01*
X1595018Y11569903D01*
X1591818Y11567972D01*
X1588160Y11567261D01*
X1552905Y11567261D01*
X1546555Y11566550D01*
X1541119Y11564670D01*
X1536192Y11561572D01*
X1532128Y11557508D01*
X1529029Y11552580D01*
X1527149Y11547144D01*
X1526438Y11540794D01*
X1526438Y11374323D01*
X1527149Y11367973D01*
X1529029Y11362537D01*
X1532128Y11357610D01*
X1536192Y11353546D01*
X1541119Y11350447D01*
X1546555Y11348516D01*
G37*
G36*
X1333906Y11359286D02*
G01*
X1333906Y11409273D01*
X1283817Y11409273D01*
X1288338Y11400688D01*
X1296365Y11389156D01*
X1305814Y11378742D01*
X1316532Y11369649D01*
X1328318Y11361978D01*
G37*
G36*
X1430426Y11359286D02*
G01*
X1435963Y11361978D01*
X1447749Y11369649D01*
X1458468Y11378742D01*
X1467916Y11389156D01*
X1475943Y11400688D01*
X1480464Y11409273D01*
X1430426Y11409273D01*
G37*
G36*
X2548585Y11481003D02*
G01*
X2599029Y11481003D01*
X2596337Y11486591D01*
X2588615Y11498478D01*
X2579370Y11509298D01*
X2568854Y11518849D01*
X2557221Y11526977D01*
X2548585Y11531498D01*
G37*
G36*
X2400249Y11481003D02*
G01*
X2450896Y11481003D01*
X2450896Y11531549D01*
X2448458Y11530482D01*
X2436317Y11523116D01*
X2425192Y11514226D01*
X2415286Y11504015D01*
X2406802Y11492636D01*
G37*
G36*
X1430426Y11505793D02*
G01*
X1480515Y11505793D01*
X1479397Y11508282D01*
X1472133Y11520322D01*
X1463344Y11531295D01*
X1453235Y11541099D01*
X1442008Y11549481D01*
X1430426Y11556034D01*
G37*
G36*
X1283766Y11505793D02*
G01*
X1333906Y11505793D01*
X1333906Y11556034D01*
X1322273Y11549481D01*
X1311046Y11541099D01*
X1300937Y11531295D01*
X1292148Y11520322D01*
X1284884Y11508282D01*
G37*
G36*
X2450896Y11637568D02*
G01*
X2450896Y11688114D01*
X2400249Y11688114D01*
X2406802Y11676481D01*
X2415286Y11665051D01*
X2425192Y11654891D01*
X2436317Y11646001D01*
X2448458Y11638635D01*
G37*
G36*
X2548585Y11637619D02*
G01*
X2557221Y11642140D01*
X2568854Y11650268D01*
X2579370Y11659819D01*
X2588615Y11670639D01*
X2596337Y11682526D01*
X2599029Y11688114D01*
X2548585Y11688114D01*
G37*
G36*
X2548585Y11785803D02*
G01*
X2599029Y11785803D01*
X2596337Y11791391D01*
X2588615Y11803278D01*
X2579370Y11814098D01*
X2568854Y11823649D01*
X2557221Y11831777D01*
X2548585Y11836298D01*
G37*
G36*
X2400249Y11785803D02*
G01*
X2450896Y11785803D01*
X2450896Y11836349D01*
X2448458Y11835282D01*
X2436317Y11827916D01*
X2425192Y11819026D01*
X2415286Y11808815D01*
X2406802Y11797436D01*
G37*
G36*
X2450896Y11942368D02*
G01*
X2450896Y11992914D01*
X2400249Y11992914D01*
X2406802Y11981281D01*
X2415286Y11969851D01*
X2425192Y11959691D01*
X2436317Y11950801D01*
X2448458Y11943435D01*
G37*
G36*
X2548585Y11942419D02*
G01*
X2557221Y11946940D01*
X2568854Y11955068D01*
X2579370Y11964619D01*
X2588615Y11975439D01*
X2596337Y11987326D01*
X2599029Y11992914D01*
X2548585Y11992914D01*
G37*
G36*
X2548585Y12090603D02*
G01*
X2599029Y12090603D01*
X2596337Y12096191D01*
X2588615Y12108078D01*
X2579370Y12118898D01*
X2568854Y12128449D01*
X2557221Y12136577D01*
X2548585Y12141098D01*
G37*
G36*
X2400249Y12090603D02*
G01*
X2450896Y12090603D01*
X2450896Y12141149D01*
X2448458Y12140082D01*
X2436317Y12132716D01*
X2425192Y12123826D01*
X2415286Y12113615D01*
X2406802Y12102236D01*
G37*
G36*
X3677462Y12331547D02*
G01*
X3690975Y12332462D01*
X3704336Y12335103D01*
X3717188Y12339472D01*
X3729380Y12345466D01*
X3740658Y12353036D01*
X3750919Y12361976D01*
X3759860Y12372238D01*
X3767429Y12383516D01*
X3773424Y12395708D01*
X3777792Y12408560D01*
X3780434Y12421920D01*
X3781348Y12435433D01*
X3780434Y12448997D01*
X3777792Y12462357D01*
X3773424Y12475210D01*
X3767429Y12487402D01*
X3759860Y12498679D01*
X3750919Y12508890D01*
X3740658Y12517882D01*
X3729380Y12525400D01*
X3721709Y12529210D01*
X3718712Y12531445D01*
X3716731Y12534646D01*
X3716070Y12538303D01*
X3716070Y12766852D01*
X3716934Y12770967D01*
X3719423Y12774422D01*
X3723132Y12776504D01*
X3736848Y12780873D01*
X3750259Y12787071D01*
X3762806Y12794843D01*
X3774287Y12804089D01*
X3784549Y12814655D01*
X3793490Y12826441D01*
X3800856Y12839242D01*
X3806596Y12852806D01*
X3810762Y12867487D01*
X3812844Y12871297D01*
X3816299Y12873939D01*
X3820566Y12874853D01*
X3824782Y12873939D01*
X3828237Y12871297D01*
X3830320Y12867487D01*
X3834485Y12852806D01*
X3840226Y12839242D01*
X3847642Y12826441D01*
X3856532Y12814655D01*
X3866794Y12804089D01*
X3878275Y12794843D01*
X3888028Y12788798D01*
X3890568Y12786512D01*
X3892245Y12783515D01*
X3892854Y12780162D01*
X3892854Y12538303D01*
X3892143Y12534646D01*
X3890162Y12531445D01*
X3887165Y12529210D01*
X3879494Y12525400D01*
X3868216Y12517882D01*
X3858006Y12508890D01*
X3849014Y12498679D01*
X3841496Y12487402D01*
X3835450Y12475210D01*
X3831082Y12462357D01*
X3828440Y12448997D01*
X3827576Y12435433D01*
X3828440Y12421920D01*
X3831082Y12408560D01*
X3835450Y12395708D01*
X3841496Y12383516D01*
X3849014Y12372238D01*
X3858006Y12361976D01*
X3868216Y12353036D01*
X3879494Y12345466D01*
X3891686Y12339472D01*
X3904538Y12335103D01*
X3917899Y12332462D01*
X3931462Y12331547D01*
X3944975Y12332462D01*
X3958336Y12335103D01*
X3971188Y12339472D01*
X3983380Y12345466D01*
X3994658Y12353036D01*
X4004919Y12361976D01*
X4013860Y12372238D01*
X4021429Y12383516D01*
X4027424Y12395708D01*
X4031792Y12408560D01*
X4034434Y12421920D01*
X4035348Y12435433D01*
X4034434Y12448997D01*
X4031792Y12462357D01*
X4027424Y12475210D01*
X4021429Y12487402D01*
X4013860Y12498679D01*
X4004919Y12508890D01*
X3994658Y12517882D01*
X3983380Y12525400D01*
X3975709Y12529210D01*
X3972712Y12531445D01*
X3970731Y12534646D01*
X3970070Y12538303D01*
X3970070Y12766852D01*
X3970934Y12770967D01*
X3973423Y12774422D01*
X3977132Y12776504D01*
X3990848Y12780873D01*
X4004259Y12787071D01*
X4016806Y12794843D01*
X4028287Y12804089D01*
X4038549Y12814655D01*
X4047490Y12826441D01*
X4054856Y12839242D01*
X4060596Y12852806D01*
X4064762Y12867487D01*
X4066844Y12871297D01*
X4070299Y12873939D01*
X4074566Y12874853D01*
X4078782Y12873939D01*
X4082237Y12871297D01*
X4084320Y12867487D01*
X4088485Y12852806D01*
X4094226Y12839242D01*
X4101642Y12826441D01*
X4110532Y12814655D01*
X4120794Y12804089D01*
X4132275Y12794843D01*
X4142028Y12788798D01*
X4144568Y12786512D01*
X4146245Y12783515D01*
X4146854Y12780162D01*
X4146854Y12538303D01*
X4146143Y12534646D01*
X4144162Y12531445D01*
X4141165Y12529210D01*
X4133494Y12525400D01*
X4122216Y12517882D01*
X4112006Y12508890D01*
X4103014Y12498679D01*
X4095496Y12487402D01*
X4089450Y12475210D01*
X4085082Y12462357D01*
X4082440Y12448997D01*
X4081576Y12435433D01*
X4082440Y12421920D01*
X4085082Y12408560D01*
X4089450Y12395708D01*
X4095496Y12383516D01*
X4103014Y12372238D01*
X4112006Y12361976D01*
X4122216Y12353036D01*
X4133494Y12345466D01*
X4145686Y12339472D01*
X4158538Y12335103D01*
X4171899Y12332462D01*
X4185462Y12331547D01*
X4198975Y12332462D01*
X4212336Y12335103D01*
X4225188Y12339472D01*
X4237380Y12345466D01*
X4248658Y12353036D01*
X4258919Y12361976D01*
X4267860Y12372238D01*
X4275429Y12383516D01*
X4281424Y12395708D01*
X4285792Y12408560D01*
X4288434Y12421920D01*
X4289348Y12435433D01*
X4288434Y12448997D01*
X4285792Y12462357D01*
X4281424Y12475210D01*
X4275429Y12487402D01*
X4267860Y12498679D01*
X4258919Y12508890D01*
X4248658Y12517882D01*
X4237380Y12525400D01*
X4229709Y12529210D01*
X4226712Y12531445D01*
X4224731Y12534646D01*
X4224070Y12538303D01*
X4224070Y12766852D01*
X4224934Y12770967D01*
X4227423Y12774422D01*
X4231132Y12776504D01*
X4244848Y12780873D01*
X4258259Y12787071D01*
X4270806Y12794843D01*
X4282287Y12804089D01*
X4292549Y12814655D01*
X4301490Y12826441D01*
X4308856Y12839242D01*
X4314596Y12852806D01*
X4318762Y12867487D01*
X4320844Y12871297D01*
X4324299Y12873939D01*
X4328566Y12874853D01*
X4332782Y12873939D01*
X4336237Y12871297D01*
X4338320Y12867487D01*
X4342485Y12852806D01*
X4348226Y12839242D01*
X4355642Y12826441D01*
X4364532Y12814655D01*
X4374794Y12804089D01*
X4386275Y12794843D01*
X4396028Y12788798D01*
X4398568Y12786512D01*
X4400245Y12783515D01*
X4400854Y12780162D01*
X4400854Y12538303D01*
X4400143Y12534646D01*
X4398162Y12531445D01*
X4395165Y12529210D01*
X4387494Y12525400D01*
X4376216Y12517882D01*
X4366006Y12508890D01*
X4357014Y12498679D01*
X4349496Y12487402D01*
X4343450Y12475210D01*
X4339082Y12462357D01*
X4336440Y12448997D01*
X4335576Y12435433D01*
X4336440Y12421920D01*
X4339082Y12408560D01*
X4343450Y12395708D01*
X4349496Y12383516D01*
X4357014Y12372238D01*
X4366006Y12361976D01*
X4376216Y12353036D01*
X4387494Y12345466D01*
X4399686Y12339472D01*
X4412538Y12335103D01*
X4425899Y12332462D01*
X4439462Y12331547D01*
X4452975Y12332462D01*
X4466336Y12335103D01*
X4479188Y12339472D01*
X4491380Y12345466D01*
X4502658Y12353036D01*
X4512919Y12361976D01*
X4521860Y12372238D01*
X4529429Y12383516D01*
X4535424Y12395708D01*
X4539792Y12408560D01*
X4542434Y12421920D01*
X4543348Y12435433D01*
X4542434Y12448997D01*
X4539792Y12462357D01*
X4535424Y12475210D01*
X4529429Y12487402D01*
X4521860Y12498679D01*
X4512919Y12508890D01*
X4502658Y12517882D01*
X4491380Y12525400D01*
X4483709Y12529210D01*
X4480712Y12531445D01*
X4478731Y12534646D01*
X4478070Y12538303D01*
X4478070Y12766852D01*
X4478934Y12770967D01*
X4481423Y12774422D01*
X4485132Y12776504D01*
X4498848Y12780873D01*
X4512259Y12787071D01*
X4524806Y12794843D01*
X4536287Y12804089D01*
X4546549Y12814655D01*
X4555490Y12826441D01*
X4562856Y12839242D01*
X4568596Y12852806D01*
X4572762Y12867487D01*
X4574844Y12871297D01*
X4578299Y12873939D01*
X4582566Y12874853D01*
X4586782Y12873939D01*
X4590237Y12871297D01*
X4592320Y12867487D01*
X4596485Y12852806D01*
X4602226Y12839242D01*
X4609642Y12826441D01*
X4618532Y12814655D01*
X4628794Y12804089D01*
X4640275Y12794843D01*
X4650028Y12788798D01*
X4652568Y12786512D01*
X4654245Y12783515D01*
X4654854Y12780162D01*
X4654854Y12538303D01*
X4654143Y12534646D01*
X4652162Y12531445D01*
X4649165Y12529210D01*
X4641494Y12525400D01*
X4630216Y12517882D01*
X4620006Y12508890D01*
X4611014Y12498679D01*
X4603496Y12487402D01*
X4597450Y12475210D01*
X4593082Y12462357D01*
X4590440Y12448997D01*
X4589576Y12435433D01*
X4590440Y12421920D01*
X4593082Y12408560D01*
X4597450Y12395708D01*
X4603496Y12383516D01*
X4611014Y12372238D01*
X4620006Y12361976D01*
X4630216Y12353036D01*
X4641494Y12345466D01*
X4653686Y12339472D01*
X4666538Y12335103D01*
X4679899Y12332462D01*
X4693462Y12331547D01*
X4706975Y12332462D01*
X4720336Y12335103D01*
X4733188Y12339472D01*
X4745380Y12345466D01*
X4756658Y12353036D01*
X4766919Y12361976D01*
X4775860Y12372238D01*
X4783429Y12383516D01*
X4789424Y12395708D01*
X4793792Y12408560D01*
X4796434Y12421920D01*
X4797348Y12435433D01*
X4796434Y12448997D01*
X4793792Y12462357D01*
X4789424Y12475210D01*
X4783429Y12487402D01*
X4775860Y12498679D01*
X4766919Y12508890D01*
X4756658Y12517882D01*
X4745380Y12525400D01*
X4737709Y12529210D01*
X4734712Y12531445D01*
X4732731Y12534646D01*
X4732070Y12538303D01*
X4732070Y12766852D01*
X4732934Y12770967D01*
X4735423Y12774422D01*
X4739132Y12776504D01*
X4752848Y12780873D01*
X4766259Y12787071D01*
X4778806Y12794843D01*
X4790287Y12804089D01*
X4800549Y12814655D01*
X4809490Y12826441D01*
X4816856Y12839242D01*
X4822596Y12852806D01*
X4826660Y12867030D01*
X4828895Y12881610D01*
X4829352Y12896342D01*
X4827981Y12911023D01*
X4824831Y12925450D01*
X4819954Y12939369D01*
X4813350Y12952577D01*
X4805222Y12964871D01*
X4795621Y12976098D01*
X4784699Y12986054D01*
X4772660Y12994589D01*
X4759655Y13001548D01*
X4745888Y13006882D01*
X4731562Y13010489D01*
X4716932Y13012318D01*
X4702149Y13012318D01*
X4687519Y13010489D01*
X4673193Y13006882D01*
X4659426Y13001548D01*
X4646422Y12994589D01*
X4634382Y12986054D01*
X4623511Y12976098D01*
X4613910Y12964871D01*
X4605731Y12952577D01*
X4599178Y12939369D01*
X4594250Y12925450D01*
X4592472Y12917322D01*
X4590897Y12913715D01*
X4588103Y12911023D01*
X4584496Y12909499D01*
X4580585Y12909499D01*
X4576978Y12911023D01*
X4574184Y12913715D01*
X4572609Y12917322D01*
X4570831Y12925450D01*
X4565954Y12939369D01*
X4559350Y12952577D01*
X4551222Y12964871D01*
X4541621Y12976098D01*
X4530699Y12986054D01*
X4518660Y12994589D01*
X4505655Y13001548D01*
X4491888Y13006882D01*
X4477562Y13010489D01*
X4462932Y13012318D01*
X4448149Y13012318D01*
X4433519Y13010489D01*
X4419193Y13006882D01*
X4405426Y13001548D01*
X4392422Y12994589D01*
X4380382Y12986054D01*
X4369511Y12976098D01*
X4359910Y12964871D01*
X4351731Y12952577D01*
X4345178Y12939369D01*
X4340250Y12925450D01*
X4338472Y12917322D01*
X4336897Y12913715D01*
X4334103Y12911023D01*
X4330496Y12909499D01*
X4326585Y12909499D01*
X4322978Y12911023D01*
X4320184Y12913715D01*
X4318609Y12917322D01*
X4316831Y12925450D01*
X4311954Y12939369D01*
X4305350Y12952577D01*
X4297222Y12964871D01*
X4287621Y12976098D01*
X4276699Y12986054D01*
X4264660Y12994589D01*
X4251655Y13001548D01*
X4237888Y13006882D01*
X4223562Y13010489D01*
X4208932Y13012318D01*
X4194149Y13012318D01*
X4179519Y13010489D01*
X4165193Y13006882D01*
X4151426Y13001548D01*
X4138422Y12994589D01*
X4126382Y12986054D01*
X4115511Y12976098D01*
X4105910Y12964871D01*
X4097731Y12952577D01*
X4091178Y12939369D01*
X4086250Y12925450D01*
X4084472Y12917322D01*
X4082897Y12913715D01*
X4080103Y12911023D01*
X4076496Y12909499D01*
X4072585Y12909499D01*
X4068978Y12911023D01*
X4066184Y12913715D01*
X4064609Y12917322D01*
X4062831Y12925450D01*
X4057954Y12939369D01*
X4051350Y12952577D01*
X4043222Y12964871D01*
X4033621Y12976098D01*
X4022699Y12986054D01*
X4010660Y12994589D01*
X3997655Y13001548D01*
X3983888Y13006882D01*
X3969562Y13010489D01*
X3954932Y13012318D01*
X3940149Y13012318D01*
X3925519Y13010489D01*
X3911193Y13006882D01*
X3897426Y13001548D01*
X3884422Y12994589D01*
X3872382Y12986054D01*
X3861511Y12976098D01*
X3851910Y12964871D01*
X3843731Y12952577D01*
X3837178Y12939369D01*
X3832250Y12925450D01*
X3830472Y12917322D01*
X3828897Y12913715D01*
X3826103Y12911023D01*
X3822496Y12909499D01*
X3818585Y12909499D01*
X3814978Y12911023D01*
X3812184Y12913715D01*
X3810609Y12917322D01*
X3808831Y12925450D01*
X3803700Y12940030D01*
X3803091Y12943789D01*
X3803954Y12947497D01*
X3806088Y12950596D01*
X4016806Y13161314D01*
X4021937Y13167563D01*
X4025493Y13174218D01*
X4027678Y13181431D01*
X4028440Y13189457D01*
X4028440Y13553643D01*
X4029100Y13557199D01*
X4030929Y13560298D01*
X4033723Y13562533D01*
X4044797Y13568629D01*
X4055770Y13576706D01*
X4065574Y13586155D01*
X4074058Y13596874D01*
X4080967Y13608608D01*
X4086301Y13621156D01*
X4089908Y13634313D01*
X4091736Y13647826D01*
X4091736Y13661491D01*
X4089908Y13675004D01*
X4086301Y13688161D01*
X4080967Y13700709D01*
X4074058Y13712444D01*
X4065574Y13723112D01*
X4055770Y13732611D01*
X4044797Y13740688D01*
X4032859Y13747242D01*
X4020108Y13752169D01*
X4006850Y13755319D01*
X3993286Y13756690D01*
X3979672Y13756233D01*
X3966210Y13753947D01*
X3953205Y13749934D01*
X3940810Y13744194D01*
X3929329Y13736828D01*
X3918915Y13728039D01*
X3909771Y13717930D01*
X3902049Y13706703D01*
X3895902Y13694511D01*
X3891432Y13681608D01*
X3888689Y13668248D01*
X3887774Y13654633D01*
X3888689Y13641069D01*
X3891432Y13627709D01*
X3895902Y13614806D01*
X3902049Y13602614D01*
X3909771Y13591387D01*
X3918915Y13581278D01*
X3929329Y13572490D01*
X3940810Y13565124D01*
X3945382Y13563041D01*
X3948480Y13560806D01*
X3950512Y13557554D01*
X3951224Y13553795D01*
X3951224Y13209168D01*
X3950462Y13205307D01*
X3948277Y13202005D01*
X3751326Y13005054D01*
X3748125Y13002869D01*
X3744315Y13002107D01*
X3740505Y13002768D01*
X3729888Y13006882D01*
X3715562Y13010489D01*
X3700932Y13012318D01*
X3686149Y13012318D01*
X3671519Y13010489D01*
X3657193Y13006882D01*
X3643426Y13001548D01*
X3630422Y12994589D01*
X3618382Y12986054D01*
X3607511Y12976098D01*
X3597910Y12964871D01*
X3589731Y12952577D01*
X3583178Y12939369D01*
X3578250Y12925450D01*
X3575100Y12911023D01*
X3573729Y12896342D01*
X3574186Y12881610D01*
X3576472Y12866878D01*
X3580485Y12852806D01*
X3586226Y12839242D01*
X3593642Y12826441D01*
X3602532Y12814655D01*
X3612794Y12804089D01*
X3624275Y12794843D01*
X3634028Y12788798D01*
X3636568Y12786512D01*
X3638245Y12783515D01*
X3638854Y12780162D01*
X3638854Y12538303D01*
X3638143Y12534646D01*
X3636162Y12531445D01*
X3633165Y12529210D01*
X3625494Y12525400D01*
X3614216Y12517882D01*
X3604006Y12508890D01*
X3595014Y12498679D01*
X3587496Y12487402D01*
X3581450Y12475210D01*
X3577082Y12462357D01*
X3574440Y12448997D01*
X3573576Y12435433D01*
X3574440Y12421920D01*
X3577082Y12408560D01*
X3581450Y12395708D01*
X3587496Y12383516D01*
X3595014Y12372238D01*
X3604006Y12361976D01*
X3614216Y12353036D01*
X3625494Y12345466D01*
X3637686Y12339472D01*
X3650538Y12335103D01*
X3663899Y12332462D01*
G37*
G36*
X5201462Y12331547D02*
G01*
X5214975Y12332462D01*
X5228336Y12335103D01*
X5241188Y12339472D01*
X5253380Y12345466D01*
X5264658Y12353036D01*
X5274919Y12361976D01*
X5283860Y12372238D01*
X5291429Y12383516D01*
X5297424Y12395708D01*
X5301792Y12408560D01*
X5304434Y12421920D01*
X5305348Y12435433D01*
X5304434Y12448997D01*
X5301792Y12462357D01*
X5297424Y12475210D01*
X5291429Y12487402D01*
X5283860Y12498679D01*
X5274919Y12508890D01*
X5264658Y12517882D01*
X5253380Y12525400D01*
X5245709Y12529210D01*
X5242712Y12531445D01*
X5240731Y12534646D01*
X5240070Y12538303D01*
X5240070Y12766852D01*
X5240934Y12770967D01*
X5243423Y12774422D01*
X5247132Y12776504D01*
X5260848Y12780873D01*
X5274259Y12787071D01*
X5286806Y12794843D01*
X5298287Y12804089D01*
X5308549Y12814655D01*
X5317490Y12826441D01*
X5324856Y12839242D01*
X5330596Y12852806D01*
X5334762Y12867487D01*
X5336844Y12871297D01*
X5340299Y12873939D01*
X5344566Y12874853D01*
X5348782Y12873939D01*
X5352237Y12871297D01*
X5354320Y12867487D01*
X5358485Y12852806D01*
X5364226Y12839242D01*
X5371642Y12826441D01*
X5380532Y12814655D01*
X5390794Y12804089D01*
X5402275Y12794843D01*
X5412028Y12788798D01*
X5414568Y12786512D01*
X5416245Y12783515D01*
X5416854Y12780162D01*
X5416854Y12538303D01*
X5416143Y12534646D01*
X5414162Y12531445D01*
X5411165Y12529210D01*
X5403494Y12525400D01*
X5392216Y12517882D01*
X5382006Y12508890D01*
X5373014Y12498679D01*
X5365496Y12487402D01*
X5359450Y12475210D01*
X5355082Y12462357D01*
X5352440Y12448997D01*
X5351576Y12435433D01*
X5352440Y12421920D01*
X5355082Y12408560D01*
X5359450Y12395708D01*
X5365496Y12383516D01*
X5373014Y12372238D01*
X5382006Y12361976D01*
X5392216Y12353036D01*
X5403494Y12345466D01*
X5415686Y12339472D01*
X5428538Y12335103D01*
X5441899Y12332462D01*
X5455462Y12331547D01*
X5468975Y12332462D01*
X5482336Y12335103D01*
X5495188Y12339472D01*
X5507380Y12345466D01*
X5518658Y12353036D01*
X5528919Y12361976D01*
X5537860Y12372238D01*
X5545429Y12383516D01*
X5551424Y12395708D01*
X5555792Y12408560D01*
X5558434Y12421920D01*
X5559348Y12435433D01*
X5558434Y12448997D01*
X5555792Y12462357D01*
X5551424Y12475210D01*
X5545429Y12487402D01*
X5537860Y12498679D01*
X5528919Y12508890D01*
X5518658Y12517882D01*
X5507380Y12525400D01*
X5499709Y12529210D01*
X5496712Y12531445D01*
X5494731Y12534646D01*
X5494070Y12538303D01*
X5494070Y12766852D01*
X5494934Y12770967D01*
X5497423Y12774422D01*
X5501132Y12776504D01*
X5514848Y12780873D01*
X5528259Y12787071D01*
X5540806Y12794843D01*
X5552287Y12804089D01*
X5562549Y12814655D01*
X5571490Y12826441D01*
X5578856Y12839242D01*
X5584596Y12852806D01*
X5588762Y12867487D01*
X5590844Y12871297D01*
X5594299Y12873939D01*
X5598566Y12874853D01*
X5602782Y12873939D01*
X5606237Y12871297D01*
X5608320Y12867487D01*
X5612485Y12852806D01*
X5618226Y12839242D01*
X5625642Y12826441D01*
X5634532Y12814655D01*
X5644794Y12804089D01*
X5656275Y12794843D01*
X5666028Y12788798D01*
X5668568Y12786512D01*
X5670245Y12783515D01*
X5670854Y12780162D01*
X5670854Y12538303D01*
X5670143Y12534646D01*
X5668162Y12531445D01*
X5665165Y12529210D01*
X5657494Y12525400D01*
X5646216Y12517882D01*
X5636006Y12508890D01*
X5627014Y12498679D01*
X5619496Y12487402D01*
X5613450Y12475210D01*
X5609082Y12462357D01*
X5606440Y12448997D01*
X5605576Y12435433D01*
X5606440Y12421920D01*
X5609082Y12408560D01*
X5613450Y12395708D01*
X5619496Y12383516D01*
X5627014Y12372238D01*
X5636006Y12361976D01*
X5646216Y12353036D01*
X5657494Y12345466D01*
X5669686Y12339472D01*
X5682538Y12335103D01*
X5695899Y12332462D01*
X5709462Y12331547D01*
X5722975Y12332462D01*
X5736336Y12335103D01*
X5749188Y12339472D01*
X5761380Y12345466D01*
X5772658Y12353036D01*
X5782919Y12361976D01*
X5791860Y12372238D01*
X5799429Y12383516D01*
X5805424Y12395708D01*
X5809792Y12408560D01*
X5812434Y12421920D01*
X5813348Y12435433D01*
X5812434Y12448997D01*
X5809792Y12462357D01*
X5805424Y12475210D01*
X5799429Y12487402D01*
X5791860Y12498679D01*
X5782919Y12508890D01*
X5772658Y12517882D01*
X5761380Y12525400D01*
X5753709Y12529210D01*
X5750712Y12531445D01*
X5748731Y12534646D01*
X5748070Y12538303D01*
X5748070Y12766852D01*
X5748934Y12770967D01*
X5751423Y12774422D01*
X5755132Y12776504D01*
X5768848Y12780873D01*
X5782259Y12787071D01*
X5794806Y12794843D01*
X5806287Y12804089D01*
X5816549Y12814655D01*
X5825490Y12826441D01*
X5832856Y12839242D01*
X5838596Y12852806D01*
X5842762Y12867487D01*
X5844844Y12871297D01*
X5848299Y12873939D01*
X5852566Y12874853D01*
X5856782Y12873939D01*
X5860237Y12871297D01*
X5862320Y12867487D01*
X5866485Y12852806D01*
X5872226Y12839242D01*
X5879642Y12826441D01*
X5888532Y12814655D01*
X5898794Y12804089D01*
X5910275Y12794843D01*
X5920028Y12788798D01*
X5922568Y12786512D01*
X5924245Y12783515D01*
X5924854Y12780162D01*
X5924854Y12538303D01*
X5924143Y12534646D01*
X5922162Y12531445D01*
X5919165Y12529210D01*
X5911494Y12525400D01*
X5900216Y12517882D01*
X5890006Y12508890D01*
X5881014Y12498679D01*
X5873496Y12487402D01*
X5867450Y12475210D01*
X5863082Y12462357D01*
X5860440Y12448997D01*
X5859576Y12435433D01*
X5860440Y12421920D01*
X5863082Y12408560D01*
X5867450Y12395708D01*
X5873496Y12383516D01*
X5881014Y12372238D01*
X5890006Y12361976D01*
X5900216Y12353036D01*
X5911494Y12345466D01*
X5923686Y12339472D01*
X5936538Y12335103D01*
X5949899Y12332462D01*
X5963462Y12331547D01*
X5976975Y12332462D01*
X5990336Y12335103D01*
X6003188Y12339472D01*
X6015380Y12345466D01*
X6026658Y12353036D01*
X6036919Y12361976D01*
X6045860Y12372238D01*
X6053429Y12383516D01*
X6059424Y12395708D01*
X6063792Y12408560D01*
X6066434Y12421920D01*
X6067348Y12435433D01*
X6066434Y12448997D01*
X6063792Y12462357D01*
X6059424Y12475210D01*
X6053429Y12487402D01*
X6045860Y12498679D01*
X6036919Y12508890D01*
X6026658Y12517882D01*
X6015380Y12525400D01*
X6007709Y12529210D01*
X6004712Y12531445D01*
X6002731Y12534646D01*
X6002070Y12538303D01*
X6002070Y12766852D01*
X6002934Y12770967D01*
X6005423Y12774422D01*
X6009132Y12776504D01*
X6022848Y12780873D01*
X6036259Y12787071D01*
X6048806Y12794843D01*
X6060287Y12804089D01*
X6070549Y12814655D01*
X6079490Y12826441D01*
X6086856Y12839242D01*
X6092596Y12852806D01*
X6096762Y12867487D01*
X6098844Y12871297D01*
X6102299Y12873939D01*
X6106566Y12874853D01*
X6110782Y12873939D01*
X6114237Y12871297D01*
X6116320Y12867487D01*
X6120485Y12852806D01*
X6126226Y12839242D01*
X6133642Y12826441D01*
X6142532Y12814655D01*
X6152794Y12804089D01*
X6164275Y12794843D01*
X6174028Y12788798D01*
X6176568Y12786512D01*
X6178245Y12783515D01*
X6178854Y12780162D01*
X6178854Y12538303D01*
X6178143Y12534646D01*
X6176162Y12531445D01*
X6173165Y12529210D01*
X6165494Y12525400D01*
X6154216Y12517882D01*
X6144006Y12508890D01*
X6135014Y12498679D01*
X6127496Y12487402D01*
X6121450Y12475210D01*
X6117082Y12462357D01*
X6114440Y12448997D01*
X6113576Y12435433D01*
X6114440Y12421920D01*
X6117082Y12408560D01*
X6121450Y12395708D01*
X6127496Y12383516D01*
X6135014Y12372238D01*
X6144006Y12361976D01*
X6154216Y12353036D01*
X6165494Y12345466D01*
X6177686Y12339472D01*
X6190538Y12335103D01*
X6203899Y12332462D01*
X6217462Y12331547D01*
X6230975Y12332462D01*
X6244336Y12335103D01*
X6257188Y12339472D01*
X6269380Y12345466D01*
X6280658Y12353036D01*
X6290919Y12361976D01*
X6299860Y12372238D01*
X6307429Y12383516D01*
X6313424Y12395708D01*
X6317792Y12408560D01*
X6320434Y12421920D01*
X6321348Y12435433D01*
X6320434Y12448997D01*
X6317792Y12462357D01*
X6313424Y12475210D01*
X6307429Y12487402D01*
X6299860Y12498679D01*
X6290919Y12508890D01*
X6280658Y12517882D01*
X6269380Y12525400D01*
X6261709Y12529210D01*
X6258712Y12531445D01*
X6256731Y12534646D01*
X6256070Y12538303D01*
X6256070Y12766852D01*
X6256934Y12770967D01*
X6259423Y12774422D01*
X6263132Y12776504D01*
X6276848Y12780873D01*
X6290259Y12787071D01*
X6302806Y12794843D01*
X6314287Y12804089D01*
X6324549Y12814655D01*
X6333490Y12826441D01*
X6340856Y12839242D01*
X6346596Y12852806D01*
X6350762Y12867487D01*
X6352844Y12871297D01*
X6356299Y12873939D01*
X6360566Y12874853D01*
X6364782Y12873939D01*
X6368237Y12871297D01*
X6370320Y12867487D01*
X6374485Y12852806D01*
X6380226Y12839242D01*
X6387642Y12826441D01*
X6396532Y12814655D01*
X6406794Y12804089D01*
X6418275Y12794843D01*
X6428028Y12788798D01*
X6430568Y12786512D01*
X6432245Y12783515D01*
X6432854Y12780162D01*
X6432854Y12538303D01*
X6432143Y12534646D01*
X6430162Y12531445D01*
X6427165Y12529210D01*
X6419494Y12525400D01*
X6408216Y12517882D01*
X6398006Y12508890D01*
X6389014Y12498679D01*
X6381496Y12487402D01*
X6375450Y12475210D01*
X6371082Y12462357D01*
X6368440Y12448997D01*
X6367576Y12435433D01*
X6368440Y12421920D01*
X6371082Y12408560D01*
X6375450Y12395708D01*
X6381496Y12383516D01*
X6389014Y12372238D01*
X6398006Y12361976D01*
X6408216Y12353036D01*
X6419494Y12345466D01*
X6431686Y12339472D01*
X6444538Y12335103D01*
X6457899Y12332462D01*
X6471462Y12331547D01*
X6484975Y12332462D01*
X6498336Y12335103D01*
X6511188Y12339472D01*
X6523380Y12345466D01*
X6534657Y12353036D01*
X6544919Y12361976D01*
X6553860Y12372238D01*
X6561429Y12383516D01*
X6567424Y12395708D01*
X6571792Y12408560D01*
X6574434Y12421920D01*
X6575348Y12435433D01*
X6574434Y12448997D01*
X6571792Y12462357D01*
X6567424Y12475210D01*
X6561429Y12487402D01*
X6553860Y12498679D01*
X6544919Y12508890D01*
X6534657Y12517882D01*
X6523380Y12525400D01*
X6515709Y12529210D01*
X6512712Y12531445D01*
X6510731Y12534646D01*
X6510070Y12538303D01*
X6510070Y12766852D01*
X6510934Y12770967D01*
X6513423Y12774422D01*
X6517131Y12776504D01*
X6530848Y12780873D01*
X6544259Y12787071D01*
X6556806Y12794843D01*
X6568287Y12804089D01*
X6578549Y12814655D01*
X6587490Y12826441D01*
X6594856Y12839242D01*
X6600596Y12852806D01*
X6604762Y12867487D01*
X6606844Y12871297D01*
X6610299Y12873939D01*
X6614566Y12874853D01*
X6618782Y12873939D01*
X6622237Y12871297D01*
X6624320Y12867487D01*
X6628485Y12852806D01*
X6634225Y12839242D01*
X6641642Y12826441D01*
X6650532Y12814655D01*
X6660794Y12804089D01*
X6672275Y12794843D01*
X6682028Y12788798D01*
X6684568Y12786512D01*
X6686245Y12783515D01*
X6686854Y12780162D01*
X6686854Y12538303D01*
X6686143Y12534646D01*
X6684162Y12531445D01*
X6681165Y12529210D01*
X6673494Y12525400D01*
X6662216Y12517882D01*
X6652006Y12508890D01*
X6643014Y12498679D01*
X6635496Y12487402D01*
X6629450Y12475210D01*
X6625081Y12462357D01*
X6622440Y12448997D01*
X6621576Y12435433D01*
X6622440Y12421920D01*
X6625081Y12408560D01*
X6629450Y12395708D01*
X6635496Y12383516D01*
X6643014Y12372238D01*
X6652006Y12361976D01*
X6662216Y12353036D01*
X6673494Y12345466D01*
X6685686Y12339472D01*
X6698538Y12335103D01*
X6711899Y12332462D01*
X6725462Y12331547D01*
X6738975Y12332462D01*
X6752336Y12335103D01*
X6765188Y12339472D01*
X6777380Y12345466D01*
X6788658Y12353036D01*
X6798919Y12361976D01*
X6807860Y12372238D01*
X6815429Y12383516D01*
X6821424Y12395708D01*
X6825792Y12408560D01*
X6828434Y12421920D01*
X6829348Y12435433D01*
X6828434Y12448997D01*
X6825792Y12462357D01*
X6821424Y12475210D01*
X6815429Y12487402D01*
X6807860Y12498679D01*
X6798919Y12508890D01*
X6788658Y12517882D01*
X6777380Y12525400D01*
X6769709Y12529210D01*
X6766712Y12531445D01*
X6764731Y12534646D01*
X6764070Y12538303D01*
X6764070Y12766852D01*
X6764934Y12770967D01*
X6767423Y12774422D01*
X6771131Y12776504D01*
X6784848Y12780873D01*
X6798259Y12787071D01*
X6810806Y12794843D01*
X6822287Y12804089D01*
X6832549Y12814655D01*
X6841490Y12826441D01*
X6848856Y12839242D01*
X6854596Y12852806D01*
X6858762Y12867487D01*
X6860844Y12871297D01*
X6864299Y12873939D01*
X6868566Y12874853D01*
X6872782Y12873939D01*
X6876237Y12871297D01*
X6878320Y12867487D01*
X6882485Y12852806D01*
X6888225Y12839242D01*
X6895642Y12826441D01*
X6904532Y12814655D01*
X6914794Y12804089D01*
X6926275Y12794843D01*
X6936028Y12788798D01*
X6938568Y12786512D01*
X6940245Y12783515D01*
X6940854Y12780162D01*
X6940854Y12538303D01*
X6940143Y12534646D01*
X6938162Y12531445D01*
X6935165Y12529210D01*
X6927494Y12525400D01*
X6916216Y12517882D01*
X6906006Y12508890D01*
X6897014Y12498679D01*
X6889496Y12487402D01*
X6883450Y12475210D01*
X6879081Y12462357D01*
X6876440Y12448997D01*
X6875576Y12435433D01*
X6876440Y12421920D01*
X6879081Y12408560D01*
X6883450Y12395708D01*
X6889496Y12383516D01*
X6897014Y12372238D01*
X6906006Y12361976D01*
X6916216Y12353036D01*
X6927494Y12345466D01*
X6939686Y12339472D01*
X6952538Y12335103D01*
X6965899Y12332462D01*
X6979462Y12331547D01*
X6992975Y12332462D01*
X7006336Y12335103D01*
X7019188Y12339472D01*
X7031380Y12345466D01*
X7042658Y12353036D01*
X7052919Y12361976D01*
X7061860Y12372238D01*
X7069429Y12383516D01*
X7075424Y12395708D01*
X7079792Y12408560D01*
X7082434Y12421920D01*
X7083348Y12435433D01*
X7082434Y12448997D01*
X7079792Y12462357D01*
X7075424Y12475210D01*
X7069429Y12487402D01*
X7061860Y12498679D01*
X7052919Y12508890D01*
X7042658Y12517882D01*
X7031380Y12525400D01*
X7023709Y12529210D01*
X7020712Y12531445D01*
X7018731Y12534646D01*
X7018070Y12538303D01*
X7018070Y12766852D01*
X7018934Y12770967D01*
X7021423Y12774422D01*
X7025131Y12776504D01*
X7038848Y12780873D01*
X7052259Y12787071D01*
X7064806Y12794843D01*
X7076287Y12804089D01*
X7086549Y12814655D01*
X7095490Y12826441D01*
X7102856Y12839242D01*
X7108596Y12852806D01*
X7112762Y12867487D01*
X7114844Y12871297D01*
X7118299Y12873939D01*
X7122566Y12874853D01*
X7126782Y12873939D01*
X7130237Y12871297D01*
X7132320Y12867487D01*
X7136485Y12852806D01*
X7142225Y12839242D01*
X7149642Y12826441D01*
X7158532Y12814655D01*
X7168794Y12804089D01*
X7180275Y12794843D01*
X7190028Y12788798D01*
X7192568Y12786512D01*
X7194245Y12783515D01*
X7194854Y12780162D01*
X7194854Y12538303D01*
X7194143Y12534646D01*
X7192162Y12531445D01*
X7189165Y12529210D01*
X7181494Y12525400D01*
X7170216Y12517882D01*
X7160006Y12508890D01*
X7151014Y12498679D01*
X7143496Y12487402D01*
X7137450Y12475210D01*
X7133081Y12462357D01*
X7130440Y12448997D01*
X7129576Y12435433D01*
X7130440Y12421920D01*
X7133081Y12408560D01*
X7137450Y12395708D01*
X7143496Y12383516D01*
X7151014Y12372238D01*
X7160006Y12361976D01*
X7170216Y12353036D01*
X7181494Y12345466D01*
X7193686Y12339472D01*
X7206538Y12335103D01*
X7219899Y12332462D01*
X7233462Y12331547D01*
X7246975Y12332462D01*
X7260336Y12335103D01*
X7273188Y12339472D01*
X7285380Y12345466D01*
X7296658Y12353036D01*
X7306919Y12361976D01*
X7315860Y12372238D01*
X7323429Y12383516D01*
X7329424Y12395708D01*
X7333792Y12408560D01*
X7336434Y12421920D01*
X7337348Y12435433D01*
X7336434Y12448997D01*
X7333792Y12462357D01*
X7329424Y12475210D01*
X7323429Y12487402D01*
X7315860Y12498679D01*
X7306919Y12508890D01*
X7296658Y12517882D01*
X7285380Y12525400D01*
X7277709Y12529210D01*
X7274712Y12531445D01*
X7272731Y12534646D01*
X7272070Y12538303D01*
X7272070Y12766852D01*
X7272934Y12770967D01*
X7275423Y12774422D01*
X7279131Y12776504D01*
X7292848Y12780873D01*
X7306259Y12787071D01*
X7318806Y12794843D01*
X7330287Y12804089D01*
X7340549Y12814655D01*
X7349490Y12826441D01*
X7356856Y12839242D01*
X7362596Y12852806D01*
X7366762Y12867487D01*
X7368844Y12871297D01*
X7372299Y12873939D01*
X7376566Y12874853D01*
X7380782Y12873939D01*
X7384237Y12871297D01*
X7386320Y12867487D01*
X7390485Y12852806D01*
X7396225Y12839242D01*
X7403642Y12826441D01*
X7412532Y12814655D01*
X7422794Y12804089D01*
X7434275Y12794843D01*
X7444028Y12788798D01*
X7446568Y12786512D01*
X7448245Y12783515D01*
X7448854Y12780162D01*
X7448854Y12538303D01*
X7448143Y12534646D01*
X7446162Y12531445D01*
X7443165Y12529210D01*
X7435494Y12525400D01*
X7424216Y12517882D01*
X7414006Y12508890D01*
X7405014Y12498679D01*
X7397496Y12487402D01*
X7391450Y12475210D01*
X7387081Y12462357D01*
X7384440Y12448997D01*
X7383576Y12435433D01*
X7384440Y12421920D01*
X7387081Y12408560D01*
X7391450Y12395708D01*
X7397496Y12383516D01*
X7405014Y12372238D01*
X7414006Y12361976D01*
X7424216Y12353036D01*
X7435494Y12345466D01*
X7447686Y12339472D01*
X7460538Y12335103D01*
X7473899Y12332462D01*
X7487462Y12331547D01*
X7500975Y12332462D01*
X7514336Y12335103D01*
X7527188Y12339472D01*
X7539380Y12345466D01*
X7550658Y12353036D01*
X7560919Y12361976D01*
X7569860Y12372238D01*
X7577429Y12383516D01*
X7583424Y12395708D01*
X7587792Y12408560D01*
X7590434Y12421920D01*
X7591348Y12435433D01*
X7590434Y12448997D01*
X7587792Y12462357D01*
X7583424Y12475210D01*
X7577429Y12487402D01*
X7569860Y12498679D01*
X7560919Y12508890D01*
X7550658Y12517882D01*
X7539380Y12525400D01*
X7531709Y12529210D01*
X7528712Y12531445D01*
X7526731Y12534646D01*
X7526070Y12538303D01*
X7526070Y12766852D01*
X7526934Y12770967D01*
X7529423Y12774422D01*
X7533131Y12776504D01*
X7546848Y12780873D01*
X7560259Y12787071D01*
X7572806Y12794843D01*
X7584287Y12804089D01*
X7594549Y12814655D01*
X7603490Y12826441D01*
X7610856Y12839242D01*
X7616596Y12852806D01*
X7620762Y12867487D01*
X7622844Y12871297D01*
X7626299Y12873939D01*
X7630566Y12874853D01*
X7634782Y12873939D01*
X7638237Y12871297D01*
X7640320Y12867487D01*
X7644485Y12852806D01*
X7650225Y12839242D01*
X7657642Y12826441D01*
X7666532Y12814655D01*
X7676794Y12804089D01*
X7688275Y12794843D01*
X7698028Y12788798D01*
X7700568Y12786512D01*
X7702245Y12783515D01*
X7702854Y12780162D01*
X7702854Y12538303D01*
X7702143Y12534646D01*
X7700162Y12531445D01*
X7697165Y12529210D01*
X7689494Y12525400D01*
X7678216Y12517882D01*
X7668006Y12508890D01*
X7659014Y12498679D01*
X7651496Y12487402D01*
X7645450Y12475210D01*
X7641081Y12462357D01*
X7638440Y12448997D01*
X7637576Y12435433D01*
X7638440Y12421920D01*
X7641081Y12408560D01*
X7645450Y12395708D01*
X7651496Y12383516D01*
X7659014Y12372238D01*
X7668006Y12361976D01*
X7678216Y12353036D01*
X7689494Y12345466D01*
X7701686Y12339472D01*
X7714538Y12335103D01*
X7727899Y12332462D01*
X7741462Y12331547D01*
X7754975Y12332462D01*
X7768336Y12335103D01*
X7781188Y12339472D01*
X7793380Y12345466D01*
X7804658Y12353036D01*
X7814919Y12361976D01*
X7823860Y12372238D01*
X7831429Y12383516D01*
X7837424Y12395708D01*
X7841792Y12408560D01*
X7844434Y12421920D01*
X7845348Y12435433D01*
X7844434Y12448997D01*
X7841792Y12462357D01*
X7837424Y12475210D01*
X7831429Y12487402D01*
X7823860Y12498679D01*
X7814919Y12508890D01*
X7804658Y12517882D01*
X7793380Y12525400D01*
X7785709Y12529210D01*
X7782712Y12531445D01*
X7780731Y12534646D01*
X7780070Y12538303D01*
X7780070Y12766852D01*
X7780934Y12770967D01*
X7783423Y12774422D01*
X7787131Y12776504D01*
X7800848Y12780873D01*
X7814259Y12787071D01*
X7826806Y12794843D01*
X7838287Y12804089D01*
X7848549Y12814655D01*
X7857490Y12826441D01*
X7864856Y12839242D01*
X7870596Y12852806D01*
X7874762Y12867487D01*
X7876844Y12871297D01*
X7880299Y12873939D01*
X7884566Y12874853D01*
X7888782Y12873939D01*
X7892237Y12871297D01*
X7894320Y12867487D01*
X7898485Y12852806D01*
X7904225Y12839242D01*
X7911642Y12826441D01*
X7920532Y12814655D01*
X7930794Y12804089D01*
X7942275Y12794843D01*
X7952028Y12788798D01*
X7954568Y12786512D01*
X7956245Y12783515D01*
X7956854Y12780162D01*
X7956854Y12538303D01*
X7956143Y12534646D01*
X7954162Y12531445D01*
X7951165Y12529210D01*
X7943494Y12525400D01*
X7932216Y12517882D01*
X7922006Y12508890D01*
X7913014Y12498679D01*
X7905496Y12487402D01*
X7899450Y12475210D01*
X7895081Y12462357D01*
X7892440Y12448997D01*
X7891576Y12435433D01*
X7892440Y12421920D01*
X7895081Y12408560D01*
X7899450Y12395708D01*
X7905496Y12383516D01*
X7913014Y12372238D01*
X7922006Y12361976D01*
X7932216Y12353036D01*
X7943494Y12345466D01*
X7955686Y12339472D01*
X7968538Y12335103D01*
X7981899Y12332462D01*
X7995462Y12331547D01*
X8008975Y12332462D01*
X8022336Y12335103D01*
X8035188Y12339472D01*
X8047380Y12345466D01*
X8058658Y12353036D01*
X8068919Y12361976D01*
X8077860Y12372238D01*
X8085429Y12383516D01*
X8091424Y12395708D01*
X8095792Y12408560D01*
X8098434Y12421920D01*
X8099348Y12435433D01*
X8098434Y12448997D01*
X8095792Y12462357D01*
X8091424Y12475210D01*
X8085429Y12487402D01*
X8077860Y12498679D01*
X8068919Y12508890D01*
X8058658Y12517882D01*
X8047380Y12525400D01*
X8039709Y12529210D01*
X8036712Y12531445D01*
X8034731Y12534646D01*
X8034070Y12538303D01*
X8034070Y12766852D01*
X8034934Y12770967D01*
X8037423Y12774422D01*
X8041131Y12776504D01*
X8054848Y12780873D01*
X8068259Y12787071D01*
X8080806Y12794843D01*
X8092287Y12804089D01*
X8102549Y12814655D01*
X8111490Y12826441D01*
X8118856Y12839242D01*
X8124596Y12852806D01*
X8128660Y12867030D01*
X8130895Y12881610D01*
X8131352Y12896342D01*
X8129981Y12911023D01*
X8126831Y12925450D01*
X8121954Y12939369D01*
X8115350Y12952577D01*
X8107222Y12964871D01*
X8097621Y12976098D01*
X8086699Y12986054D01*
X8074659Y12994589D01*
X8061655Y13001548D01*
X8047888Y13006882D01*
X8033562Y13010489D01*
X8018932Y13012318D01*
X8004149Y13012318D01*
X7989519Y13010489D01*
X7975193Y13006882D01*
X7961426Y13001548D01*
X7948422Y12994589D01*
X7936382Y12986054D01*
X7925511Y12976098D01*
X7915909Y12964871D01*
X7907731Y12952577D01*
X7901178Y12939369D01*
X7896250Y12925450D01*
X7894472Y12917322D01*
X7892897Y12913715D01*
X7890103Y12911023D01*
X7886496Y12909499D01*
X7882585Y12909499D01*
X7878978Y12911023D01*
X7876184Y12913715D01*
X7874609Y12917322D01*
X7872831Y12925450D01*
X7867954Y12939369D01*
X7861350Y12952577D01*
X7853222Y12964871D01*
X7843621Y12976098D01*
X7832699Y12986054D01*
X7820659Y12994589D01*
X7807655Y13001548D01*
X7793888Y13006882D01*
X7779562Y13010489D01*
X7764932Y13012318D01*
X7750149Y13012318D01*
X7735519Y13010489D01*
X7721193Y13006882D01*
X7707426Y13001548D01*
X7694422Y12994589D01*
X7682382Y12986054D01*
X7671511Y12976098D01*
X7661909Y12964871D01*
X7653731Y12952577D01*
X7647178Y12939369D01*
X7642250Y12925450D01*
X7640472Y12917322D01*
X7638897Y12913715D01*
X7636103Y12911023D01*
X7632496Y12909499D01*
X7628585Y12909499D01*
X7624978Y12911023D01*
X7622184Y12913715D01*
X7620609Y12917322D01*
X7618831Y12925450D01*
X7613954Y12939369D01*
X7607350Y12952577D01*
X7599222Y12964871D01*
X7589621Y12976098D01*
X7578699Y12986054D01*
X7566659Y12994589D01*
X7553655Y13001548D01*
X7539888Y13006882D01*
X7525562Y13010489D01*
X7510932Y13012318D01*
X7496149Y13012318D01*
X7481519Y13010489D01*
X7467193Y13006882D01*
X7453426Y13001548D01*
X7440422Y12994589D01*
X7428382Y12986054D01*
X7417511Y12976098D01*
X7407909Y12964871D01*
X7399731Y12952577D01*
X7393178Y12939369D01*
X7388250Y12925450D01*
X7386472Y12917322D01*
X7384897Y12913715D01*
X7382103Y12911023D01*
X7378496Y12909499D01*
X7374585Y12909499D01*
X7370978Y12911023D01*
X7368184Y12913715D01*
X7366609Y12917322D01*
X7364831Y12925450D01*
X7359954Y12939369D01*
X7353350Y12952577D01*
X7345222Y12964871D01*
X7335621Y12976098D01*
X7324699Y12986054D01*
X7312659Y12994589D01*
X7299655Y13001548D01*
X7285888Y13006882D01*
X7271562Y13010489D01*
X7256932Y13012318D01*
X7242149Y13012318D01*
X7227519Y13010489D01*
X7213193Y13006882D01*
X7199426Y13001548D01*
X7186422Y12994589D01*
X7174382Y12986054D01*
X7163511Y12976098D01*
X7153909Y12964871D01*
X7145731Y12952577D01*
X7139178Y12939369D01*
X7134250Y12925450D01*
X7132472Y12917322D01*
X7130897Y12913715D01*
X7128103Y12911023D01*
X7124496Y12909499D01*
X7120585Y12909499D01*
X7116978Y12911023D01*
X7114184Y12913715D01*
X7112609Y12917322D01*
X7110831Y12925450D01*
X7105954Y12939369D01*
X7099350Y12952577D01*
X7091222Y12964871D01*
X7081621Y12976098D01*
X7070699Y12986054D01*
X7058659Y12994589D01*
X7045655Y13001548D01*
X7031888Y13006882D01*
X7017562Y13010489D01*
X7002932Y13012318D01*
X6988149Y13012318D01*
X6973519Y13010489D01*
X6959193Y13006882D01*
X6945426Y13001548D01*
X6932422Y12994589D01*
X6920382Y12986054D01*
X6909511Y12976098D01*
X6899909Y12964871D01*
X6891731Y12952577D01*
X6885178Y12939369D01*
X6880250Y12925450D01*
X6878472Y12917322D01*
X6876897Y12913715D01*
X6874103Y12911023D01*
X6870496Y12909499D01*
X6866585Y12909499D01*
X6862978Y12911023D01*
X6860184Y12913715D01*
X6858609Y12917322D01*
X6856831Y12925450D01*
X6851954Y12939369D01*
X6845350Y12952577D01*
X6837222Y12964871D01*
X6827621Y12976098D01*
X6816699Y12986054D01*
X6804659Y12994589D01*
X6791655Y13001548D01*
X6777888Y13006882D01*
X6763562Y13010489D01*
X6748932Y13012318D01*
X6734149Y13012318D01*
X6719519Y13010489D01*
X6705193Y13006882D01*
X6691426Y13001548D01*
X6678422Y12994589D01*
X6666382Y12986054D01*
X6655511Y12976098D01*
X6645909Y12964871D01*
X6637731Y12952577D01*
X6631178Y12939369D01*
X6626250Y12925450D01*
X6624472Y12917322D01*
X6622897Y12913715D01*
X6620103Y12911023D01*
X6616496Y12909499D01*
X6612585Y12909499D01*
X6608978Y12911023D01*
X6606184Y12913715D01*
X6604609Y12917322D01*
X6602831Y12925450D01*
X6597954Y12939369D01*
X6591350Y12952577D01*
X6583222Y12964871D01*
X6573621Y12976098D01*
X6562699Y12986054D01*
X6550659Y12994589D01*
X6537655Y13001548D01*
X6523888Y13006882D01*
X6509562Y13010489D01*
X6494932Y13012318D01*
X6480149Y13012318D01*
X6465519Y13010489D01*
X6451193Y13006882D01*
X6437426Y13001548D01*
X6424422Y12994589D01*
X6412382Y12986054D01*
X6401511Y12976098D01*
X6391910Y12964871D01*
X6383731Y12952577D01*
X6377178Y12939369D01*
X6372250Y12925450D01*
X6370472Y12917322D01*
X6368897Y12913715D01*
X6366103Y12911023D01*
X6362496Y12909499D01*
X6358585Y12909499D01*
X6354978Y12911023D01*
X6352184Y12913715D01*
X6350609Y12917322D01*
X6348831Y12925450D01*
X6343954Y12939369D01*
X6337350Y12952577D01*
X6329222Y12964871D01*
X6319621Y12976098D01*
X6308699Y12986054D01*
X6296660Y12994589D01*
X6283655Y13001548D01*
X6269888Y13006882D01*
X6255562Y13010489D01*
X6240932Y13012318D01*
X6226149Y13012318D01*
X6211519Y13010489D01*
X6197193Y13006882D01*
X6183426Y13001548D01*
X6170422Y12994589D01*
X6158382Y12986054D01*
X6147511Y12976098D01*
X6137910Y12964871D01*
X6129731Y12952577D01*
X6123178Y12939369D01*
X6118250Y12925450D01*
X6116472Y12917322D01*
X6114897Y12913715D01*
X6112103Y12911023D01*
X6108496Y12909499D01*
X6104585Y12909499D01*
X6100978Y12911023D01*
X6098184Y12913715D01*
X6096609Y12917322D01*
X6094831Y12925450D01*
X6089954Y12939369D01*
X6083350Y12952577D01*
X6075222Y12964871D01*
X6065621Y12976098D01*
X6054699Y12986054D01*
X6042660Y12994589D01*
X6029655Y13001548D01*
X6015888Y13006882D01*
X6001562Y13010489D01*
X5986932Y13012318D01*
X5972149Y13012318D01*
X5957519Y13010489D01*
X5943193Y13006882D01*
X5929426Y13001548D01*
X5916422Y12994589D01*
X5904382Y12986054D01*
X5893511Y12976098D01*
X5883910Y12964871D01*
X5875731Y12952577D01*
X5869178Y12939369D01*
X5864250Y12925450D01*
X5862472Y12917322D01*
X5860897Y12913715D01*
X5858103Y12911023D01*
X5854496Y12909499D01*
X5850585Y12909499D01*
X5846978Y12911023D01*
X5844184Y12913715D01*
X5842609Y12917322D01*
X5840831Y12925450D01*
X5835954Y12939369D01*
X5829350Y12952577D01*
X5821222Y12964871D01*
X5811621Y12976098D01*
X5800699Y12986054D01*
X5788660Y12994589D01*
X5775655Y13001548D01*
X5761888Y13006882D01*
X5747562Y13010489D01*
X5732932Y13012318D01*
X5718149Y13012318D01*
X5703519Y13010489D01*
X5689193Y13006882D01*
X5675426Y13001548D01*
X5662422Y12994589D01*
X5650382Y12986054D01*
X5639511Y12976098D01*
X5629910Y12964871D01*
X5621731Y12952577D01*
X5615178Y12939369D01*
X5610250Y12925450D01*
X5608472Y12917322D01*
X5606897Y12913715D01*
X5604103Y12911023D01*
X5600496Y12909499D01*
X5596585Y12909499D01*
X5592978Y12911023D01*
X5590184Y12913715D01*
X5588609Y12917322D01*
X5586831Y12925450D01*
X5581954Y12939369D01*
X5575350Y12952577D01*
X5567222Y12964871D01*
X5557621Y12976098D01*
X5546699Y12986054D01*
X5534660Y12994589D01*
X5521655Y13001548D01*
X5507888Y13006882D01*
X5493562Y13010489D01*
X5478932Y13012318D01*
X5464149Y13012318D01*
X5449519Y13010489D01*
X5435193Y13006882D01*
X5421426Y13001548D01*
X5408422Y12994589D01*
X5396382Y12986054D01*
X5385511Y12976098D01*
X5375910Y12964871D01*
X5367731Y12952577D01*
X5361178Y12939369D01*
X5356250Y12925450D01*
X5354472Y12917322D01*
X5352897Y12913715D01*
X5350103Y12911023D01*
X5346496Y12909499D01*
X5342585Y12909499D01*
X5338978Y12911023D01*
X5336184Y12913715D01*
X5334609Y12917322D01*
X5332831Y12925450D01*
X5327954Y12939369D01*
X5321350Y12952577D01*
X5313222Y12964871D01*
X5303621Y12976098D01*
X5292699Y12986054D01*
X5280660Y12994589D01*
X5267655Y13001548D01*
X5253888Y13006882D01*
X5239562Y13010489D01*
X5224932Y13012318D01*
X5210149Y13012318D01*
X5195519Y13010489D01*
X5181193Y13006882D01*
X5167426Y13001548D01*
X5154422Y12994589D01*
X5142382Y12986054D01*
X5131511Y12976098D01*
X5121910Y12964871D01*
X5113731Y12952577D01*
X5107178Y12939369D01*
X5102250Y12925450D01*
X5099100Y12911023D01*
X5097729Y12896342D01*
X5098186Y12881610D01*
X5100472Y12866878D01*
X5104485Y12852806D01*
X5110226Y12839242D01*
X5117642Y12826441D01*
X5126532Y12814655D01*
X5136794Y12804089D01*
X5148275Y12794843D01*
X5158028Y12788798D01*
X5160568Y12786512D01*
X5162245Y12783515D01*
X5162854Y12780162D01*
X5162854Y12538303D01*
X5162143Y12534646D01*
X5160162Y12531445D01*
X5157165Y12529210D01*
X5149494Y12525400D01*
X5138216Y12517882D01*
X5128006Y12508890D01*
X5119014Y12498679D01*
X5111496Y12487402D01*
X5105450Y12475210D01*
X5101082Y12462357D01*
X5098440Y12448997D01*
X5097576Y12435433D01*
X5098440Y12421920D01*
X5101082Y12408560D01*
X5105450Y12395708D01*
X5111496Y12383516D01*
X5119014Y12372238D01*
X5128006Y12361976D01*
X5138216Y12353036D01*
X5149494Y12345466D01*
X5161686Y12339472D01*
X5174538Y12335103D01*
X5187899Y12332462D01*
G37*
G36*
X4992776Y12342215D02*
G01*
X4999380Y12345466D01*
X5010658Y12353036D01*
X5020919Y12361976D01*
X5029860Y12372238D01*
X5037429Y12383516D01*
X5040680Y12390120D01*
X4992776Y12390120D01*
G37*
G36*
X3378098Y12342215D02*
G01*
X3378098Y12390120D01*
X3330244Y12390120D01*
X3333496Y12383516D01*
X3341014Y12372238D01*
X3350006Y12361976D01*
X3360216Y12353036D01*
X3371494Y12345466D01*
G37*
G36*
X4902098Y12342215D02*
G01*
X4902098Y12390120D01*
X4854244Y12390120D01*
X4857496Y12383516D01*
X4865014Y12372238D01*
X4874006Y12361976D01*
X4884216Y12353036D01*
X4895494Y12345466D01*
G37*
G36*
X3468776Y12342215D02*
G01*
X3475380Y12345466D01*
X3486658Y12353036D01*
X3496919Y12361976D01*
X3505860Y12372238D01*
X3513429Y12383516D01*
X3516680Y12390120D01*
X3468776Y12390120D01*
G37*
G36*
X2060905Y12363805D02*
G01*
X2227376Y12363805D01*
X2233726Y12364516D01*
X2239162Y12366447D01*
X2244090Y12369546D01*
X2248154Y12373610D01*
X2251252Y12378537D01*
X2253183Y12383973D01*
X2253894Y12390323D01*
X2253894Y12556794D01*
X2253183Y12563144D01*
X2251252Y12568580D01*
X2248154Y12573508D01*
X2244090Y12577572D01*
X2239162Y12580670D01*
X2233726Y12582550D01*
X2227376Y12583261D01*
X2060905Y12583261D01*
X2054555Y12582550D01*
X2049119Y12580670D01*
X2044192Y12577572D01*
X2040128Y12573508D01*
X2037029Y12568580D01*
X2035149Y12563144D01*
X2034438Y12556794D01*
X2034438Y12390323D01*
X2035149Y12383973D01*
X2037029Y12378537D01*
X2040128Y12373610D01*
X2044192Y12369546D01*
X2049119Y12366447D01*
X2054555Y12364516D01*
G37*
G36*
X1333906Y12375286D02*
G01*
X1333906Y12425273D01*
X1283817Y12425273D01*
X1288338Y12416688D01*
X1296365Y12405156D01*
X1305814Y12394742D01*
X1316532Y12385649D01*
X1328318Y12377978D01*
G37*
G36*
X1430426Y12375286D02*
G01*
X1435963Y12377978D01*
X1447749Y12385649D01*
X1458468Y12394742D01*
X1467916Y12405156D01*
X1475943Y12416688D01*
X1480464Y12425273D01*
X1430426Y12425273D01*
G37*
G36*
X4992776Y12480798D02*
G01*
X5040680Y12480798D01*
X5037429Y12487402D01*
X5029860Y12498679D01*
X5020919Y12508890D01*
X5010658Y12517882D01*
X4999380Y12525400D01*
X4992776Y12528651D01*
G37*
G36*
X3330244Y12480798D02*
G01*
X3378098Y12480798D01*
X3378098Y12528651D01*
X3371494Y12525400D01*
X3360216Y12517882D01*
X3350006Y12508890D01*
X3341014Y12498679D01*
X3333496Y12487402D01*
G37*
G36*
X3468776Y12480798D02*
G01*
X3516680Y12480798D01*
X3513429Y12487402D01*
X3505860Y12498679D01*
X3496919Y12508890D01*
X3486658Y12517882D01*
X3475380Y12525400D01*
X3468776Y12528651D01*
G37*
G36*
X4854244Y12480798D02*
G01*
X4902098Y12480798D01*
X4902098Y12528651D01*
X4895494Y12525400D01*
X4884216Y12517882D01*
X4874006Y12508890D01*
X4865014Y12498679D01*
X4857496Y12487402D01*
G37*
G36*
X1430426Y12521793D02*
G01*
X1480515Y12521793D01*
X1479397Y12524282D01*
X1472133Y12536322D01*
X1463344Y12547295D01*
X1453235Y12557099D01*
X1442008Y12565481D01*
X1430426Y12572034D01*
G37*
G36*
X1283766Y12521793D02*
G01*
X1333906Y12521793D01*
X1333906Y12572034D01*
X1322273Y12565481D01*
X1311046Y12557099D01*
X1300937Y12547295D01*
X1292148Y12536322D01*
X1284884Y12524282D01*
G37*
G36*
X5016906Y12785496D02*
G01*
X5020259Y12787071D01*
X5032806Y12794843D01*
X5044287Y12804089D01*
X5054549Y12814655D01*
X5063490Y12826441D01*
X5070906Y12839293D01*
X5016906Y12839293D01*
G37*
G36*
X3492906Y12785496D02*
G01*
X3496259Y12787071D01*
X3508806Y12794843D01*
X3520287Y12804089D01*
X3530549Y12814655D01*
X3539490Y12826441D01*
X3546906Y12839293D01*
X3492906Y12839293D01*
G37*
G36*
X4910226Y12785496D02*
G01*
X4910226Y12839293D01*
X4856226Y12839293D01*
X4863642Y12826441D01*
X4872532Y12814655D01*
X4882794Y12804089D01*
X4894275Y12794843D01*
X4906822Y12787071D01*
G37*
G36*
X3386226Y12785496D02*
G01*
X3386226Y12839293D01*
X3332226Y12839293D01*
X3339642Y12826441D01*
X3348532Y12814655D01*
X3358794Y12804089D01*
X3370275Y12794843D01*
X3382822Y12787071D01*
G37*
G36*
X1483766Y12902336D02*
G01*
X1497380Y12903200D01*
X1510842Y12905892D01*
X1523796Y12910312D01*
X1536039Y12916357D01*
X1547418Y12923926D01*
X1557731Y12932968D01*
X1566773Y12943281D01*
X1574342Y12954660D01*
X1580388Y12966903D01*
X1584807Y12979857D01*
X1587500Y12993319D01*
X1588363Y13006933D01*
X1587500Y13020598D01*
X1584807Y13034060D01*
X1580388Y13047014D01*
X1574342Y13059257D01*
X1566773Y13070636D01*
X1557731Y13080949D01*
X1547418Y13089940D01*
X1536039Y13097560D01*
X1523796Y13103606D01*
X1510842Y13108025D01*
X1497380Y13110667D01*
X1483766Y13111581D01*
X1470101Y13110667D01*
X1456639Y13108025D01*
X1443685Y13103606D01*
X1431442Y13097560D01*
X1420063Y13089940D01*
X1409750Y13080949D01*
X1400759Y13070636D01*
X1393139Y13059257D01*
X1387094Y13047014D01*
X1382674Y13034060D01*
X1380032Y13020598D01*
X1379118Y13006933D01*
X1380032Y12993319D01*
X1382674Y12979857D01*
X1387094Y12966903D01*
X1393139Y12954660D01*
X1400759Y12943281D01*
X1409750Y12932968D01*
X1420063Y12923926D01*
X1431442Y12916357D01*
X1443685Y12910312D01*
X1456639Y12905892D01*
X1470101Y12903200D01*
G37*
G36*
X1166266Y12902336D02*
G01*
X1179880Y12903200D01*
X1193342Y12905892D01*
X1206296Y12910312D01*
X1218539Y12916357D01*
X1229918Y12923926D01*
X1240231Y12932968D01*
X1249273Y12943281D01*
X1256842Y12954660D01*
X1262888Y12966903D01*
X1267307Y12979857D01*
X1270000Y12993319D01*
X1270863Y13006933D01*
X1270000Y13020598D01*
X1267307Y13034060D01*
X1262888Y13047014D01*
X1256842Y13059257D01*
X1249273Y13070636D01*
X1240231Y13080949D01*
X1229918Y13089940D01*
X1218539Y13097560D01*
X1206296Y13103606D01*
X1193342Y13108025D01*
X1179880Y13110667D01*
X1166266Y13111581D01*
X1152601Y13110667D01*
X1139139Y13108025D01*
X1126185Y13103606D01*
X1113942Y13097560D01*
X1102563Y13089940D01*
X1092250Y13080949D01*
X1083259Y13070636D01*
X1075639Y13059257D01*
X1069594Y13047014D01*
X1065174Y13034060D01*
X1062532Y13020598D01*
X1061618Y13006933D01*
X1062532Y12993319D01*
X1065174Y12979857D01*
X1069594Y12966903D01*
X1075639Y12954660D01*
X1083259Y12943281D01*
X1092250Y12932968D01*
X1102563Y12923926D01*
X1113942Y12916357D01*
X1126185Y12910312D01*
X1139139Y12905892D01*
X1152601Y12903200D01*
G37*
G36*
X8316366Y12930276D02*
G01*
X8331708Y12931190D01*
X8346846Y12933984D01*
X8361527Y12938556D01*
X8375599Y12944856D01*
X8388756Y12952831D01*
X8400897Y12962331D01*
X8411768Y12973202D01*
X8421268Y12985343D01*
X8429244Y12998500D01*
X8435543Y13012572D01*
X8440115Y13027253D01*
X8442909Y13042392D01*
X8443823Y13057733D01*
X8442909Y13073126D01*
X8440115Y13088264D01*
X8435543Y13102945D01*
X8429244Y13117017D01*
X8421268Y13130174D01*
X8411768Y13142315D01*
X8400897Y13153186D01*
X8388756Y13162686D01*
X8375599Y13170662D01*
X8361527Y13176961D01*
X8346846Y13181533D01*
X8331708Y13184327D01*
X8316366Y13185241D01*
X8300974Y13184327D01*
X8285835Y13181533D01*
X8271154Y13176961D01*
X8257082Y13170662D01*
X8243925Y13162686D01*
X8231784Y13153186D01*
X8220913Y13142315D01*
X8211413Y13130174D01*
X8203438Y13117017D01*
X8197138Y13102945D01*
X8192566Y13088264D01*
X8189772Y13073126D01*
X8188858Y13057733D01*
X8189772Y13042392D01*
X8192566Y13027253D01*
X8197138Y13012572D01*
X8203438Y12998500D01*
X8211413Y12985343D01*
X8220913Y12973202D01*
X8231784Y12962331D01*
X8243925Y12952831D01*
X8257082Y12944856D01*
X8271154Y12938556D01*
X8285835Y12933984D01*
X8300974Y12931190D01*
G37*
G36*
X3492906Y12945973D02*
G01*
X3546652Y12945973D01*
X3543350Y12952577D01*
X3535222Y12964871D01*
X3525621Y12976098D01*
X3514699Y12986054D01*
X3502660Y12994589D01*
X3492906Y12999821D01*
G37*
G36*
X5016906Y12945973D02*
G01*
X5070652Y12945973D01*
X5067350Y12952577D01*
X5059222Y12964871D01*
X5049621Y12976098D01*
X5038699Y12986054D01*
X5026660Y12994589D01*
X5016906Y12999821D01*
G37*
G36*
X4856429Y12945973D02*
G01*
X4910226Y12945973D01*
X4910226Y12999821D01*
X4900422Y12994589D01*
X4888382Y12986054D01*
X4877511Y12976098D01*
X4867910Y12964871D01*
X4859731Y12952577D01*
G37*
G36*
X3332429Y12945973D02*
G01*
X3386226Y12945973D01*
X3386226Y12999821D01*
X3376422Y12994589D01*
X3364382Y12986054D01*
X3353511Y12976098D01*
X3343910Y12964871D01*
X3335731Y12952577D01*
G37*
G36*
X1166266Y13156336D02*
G01*
X1179880Y13157200D01*
X1193342Y13159892D01*
X1206296Y13164312D01*
X1218539Y13170357D01*
X1229918Y13177926D01*
X1240231Y13186968D01*
X1249273Y13197281D01*
X1256842Y13208660D01*
X1262888Y13220903D01*
X1267307Y13233857D01*
X1270000Y13247319D01*
X1270863Y13260933D01*
X1270000Y13274598D01*
X1267307Y13288060D01*
X1262888Y13301014D01*
X1256842Y13313257D01*
X1249273Y13324636D01*
X1240231Y13334949D01*
X1229918Y13343940D01*
X1218539Y13351560D01*
X1206296Y13357606D01*
X1193342Y13362025D01*
X1179880Y13364667D01*
X1166266Y13365581D01*
X1152601Y13364667D01*
X1139139Y13362025D01*
X1126185Y13357606D01*
X1113942Y13351560D01*
X1102563Y13343940D01*
X1092250Y13334949D01*
X1083259Y13324636D01*
X1075639Y13313257D01*
X1069594Y13301014D01*
X1065174Y13288060D01*
X1062532Y13274598D01*
X1061618Y13260933D01*
X1062532Y13247319D01*
X1065174Y13233857D01*
X1069594Y13220903D01*
X1075639Y13208660D01*
X1083259Y13197281D01*
X1092250Y13186968D01*
X1102563Y13177926D01*
X1113942Y13170357D01*
X1126185Y13164312D01*
X1139139Y13159892D01*
X1152601Y13157200D01*
G37*
G36*
X1483766Y13156336D02*
G01*
X1497380Y13157200D01*
X1510842Y13159892D01*
X1523796Y13164312D01*
X1536039Y13170357D01*
X1547418Y13177926D01*
X1557731Y13186968D01*
X1566773Y13197281D01*
X1574342Y13208660D01*
X1580388Y13220903D01*
X1584807Y13233857D01*
X1587500Y13247319D01*
X1588363Y13260933D01*
X1587500Y13274598D01*
X1584807Y13288060D01*
X1580388Y13301014D01*
X1574342Y13313257D01*
X1566773Y13324636D01*
X1557731Y13334949D01*
X1547418Y13343940D01*
X1536039Y13351560D01*
X1523796Y13357606D01*
X1510842Y13362025D01*
X1497380Y13364667D01*
X1483766Y13365581D01*
X1470101Y13364667D01*
X1456639Y13362025D01*
X1443685Y13357606D01*
X1431442Y13351560D01*
X1420063Y13343940D01*
X1409750Y13334949D01*
X1400759Y13324636D01*
X1393139Y13313257D01*
X1387094Y13301014D01*
X1382674Y13288060D01*
X1380032Y13274598D01*
X1379118Y13260933D01*
X1380032Y13247319D01*
X1382674Y13233857D01*
X1387094Y13220903D01*
X1393139Y13208660D01*
X1400759Y13197281D01*
X1409750Y13186968D01*
X1420063Y13177926D01*
X1431442Y13170357D01*
X1443685Y13164312D01*
X1456639Y13159892D01*
X1470101Y13157200D01*
G37*
G36*
X2673400Y13374065D02*
G01*
X2902254Y13374065D01*
X2908554Y13374776D01*
X2914040Y13376656D01*
X2918917Y13379754D01*
X2923032Y13383869D01*
X2926080Y13388746D01*
X2928010Y13394232D01*
X2928721Y13400532D01*
X2928721Y13629386D01*
X2928010Y13635685D01*
X2926080Y13641171D01*
X2923032Y13646048D01*
X2918917Y13650163D01*
X2914040Y13653262D01*
X2908554Y13655141D01*
X2902254Y13655852D01*
X2673400Y13655852D01*
X2667050Y13655141D01*
X2661615Y13653262D01*
X2656687Y13650163D01*
X2652623Y13646048D01*
X2649524Y13641171D01*
X2647645Y13635685D01*
X2646934Y13629386D01*
X2646934Y13400532D01*
X2647645Y13394232D01*
X2649524Y13388746D01*
X2652623Y13383869D01*
X2656687Y13379754D01*
X2661615Y13376656D01*
X2667050Y13374776D01*
G37*
G36*
X2223973Y13389457D02*
G01*
X2223973Y13451128D01*
X2162505Y13451128D01*
X2165146Y13445693D01*
X2173884Y13432129D01*
X2184044Y13419683D01*
X2195576Y13408456D01*
X2208326Y13398652D01*
X2222093Y13390372D01*
G37*
G36*
X2351684Y13389610D02*
G01*
X2360625Y13394283D01*
X2373884Y13403376D01*
X2386025Y13413943D01*
X2396896Y13425779D01*
X2406345Y13438784D01*
X2413304Y13451128D01*
X2351684Y13451128D01*
G37*
G36*
X1088085Y13410285D02*
G01*
X1244447Y13410285D01*
X1250746Y13410996D01*
X1256182Y13412927D01*
X1261110Y13416026D01*
X1265174Y13420090D01*
X1268272Y13425017D01*
X1270203Y13430453D01*
X1270914Y13436803D01*
X1270914Y13593114D01*
X1270203Y13599464D01*
X1268272Y13604900D01*
X1265174Y13609828D01*
X1261110Y13613892D01*
X1256182Y13616990D01*
X1250746Y13618921D01*
X1244447Y13619632D01*
X1088085Y13619632D01*
X1081735Y13618921D01*
X1076299Y13616990D01*
X1071372Y13613892D01*
X1067308Y13609828D01*
X1064209Y13604900D01*
X1062278Y13599464D01*
X1061567Y13593114D01*
X1061567Y13436803D01*
X1062278Y13430453D01*
X1064209Y13425017D01*
X1067308Y13420090D01*
X1071372Y13416026D01*
X1076299Y13412927D01*
X1081735Y13410996D01*
G37*
G36*
X770585Y13410285D02*
G01*
X926947Y13410285D01*
X933246Y13410996D01*
X938682Y13412927D01*
X943610Y13416026D01*
X947674Y13420090D01*
X950772Y13425017D01*
X952703Y13430453D01*
X953414Y13436803D01*
X953414Y13593114D01*
X952703Y13599464D01*
X950772Y13604900D01*
X947674Y13609828D01*
X943610Y13613892D01*
X938682Y13616990D01*
X933246Y13618921D01*
X926947Y13619632D01*
X770585Y13619632D01*
X764235Y13618921D01*
X758799Y13616990D01*
X753872Y13613892D01*
X749808Y13609828D01*
X746709Y13604900D01*
X744778Y13599464D01*
X744067Y13593114D01*
X744067Y13436803D01*
X744778Y13430453D01*
X746709Y13425017D01*
X749808Y13420090D01*
X753872Y13416026D01*
X758799Y13412927D01*
X764235Y13410996D01*
G37*
G36*
X3274466Y13450976D02*
G01*
X3289808Y13451890D01*
X3304946Y13454684D01*
X3319627Y13459256D01*
X3333699Y13465556D01*
X3346856Y13473531D01*
X3358997Y13483031D01*
X3369868Y13493902D01*
X3379368Y13506043D01*
X3387344Y13519200D01*
X3393643Y13533272D01*
X3398215Y13547953D01*
X3401009Y13563092D01*
X3401923Y13578433D01*
X3401009Y13593826D01*
X3398215Y13608964D01*
X3393643Y13623645D01*
X3387344Y13637717D01*
X3379368Y13650874D01*
X3369868Y13663015D01*
X3358997Y13673886D01*
X3346856Y13683386D01*
X3333699Y13691362D01*
X3319627Y13697661D01*
X3304946Y13702233D01*
X3289808Y13705027D01*
X3274466Y13705941D01*
X3259074Y13705027D01*
X3243935Y13702233D01*
X3229254Y13697661D01*
X3215182Y13691362D01*
X3202025Y13683386D01*
X3189884Y13673886D01*
X3179013Y13663015D01*
X3169513Y13650874D01*
X3161538Y13637717D01*
X3155238Y13623645D01*
X3150666Y13608964D01*
X3147872Y13593826D01*
X3146958Y13578433D01*
X3147872Y13563092D01*
X3150666Y13547953D01*
X3155238Y13533272D01*
X3161538Y13519200D01*
X3169513Y13506043D01*
X3179013Y13493902D01*
X3189884Y13483031D01*
X3202025Y13473531D01*
X3215182Y13465556D01*
X3229254Y13459256D01*
X3243935Y13454684D01*
X3259074Y13451890D01*
G37*
G36*
X7510932Y13552627D02*
G01*
X7524546Y13553998D01*
X7537805Y13557148D01*
X7550505Y13562076D01*
X7562494Y13568629D01*
X7573467Y13576706D01*
X7583271Y13586155D01*
X7591704Y13596874D01*
X7598664Y13608608D01*
X7603998Y13621156D01*
X7607604Y13634313D01*
X7609382Y13647826D01*
X7609382Y13661491D01*
X7607604Y13675004D01*
X7603998Y13688161D01*
X7598664Y13700709D01*
X7591704Y13712444D01*
X7583271Y13723112D01*
X7573467Y13732611D01*
X7562494Y13740688D01*
X7550505Y13747242D01*
X7537805Y13752169D01*
X7524546Y13755319D01*
X7510932Y13756690D01*
X7497318Y13756233D01*
X7483856Y13753947D01*
X7470851Y13749934D01*
X7458506Y13744194D01*
X7446975Y13736828D01*
X7436561Y13728039D01*
X7427417Y13717930D01*
X7419695Y13706703D01*
X7413548Y13694511D01*
X7409078Y13681608D01*
X7406386Y13668248D01*
X7405471Y13654633D01*
X7406386Y13641069D01*
X7409078Y13627709D01*
X7413548Y13614806D01*
X7419695Y13602614D01*
X7427417Y13591387D01*
X7436561Y13581278D01*
X7446975Y13572490D01*
X7458506Y13565124D01*
X7470851Y13559383D01*
X7483856Y13555370D01*
X7497318Y13553084D01*
G37*
G36*
X5249164Y13552627D02*
G01*
X5262727Y13553998D01*
X5275986Y13557148D01*
X5288737Y13562076D01*
X5300675Y13568629D01*
X5311648Y13576706D01*
X5321452Y13586155D01*
X5329936Y13596874D01*
X5336895Y13608608D01*
X5342178Y13621156D01*
X5345785Y13634313D01*
X5347614Y13647826D01*
X5347614Y13661491D01*
X5345785Y13675004D01*
X5342178Y13688161D01*
X5336895Y13700709D01*
X5329936Y13712444D01*
X5321452Y13723112D01*
X5311648Y13732611D01*
X5300675Y13740688D01*
X5288737Y13747242D01*
X5275986Y13752169D01*
X5262727Y13755319D01*
X5249164Y13756690D01*
X5235549Y13756233D01*
X5222087Y13753947D01*
X5209082Y13749934D01*
X5196687Y13744194D01*
X5185206Y13736828D01*
X5174792Y13728039D01*
X5165648Y13717930D01*
X5157927Y13706703D01*
X5151780Y13694511D01*
X5147310Y13681608D01*
X5144566Y13668248D01*
X5143703Y13654633D01*
X5144566Y13641069D01*
X5147310Y13627709D01*
X5151780Y13614806D01*
X5157927Y13602614D01*
X5165648Y13591387D01*
X5174792Y13581278D01*
X5185206Y13572490D01*
X5196687Y13565124D01*
X5209082Y13559383D01*
X5222087Y13555370D01*
X5235549Y13553084D01*
G37*
G36*
X4999177Y13552627D02*
G01*
X5012740Y13553998D01*
X5025999Y13557148D01*
X5038750Y13562076D01*
X5050688Y13568629D01*
X5061661Y13576706D01*
X5071465Y13586155D01*
X5079949Y13596874D01*
X5086858Y13608608D01*
X5092192Y13621156D01*
X5095798Y13634313D01*
X5097627Y13647826D01*
X5097627Y13661491D01*
X5095798Y13675004D01*
X5092192Y13688161D01*
X5086858Y13700709D01*
X5079949Y13712444D01*
X5071465Y13723112D01*
X5061661Y13732611D01*
X5050688Y13740688D01*
X5038750Y13747242D01*
X5025999Y13752169D01*
X5012740Y13755319D01*
X4999177Y13756690D01*
X4985562Y13756233D01*
X4972100Y13753947D01*
X4959096Y13749934D01*
X4946700Y13744194D01*
X4935220Y13736828D01*
X4924806Y13728039D01*
X4915662Y13717930D01*
X4907940Y13706703D01*
X4901793Y13694511D01*
X4897323Y13681608D01*
X4894580Y13668248D01*
X4893665Y13654633D01*
X4894580Y13641069D01*
X4897323Y13627709D01*
X4901793Y13614806D01*
X4907940Y13602614D01*
X4915662Y13591387D01*
X4924806Y13581278D01*
X4935220Y13572490D01*
X4946700Y13565124D01*
X4959096Y13559383D01*
X4972100Y13555370D01*
X4985562Y13553084D01*
G37*
G36*
X6505041Y13552627D02*
G01*
X6518656Y13553998D01*
X6531914Y13557148D01*
X6544614Y13562076D01*
X6556603Y13568629D01*
X6567576Y13576706D01*
X6577380Y13586155D01*
X6585813Y13596874D01*
X6592773Y13608608D01*
X6598107Y13621156D01*
X6601714Y13634313D01*
X6603492Y13647826D01*
X6603492Y13661491D01*
X6601714Y13675004D01*
X6598107Y13688161D01*
X6592773Y13700709D01*
X6585813Y13712444D01*
X6577380Y13723112D01*
X6567576Y13732611D01*
X6556603Y13740688D01*
X6544614Y13747242D01*
X6531914Y13752169D01*
X6518656Y13755319D01*
X6505041Y13756690D01*
X6491427Y13756233D01*
X6477965Y13753947D01*
X6464960Y13749934D01*
X6452616Y13744194D01*
X6441084Y13736828D01*
X6430670Y13728039D01*
X6421526Y13717930D01*
X6413804Y13706703D01*
X6407658Y13694511D01*
X6403187Y13681608D01*
X6400495Y13668248D01*
X6399580Y13654633D01*
X6400495Y13641069D01*
X6403187Y13627709D01*
X6407658Y13614806D01*
X6413804Y13602614D01*
X6421526Y13591387D01*
X6430670Y13581278D01*
X6441084Y13572490D01*
X6452616Y13565124D01*
X6464960Y13559383D01*
X6477965Y13555370D01*
X6491427Y13553084D01*
G37*
G36*
X7760970Y13552627D02*
G01*
X7774533Y13553998D01*
X7787792Y13557148D01*
X7800492Y13562076D01*
X7812481Y13568629D01*
X7823453Y13576706D01*
X7833258Y13586155D01*
X7841691Y13596874D01*
X7848650Y13608608D01*
X7853984Y13621156D01*
X7857591Y13634313D01*
X7859420Y13647826D01*
X7859420Y13661491D01*
X7857591Y13675004D01*
X7853984Y13688161D01*
X7848650Y13700709D01*
X7841691Y13712444D01*
X7833258Y13723112D01*
X7823453Y13732611D01*
X7812481Y13740688D01*
X7800492Y13747242D01*
X7787792Y13752169D01*
X7774533Y13755319D01*
X7760970Y13756690D01*
X7747304Y13756233D01*
X7733893Y13753947D01*
X7720838Y13749934D01*
X7708493Y13744194D01*
X7697012Y13736828D01*
X7686598Y13728039D01*
X7677403Y13717930D01*
X7669733Y13706703D01*
X7663535Y13694511D01*
X7659065Y13681608D01*
X7656372Y13668248D01*
X7655458Y13654633D01*
X7656372Y13641069D01*
X7659065Y13627709D01*
X7663535Y13614806D01*
X7669733Y13602614D01*
X7677403Y13591387D01*
X7686598Y13581278D01*
X7697012Y13572490D01*
X7708493Y13565124D01*
X7720838Y13559383D01*
X7733893Y13555370D01*
X7747304Y13553084D01*
G37*
G36*
X6255054Y13552627D02*
G01*
X6268618Y13553998D01*
X6281877Y13557148D01*
X6294628Y13562076D01*
X6306566Y13568629D01*
X6317538Y13576706D01*
X6327343Y13586155D01*
X6335826Y13596874D01*
X6342786Y13608608D01*
X6348069Y13621156D01*
X6351676Y13634313D01*
X6353505Y13647826D01*
X6353505Y13661491D01*
X6351676Y13675004D01*
X6348069Y13688161D01*
X6342786Y13700709D01*
X6335826Y13712444D01*
X6327343Y13723112D01*
X6317538Y13732611D01*
X6306566Y13740688D01*
X6294628Y13747242D01*
X6281877Y13752169D01*
X6268618Y13755319D01*
X6255054Y13756690D01*
X6241440Y13756233D01*
X6227978Y13753947D01*
X6214973Y13749934D01*
X6202578Y13744194D01*
X6191097Y13736828D01*
X6180683Y13728039D01*
X6171539Y13717930D01*
X6163818Y13706703D01*
X6157671Y13694511D01*
X6153200Y13681608D01*
X6150457Y13668248D01*
X6149594Y13654633D01*
X6150457Y13641069D01*
X6153200Y13627709D01*
X6157671Y13614806D01*
X6163818Y13602614D01*
X6171539Y13591387D01*
X6180683Y13581278D01*
X6191097Y13572490D01*
X6202578Y13565124D01*
X6214973Y13559383D01*
X6227978Y13555370D01*
X6241440Y13553084D01*
G37*
G36*
X5540248Y13562888D02*
G01*
X5550712Y13568629D01*
X5561685Y13576706D01*
X5571490Y13586155D01*
X5579922Y13596874D01*
X5586882Y13608608D01*
X5587542Y13610183D01*
X5540248Y13610183D01*
G37*
G36*
X6796125Y13562888D02*
G01*
X6806590Y13568629D01*
X6817563Y13576706D01*
X6827367Y13586155D01*
X6835851Y13596874D01*
X6842759Y13608608D01*
X6843471Y13610183D01*
X6796125Y13610183D01*
G37*
G36*
X4284319Y13562888D02*
G01*
X4294835Y13568629D01*
X4305808Y13576706D01*
X4315612Y13586155D01*
X4324045Y13596874D01*
X4331004Y13608608D01*
X4331665Y13610183D01*
X4284319Y13610183D01*
G37*
G36*
X8052003Y13562888D02*
G01*
X8062468Y13568629D01*
X8073440Y13576706D01*
X8083245Y13586155D01*
X8091728Y13596874D01*
X8098688Y13608608D01*
X8099348Y13610183D01*
X8052003Y13610183D01*
G37*
G36*
X6707225Y13562990D02*
G01*
X6707225Y13610183D01*
X6659981Y13610183D01*
X6663842Y13602614D01*
X6671564Y13591387D01*
X6680708Y13581278D01*
X6691122Y13572490D01*
X6702602Y13565124D01*
G37*
G36*
X5451348Y13562990D02*
G01*
X5451348Y13610183D01*
X5404104Y13610183D01*
X5407964Y13602614D01*
X5415635Y13591387D01*
X5424830Y13581278D01*
X5435244Y13572490D01*
X5446725Y13565124D01*
G37*
G36*
X4195419Y13562990D02*
G01*
X4195419Y13610183D01*
X4148226Y13610183D01*
X4152036Y13602614D01*
X4159758Y13591387D01*
X4168901Y13581278D01*
X4179315Y13572490D01*
X4190847Y13565124D01*
G37*
G36*
X7963103Y13562990D02*
G01*
X7963103Y13610183D01*
X7915909Y13610183D01*
X7919720Y13602614D01*
X7927441Y13591387D01*
X7936585Y13581278D01*
X7946999Y13572490D01*
X7958480Y13565124D01*
G37*
G36*
X2162505Y13578789D02*
G01*
X2223973Y13578789D01*
X2223973Y13640409D01*
X2222093Y13639546D01*
X2208326Y13631265D01*
X2195576Y13621410D01*
X2184044Y13610234D01*
X2173884Y13597788D01*
X2165146Y13584224D01*
G37*
G36*
X2351684Y13578789D02*
G01*
X2413304Y13578789D01*
X2406345Y13591133D01*
X2396896Y13604138D01*
X2386025Y13615974D01*
X2373884Y13626541D01*
X2360625Y13635583D01*
X2351684Y13640307D01*
G37*
G36*
X1120495Y13675106D02*
G01*
X1120495Y13723213D01*
X1072388Y13723213D01*
X1075639Y13716660D01*
X1083208Y13705281D01*
X1092250Y13694968D01*
X1102563Y13685926D01*
X1113942Y13678357D01*
G37*
G36*
X1437995Y13675106D02*
G01*
X1437995Y13723213D01*
X1389888Y13723213D01*
X1393139Y13716660D01*
X1400708Y13705281D01*
X1409750Y13694968D01*
X1420063Y13685926D01*
X1431442Y13678357D01*
G37*
G36*
X894486Y13675106D02*
G01*
X901039Y13678357D01*
X912418Y13685926D01*
X922731Y13694968D01*
X931773Y13705281D01*
X939342Y13716660D01*
X942594Y13723213D01*
X894486Y13723213D01*
G37*
G36*
X802995Y13675106D02*
G01*
X802995Y13723213D01*
X754888Y13723213D01*
X758139Y13716660D01*
X765708Y13705281D01*
X774750Y13694968D01*
X785063Y13685926D01*
X796442Y13678357D01*
G37*
G36*
X1211986Y13675106D02*
G01*
X1218539Y13678357D01*
X1229918Y13685926D01*
X1240231Y13694968D01*
X1249273Y13705281D01*
X1256842Y13716660D01*
X1260094Y13723213D01*
X1211986Y13723213D01*
G37*
G36*
X1529486Y13675106D02*
G01*
X1536039Y13678357D01*
X1547418Y13685926D01*
X1557731Y13694968D01*
X1566773Y13705281D01*
X1574342Y13716660D01*
X1577594Y13723213D01*
X1529486Y13723213D01*
G37*
G36*
X6659981Y13699083D02*
G01*
X6707225Y13699083D01*
X6707225Y13746327D01*
X6702602Y13744194D01*
X6691122Y13736828D01*
X6680708Y13728039D01*
X6671564Y13717930D01*
X6663842Y13706703D01*
G37*
G36*
X7915909Y13699083D02*
G01*
X7963103Y13699083D01*
X7963103Y13746327D01*
X7958480Y13744194D01*
X7946999Y13736828D01*
X7936585Y13728039D01*
X7927441Y13717930D01*
X7919720Y13706703D01*
G37*
G36*
X5404104Y13699083D02*
G01*
X5451348Y13699083D01*
X5451348Y13746327D01*
X5446725Y13744194D01*
X5435244Y13736828D01*
X5424830Y13728039D01*
X5415635Y13717930D01*
X5407964Y13706703D01*
G37*
G36*
X4148226Y13699083D02*
G01*
X4195419Y13699083D01*
X4195419Y13746327D01*
X4190847Y13744194D01*
X4179315Y13736828D01*
X4168901Y13728039D01*
X4159758Y13717930D01*
X4152036Y13706703D01*
G37*
G36*
X5540248Y13699083D02*
G01*
X5587542Y13699083D01*
X5586882Y13700709D01*
X5579922Y13712444D01*
X5571490Y13723112D01*
X5561685Y13732611D01*
X5550712Y13740688D01*
X5540248Y13746429D01*
G37*
G36*
X4284319Y13699083D02*
G01*
X4331665Y13699083D01*
X4331004Y13700709D01*
X4324045Y13712444D01*
X4315612Y13723112D01*
X4305808Y13732611D01*
X4294835Y13740688D01*
X4284319Y13746429D01*
G37*
G36*
X6796125Y13699083D02*
G01*
X6843471Y13699083D01*
X6842759Y13700709D01*
X6835851Y13712444D01*
X6827367Y13723112D01*
X6817563Y13732611D01*
X6806590Y13740688D01*
X6796125Y13746429D01*
G37*
G36*
X8052003Y13699083D02*
G01*
X8099348Y13699083D01*
X8098688Y13700709D01*
X8091728Y13712444D01*
X8083245Y13723112D01*
X8073440Y13732611D01*
X8062468Y13740688D01*
X8052003Y13746429D01*
G37*
G36*
X1389888Y13814704D02*
G01*
X1437995Y13814704D01*
X1437995Y13862812D01*
X1431442Y13859560D01*
X1420063Y13851991D01*
X1409750Y13842949D01*
X1400708Y13832636D01*
X1393139Y13821257D01*
G37*
G36*
X894486Y13814704D02*
G01*
X942594Y13814704D01*
X939342Y13821257D01*
X931773Y13832636D01*
X922731Y13842949D01*
X912418Y13851991D01*
X901039Y13859560D01*
X894486Y13862812D01*
G37*
G36*
X1072388Y13814704D02*
G01*
X1120495Y13814704D01*
X1120495Y13862812D01*
X1113942Y13859560D01*
X1102563Y13851991D01*
X1092250Y13842949D01*
X1083208Y13832636D01*
X1075639Y13821257D01*
G37*
G36*
X1211986Y13814704D02*
G01*
X1260094Y13814704D01*
X1256842Y13821257D01*
X1249273Y13832636D01*
X1240231Y13842949D01*
X1229918Y13851991D01*
X1218539Y13859560D01*
X1211986Y13862812D01*
G37*
G36*
X1529486Y13814704D02*
G01*
X1577594Y13814704D01*
X1574342Y13821257D01*
X1566773Y13832636D01*
X1557731Y13842949D01*
X1547418Y13851991D01*
X1536039Y13859560D01*
X1529486Y13862812D01*
G37*
G36*
X754888Y13814704D02*
G01*
X802995Y13814704D01*
X802995Y13862812D01*
X796442Y13859560D01*
X785063Y13851991D01*
X774750Y13842949D01*
X765708Y13832636D01*
X758139Y13821257D01*
G37*

%LPD*%
D10*
X4239895Y8727059D02*
G01*
X3784396Y9182557D01*
X912240Y10479659D02*
G01*
X1010310Y10577728D01*
X1010310Y11321389D01*
X874140Y11457559D01*
X848740Y13006959D02*
G01*
X761542Y12919760D01*
X761542Y11570157D01*
X874140Y11457559D01*
X5979540Y12892659D02*
G01*
X5963437Y12876555D01*
X5963437Y12435459D01*
X4709540Y12892659D02*
G01*
X4693437Y12876555D01*
X4693437Y12435459D01*
X3680840Y9450959D02*
G01*
X3677437Y9454362D01*
X3677437Y9892461D01*
X3934840Y9450959D02*
G01*
X3931437Y9454362D01*
X3931437Y9892461D01*
X4188840Y9450959D02*
G01*
X4185437Y9454362D01*
X4185437Y9892461D01*
X4442840Y9450959D02*
G01*
X4439437Y9454362D01*
X4439437Y9892461D01*
X4696840Y9450959D02*
G01*
X4693437Y9454362D01*
X4693437Y9892461D01*
X4950840Y9450959D02*
G01*
X4947437Y9454362D01*
X4947437Y9892461D01*
X5204840Y9450959D02*
G01*
X5201437Y9454362D01*
X5201437Y9892461D01*
X5458840Y9450959D02*
G01*
X5455437Y9454362D01*
X5455437Y9892461D01*
X5712840Y9450959D02*
G01*
X5709437Y9454362D01*
X5709437Y9892461D01*
X5966840Y9450959D02*
G01*
X5963437Y9454362D01*
X5963437Y9892461D01*
X6220840Y9450959D02*
G01*
X6217437Y9454362D01*
X6217437Y9892461D01*
X6474840Y9450959D02*
G01*
X6471437Y9454362D01*
X6471437Y9892461D01*
X6982840Y9450959D02*
G01*
X6979437Y9454362D01*
X6979437Y9892461D01*
X7236840Y9450959D02*
G01*
X7233437Y9454362D01*
X7233437Y9892461D01*
X7490840Y9450959D02*
G01*
X7487437Y9454362D01*
X7487437Y9892461D01*
X7744840Y9450959D02*
G01*
X7744840Y9889058D01*
X7741437Y9892461D01*
X4201540Y12892659D02*
G01*
X4185437Y12876555D01*
X4185437Y12435459D01*
X4455540Y12892659D02*
G01*
X4439437Y12876555D01*
X4439437Y12435459D01*
X5217540Y12892659D02*
G01*
X5201437Y12876555D01*
X5201437Y12435459D01*
X5471540Y12892659D02*
G01*
X5455437Y12876555D01*
X5455437Y12435459D01*
X5725540Y12892659D02*
G01*
X5709437Y12876555D01*
X5709437Y12435459D01*
X6487540Y12892659D02*
G01*
X6471437Y12876555D01*
X6471437Y12435459D01*
X6741540Y12892659D02*
G01*
X6725437Y12876555D01*
X6725437Y12435459D01*
X6995540Y12892659D02*
G01*
X6979437Y12876555D01*
X6979437Y12435459D01*
X7249540Y12892659D02*
G01*
X7233437Y12876555D01*
X7233437Y12435459D01*
X7503540Y12892659D02*
G01*
X7487437Y12876555D01*
X7487437Y12435459D01*
X7757540Y12892659D02*
G01*
X7741437Y12876555D01*
X7741437Y12435459D01*
X8011540Y12892659D02*
G01*
X7995437Y12876555D01*
X7995437Y12435459D01*
X2144140Y11345824D02*
G01*
X2859150Y10630814D01*
X2859150Y9467469D01*
X2715640Y9323959D01*
X2144140Y11457559D02*
G01*
X2144140Y11345824D01*
X1890140Y11457559D02*
G01*
X1890140Y10403459D01*
X2715640Y9577959D01*
X3426840Y9450959D02*
G01*
X3423437Y9454362D01*
X3423437Y9892461D01*
X2677896Y12346228D02*
G01*
X3091713Y12760045D01*
X3091713Y13006501D01*
X3739870Y13654659D01*
X3423437Y9892461D02*
G01*
X3423437Y11600662D01*
X2677896Y12346228D01*
X2677896Y12346228D02*
G01*
X2207640Y12816459D01*
X3677437Y12435459D02*
G01*
X3677437Y12876555D01*
X3693540Y12892659D01*
X3693540Y12892659D02*
G01*
X3989857Y13188975D01*
X3989857Y13654659D01*
X6233540Y12892659D02*
G01*
X6217437Y12876555D01*
X6217437Y12435459D01*
X3947540Y12892659D02*
G01*
X3931437Y12876555D01*
X3931437Y12435459D01*
X912240Y10225659D02*
G01*
X1128140Y10441559D01*
X1128140Y11457559D01*
X1128140Y11457559D02*
G01*
X995908Y11589791D01*
X995908Y13113791D01*
X848740Y13260959D01*
X7995437Y9892461D02*
G01*
X7995437Y9786543D01*
X7995437Y9786543D02*
G01*
X7998840Y9783140D01*
X7998840Y9450959D01*
X7998840Y9450959D02*
G01*
X7998840Y9072448D01*
X7757566Y8831173D01*
X2715640Y8815959D02*
G01*
X2822295Y8815959D01*
X3989908Y8727059D02*
G01*
X3885793Y8727059D01*
X7757566Y8727059D02*
G01*
X7757566Y8779129D01*
X7757566Y8779129D02*
G01*
X7757566Y8831173D01*
X7757566Y8779129D02*
G01*
X7593584Y8615146D01*
X6691680Y8615146D01*
X6605803Y8701024D01*
X6605803Y8727059D01*
X6553758Y8727059D02*
G01*
X6520662Y8727059D01*
X6501688Y8727059D02*
G01*
X6520662Y8727059D01*
X6553758Y8727059D02*
G01*
X6605803Y8727059D01*
X6520662Y8727059D02*
G01*
X6408750Y8615146D01*
X5435777Y8615146D01*
X5349900Y8701024D01*
X5349900Y8727059D01*
X5297855Y8727059D02*
G01*
X5264759Y8727059D01*
X5245785Y8727059D02*
G01*
X5264759Y8727059D01*
X5297855Y8727059D02*
G01*
X5349900Y8727059D01*
X5264759Y8727059D02*
G01*
X5152847Y8615146D01*
X4179900Y8615146D01*
X4094022Y8701024D01*
X4094022Y8727059D01*
X3989908Y8727059D02*
G01*
X4094022Y8727059D01*
X2908985Y8815959D02*
G01*
X2908985Y11389817D01*
X2866643Y11432159D01*
X2822295Y8815959D02*
G01*
X2908985Y8815959D01*
X2908985Y8815959D02*
G01*
X3109798Y8615146D01*
X3799916Y8615146D01*
X3885793Y8701024D01*
X3885793Y8727059D01*
X1590395Y13514959D02*
G01*
X1748764Y13356589D01*
X1748764Y11681917D01*
X1636140Y11569293D01*
X1483715Y13514959D02*
G01*
X1590395Y13514959D01*
X1636140Y11457559D02*
G01*
X1636140Y11569293D01*
X2753740Y11432159D02*
G01*
X2810205Y11432159D01*
X2810205Y11432159D02*
G01*
X2866643Y11432159D01*
X2810205Y11432159D02*
G01*
X2753740Y11488623D01*
X2753740Y11736959D01*
X2753740Y12041759D02*
G01*
X2753740Y11736959D01*
D11*
G01*
X2499740Y11736959D03*
D12*
G01*
X2753740Y11736959D03*
D11*
G01*
X2499740Y12041759D03*
D12*
G01*
X2753740Y12041759D03*
D11*
G01*
X2499740Y11432159D03*
D12*
G01*
X2753740Y11432159D03*
D13*
G01*
X2287854Y13514959D03*
D14*
G01*
X2787827Y13514959D03*
D15*
G01*
X3739895Y8727059D03*
D16*
G01*
X3989908Y8727059D03*
D15*
G01*
X4239895Y8727059D03*
G01*
X4995773Y8727059D03*
D16*
G01*
X5245785Y8727059D03*
D15*
G01*
X5495772Y8727059D03*
G01*
X6251676Y8727059D03*
D16*
G01*
X6501688Y8727059D03*
D15*
G01*
X6751675Y8727059D03*
G01*
X7507554Y8727059D03*
D16*
G01*
X7757566Y8727059D03*
D15*
G01*
X8007553Y8727059D03*
G01*
X4239895Y13654659D03*
G01*
X3989857Y13654659D03*
G01*
X3739870Y13654659D03*
G01*
X5495772Y13654659D03*
G01*
X5245734Y13654659D03*
G01*
X4995748Y13654659D03*
G01*
X6751675Y13654659D03*
G01*
X6501638Y13654659D03*
G01*
X6251651Y13654659D03*
G01*
X8007553Y13654659D03*
G01*
X7757515Y13654659D03*
G01*
X7507528Y13654659D03*
D17*
G01*
X1483740Y13768959D03*
D18*
G01*
X1483715Y13514959D03*
D19*
G01*
X1483740Y13260959D03*
G01*
X1483740Y13006959D03*
D20*
G01*
X2715640Y8815959D03*
D19*
G01*
X2715640Y9069959D03*
G01*
X2715640Y9323959D03*
G01*
X2715640Y9577959D03*
D21*
G01*
X2144140Y11457559D03*
D22*
G01*
X1890140Y11457559D03*
D21*
G01*
X1636140Y11457559D03*
D22*
G01*
X1382140Y11457559D03*
G01*
X1128140Y11457559D03*
G01*
X874140Y11457559D03*
D21*
G01*
X2144140Y12473559D03*
D22*
G01*
X1890140Y12473559D03*
G01*
X1636140Y12473559D03*
G01*
X1382140Y12473559D03*
G01*
X1128140Y12473559D03*
G01*
X874140Y12473559D03*
D23*
G01*
X2969640Y12816459D03*
G01*
X2207640Y12816459D03*
D17*
G01*
X1166240Y13768959D03*
D18*
G01*
X1166240Y13514959D03*
D19*
G01*
X1166240Y13260959D03*
G01*
X1166240Y13006959D03*
D17*
G01*
X848740Y13768959D03*
D18*
G01*
X848740Y13514959D03*
D19*
G01*
X848740Y13260959D03*
G01*
X848740Y13006959D03*
D24*
G01*
X3423437Y9892461D03*
D25*
G01*
X3677437Y9892461D03*
G01*
X3931437Y9892461D03*
G01*
X4185437Y9892461D03*
G01*
X4439437Y9892461D03*
G01*
X4693437Y9892461D03*
G01*
X4947437Y9892461D03*
G01*
X5201437Y9892461D03*
G01*
X5455437Y9892461D03*
G01*
X5709437Y9892461D03*
G01*
X5963437Y9892461D03*
G01*
X6217437Y9892461D03*
G01*
X6471437Y9892461D03*
G01*
X6725437Y9892461D03*
G01*
X6979437Y9892461D03*
G01*
X7233437Y9892461D03*
G01*
X7487437Y9892461D03*
G01*
X7741437Y9892461D03*
D24*
G01*
X7995437Y9892461D03*
D25*
G01*
X3423437Y12435459D03*
G01*
X3677437Y12435459D03*
G01*
X3931437Y12435459D03*
G01*
X4185437Y12435459D03*
G01*
X4439437Y12435459D03*
G01*
X4693437Y12435459D03*
G01*
X4947437Y12435459D03*
G01*
X5201437Y12435459D03*
G01*
X5455437Y12435459D03*
G01*
X5709437Y12435459D03*
G01*
X5963437Y12435459D03*
G01*
X6217437Y12435459D03*
G01*
X6471437Y12435459D03*
G01*
X6725437Y12435459D03*
G01*
X6979437Y12435459D03*
G01*
X7233437Y12435459D03*
G01*
X7487437Y12435459D03*
G01*
X7741437Y12435459D03*
G01*
X7995437Y12435459D03*
D23*
G01*
X8011540Y12892659D03*
G01*
X7757540Y12892659D03*
G01*
X7503540Y12892659D03*
G01*
X7249540Y12892659D03*
G01*
X6995540Y12892659D03*
G01*
X6741540Y12892659D03*
G01*
X6487540Y12892659D03*
G01*
X6233540Y12892659D03*
G01*
X5979540Y12892659D03*
G01*
X5725540Y12892659D03*
G01*
X5471540Y12892659D03*
G01*
X5217540Y12892659D03*
G01*
X4963540Y12892659D03*
G01*
X4709540Y12892659D03*
G01*
X4455540Y12892659D03*
G01*
X4201540Y12892659D03*
G01*
X3947540Y12892659D03*
G01*
X3693540Y12892659D03*
G01*
X3439540Y12892659D03*
D26*
G01*
X912240Y10987659D03*
D27*
G01*
X912240Y10733659D03*
G01*
X912240Y10479659D03*
G01*
X912240Y10225659D03*
G01*
X912240Y9971659D03*
G01*
X912240Y9717659D03*
G01*
X912240Y9463659D03*
G01*
X912240Y9209659D03*
G01*
X912240Y8955659D03*
G01*
X912240Y8701659D03*
D28*
G01*
X7998840Y9450959D03*
D23*
G01*
X7744840Y9450959D03*
G01*
X7490840Y9450959D03*
G01*
X7236840Y9450959D03*
G01*
X6982840Y9450959D03*
G01*
X6728840Y9450959D03*
G01*
X6474840Y9450959D03*
G01*
X6220840Y9450959D03*
G01*
X5966840Y9450959D03*
G01*
X5712840Y9450959D03*
G01*
X5458840Y9450959D03*
G01*
X5204840Y9450959D03*
G01*
X4950840Y9450959D03*
G01*
X4696840Y9450959D03*
G01*
X4442840Y9450959D03*
G01*
X4188840Y9450959D03*
G01*
X3934840Y9450959D03*
G01*
X3680840Y9450959D03*
G01*
X3426840Y9450959D03*
D29*
G01*
X3784396Y9182557D03*
M02*
