G04 Layer: TopSilkscreenLayer*
G04 EasyEDA v6.5.23, 2023-06-08 09:20:47*
G04 55327712f0a3441bad1e631ee7ba6bcd,133cb59a28494424a397ab70695d2c60,10*
G04 Gerber Generator version 0.2*
G04 Scale: 100 percent, Rotated: No, Reflected: No *
G04 Dimensions in millimeters *
G04 leading zeros omitted , absolute positions ,4 integer and 5 decimal *
%FSLAX45Y45*%
%MOMM*%

%ADD10C,0.1000*%
%ADD11C,0.1524*%
%ADD12C,0.0610*%
%ADD13C,0.2030*%
%ADD14C,0.2032*%
%ADD15C,0.2540*%
%ADD16C,0.1270*%
%ADD17C,0.0193*%

%LPD*%
D10*
X1686943Y12841094D02*
G01*
X1686943Y12745590D01*
X1721487Y12818488D02*
G01*
X1721487Y12823060D01*
X1726059Y12831950D01*
X1730631Y12836522D01*
X1739775Y12841094D01*
X1757809Y12841094D01*
X1766953Y12836522D01*
X1771525Y12831950D01*
X1776097Y12823060D01*
X1776097Y12813916D01*
X1771525Y12804772D01*
X1762381Y12791056D01*
X1716915Y12745590D01*
X1780669Y12745590D01*
X1878713Y12818488D02*
G01*
X1874141Y12827632D01*
X1865251Y12836522D01*
X1856107Y12841094D01*
X1837819Y12841094D01*
X1828675Y12836522D01*
X1819785Y12827632D01*
X1815213Y12818488D01*
X1810641Y12804772D01*
X1810641Y12782166D01*
X1815213Y12768450D01*
X1819785Y12759306D01*
X1828675Y12750162D01*
X1837819Y12745590D01*
X1856107Y12745590D01*
X1865251Y12750162D01*
X1874141Y12759306D01*
X1878713Y12768450D01*
X1729615Y13809088D02*
G01*
X1725297Y13818232D01*
X1716153Y13827122D01*
X1707009Y13831694D01*
X1688721Y13831694D01*
X1679831Y13827122D01*
X1670687Y13818232D01*
X1666115Y13809088D01*
X1661543Y13795372D01*
X1661543Y13772766D01*
X1666115Y13759050D01*
X1670687Y13749906D01*
X1679831Y13740762D01*
X1688721Y13736190D01*
X1707009Y13736190D01*
X1716153Y13740762D01*
X1725297Y13749906D01*
X1729615Y13759050D01*
X1729615Y13772766D01*
X1707009Y13772766D02*
G01*
X1729615Y13772766D01*
X1759841Y13831694D02*
G01*
X1759841Y13736190D01*
X1759841Y13831694D02*
G01*
X1823341Y13736190D01*
X1823341Y13831694D02*
G01*
X1823341Y13736190D01*
X1853313Y13831694D02*
G01*
X1853313Y13736190D01*
X1853313Y13831694D02*
G01*
X1885063Y13831694D01*
X1898779Y13827122D01*
X1907923Y13818232D01*
X1912495Y13809088D01*
X1917067Y13795372D01*
X1917067Y13772766D01*
X1912495Y13759050D01*
X1907923Y13749906D01*
X1898779Y13740762D01*
X1885063Y13736190D01*
X1853313Y13736190D01*
X1702437Y13551532D02*
G01*
X1702437Y13469490D01*
X1661543Y13510638D02*
G01*
X1743331Y13510638D01*
X1827913Y13564994D02*
G01*
X1782447Y13564994D01*
X1777875Y13524100D01*
X1782447Y13528672D01*
X1796163Y13533244D01*
X1809625Y13533244D01*
X1823341Y13528672D01*
X1832485Y13519528D01*
X1837057Y13506066D01*
X1837057Y13496922D01*
X1832485Y13483206D01*
X1823341Y13474062D01*
X1809625Y13469490D01*
X1796163Y13469490D01*
X1782447Y13474062D01*
X1777875Y13478634D01*
X1773303Y13487778D01*
X1867029Y13533244D02*
G01*
X1894207Y13469490D01*
X1921639Y13533244D02*
G01*
X1894207Y13469490D01*
X1725297Y13310232D02*
G01*
X1716153Y13319122D01*
X1702437Y13323694D01*
X1684149Y13323694D01*
X1670687Y13319122D01*
X1661543Y13310232D01*
X1661543Y13301088D01*
X1666115Y13291944D01*
X1670687Y13287372D01*
X1679831Y13282800D01*
X1707009Y13273656D01*
X1716153Y13269338D01*
X1720725Y13264766D01*
X1725297Y13255622D01*
X1725297Y13241906D01*
X1716153Y13232762D01*
X1702437Y13228190D01*
X1684149Y13228190D01*
X1670687Y13232762D01*
X1661543Y13241906D01*
X1755269Y13323694D02*
G01*
X1755269Y13228190D01*
X1755269Y13323694D02*
G01*
X1787019Y13323694D01*
X1800735Y13319122D01*
X1809625Y13310232D01*
X1814197Y13301088D01*
X1818769Y13287372D01*
X1818769Y13264766D01*
X1814197Y13251050D01*
X1809625Y13241906D01*
X1800735Y13232762D01*
X1787019Y13228190D01*
X1755269Y13228190D01*
X1885063Y13323694D02*
G01*
X1848741Y13228190D01*
X1885063Y13323694D02*
G01*
X1921639Y13228190D01*
X1862457Y13260194D02*
G01*
X1907923Y13260194D01*
X1725297Y13043532D02*
G01*
X1716153Y13052422D01*
X1702437Y13056994D01*
X1684149Y13056994D01*
X1670687Y13052422D01*
X1661543Y13043532D01*
X1661543Y13034388D01*
X1666115Y13025244D01*
X1670687Y13020672D01*
X1679831Y13016100D01*
X1707009Y13006956D01*
X1716153Y13002638D01*
X1720725Y12998066D01*
X1725297Y12988922D01*
X1725297Y12975206D01*
X1716153Y12966062D01*
X1702437Y12961490D01*
X1684149Y12961490D01*
X1670687Y12966062D01*
X1661543Y12975206D01*
X1823341Y13034388D02*
G01*
X1818769Y13043532D01*
X1809625Y13052422D01*
X1800735Y13056994D01*
X1782447Y13056994D01*
X1773303Y13052422D01*
X1764159Y13043532D01*
X1759841Y13034388D01*
X1755269Y13020672D01*
X1755269Y12998066D01*
X1759841Y12984350D01*
X1764159Y12975206D01*
X1773303Y12966062D01*
X1782447Y12961490D01*
X1800735Y12961490D01*
X1809625Y12966062D01*
X1818769Y12975206D01*
X1823341Y12984350D01*
X1853313Y13056994D02*
G01*
X1853313Y12961490D01*
X1853313Y12961490D02*
G01*
X1907923Y12961490D01*
X2961515Y9093154D02*
G01*
X2957197Y9102298D01*
X2948053Y9111188D01*
X2938909Y9115760D01*
X2920621Y9115760D01*
X2911731Y9111188D01*
X2902587Y9102298D01*
X2898015Y9093154D01*
X2893443Y9079438D01*
X2893443Y9056832D01*
X2898015Y9043116D01*
X2902587Y9033972D01*
X2911731Y9024828D01*
X2920621Y9020256D01*
X2938909Y9020256D01*
X2948053Y9024828D01*
X2957197Y9033972D01*
X2961515Y9043116D01*
X2961515Y9056832D01*
X2938909Y9056832D02*
G01*
X2961515Y9056832D01*
X2991741Y9115760D02*
G01*
X2991741Y9020256D01*
X2991741Y9115760D02*
G01*
X3055241Y9020256D01*
X3055241Y9115760D02*
G01*
X3055241Y9020256D01*
X3085213Y9115760D02*
G01*
X3085213Y9020256D01*
X3085213Y9115760D02*
G01*
X3116963Y9115760D01*
X3130679Y9111188D01*
X3139823Y9102298D01*
X3144395Y9093154D01*
X3148967Y9079438D01*
X3148967Y9056832D01*
X3144395Y9043116D01*
X3139823Y9033972D01*
X3130679Y9024828D01*
X3116963Y9020256D01*
X3085213Y9020256D01*
X2934337Y8852532D02*
G01*
X2934337Y8770490D01*
X2893443Y8811638D02*
G01*
X2975231Y8811638D01*
X3059813Y8865994D02*
G01*
X3014347Y8865994D01*
X3009775Y8825100D01*
X3014347Y8829672D01*
X3028063Y8834244D01*
X3041525Y8834244D01*
X3055241Y8829672D01*
X3064385Y8820528D01*
X3068957Y8807066D01*
X3068957Y8797922D01*
X3064385Y8784206D01*
X3055241Y8775062D01*
X3041525Y8770490D01*
X3028063Y8770490D01*
X3014347Y8775062D01*
X3009775Y8779634D01*
X3005203Y8788778D01*
X3098929Y8834244D02*
G01*
X3126107Y8770490D01*
X3153539Y8834244D02*
G01*
X3126107Y8770490D01*
X2893443Y9615294D02*
G01*
X2893443Y9519790D01*
X2893443Y9615294D02*
G01*
X2934337Y9615294D01*
X2948053Y9610722D01*
X2952625Y9606150D01*
X2957197Y9597260D01*
X2957197Y9588116D01*
X2952625Y9578972D01*
X2948053Y9574400D01*
X2934337Y9569828D01*
X2893443Y9569828D01*
X2925193Y9569828D02*
G01*
X2957197Y9519790D01*
X2987169Y9615294D02*
G01*
X3050669Y9519790D01*
X3050669Y9615294D02*
G01*
X2987169Y9519790D01*
X2925193Y9365612D02*
G01*
X2925193Y9270108D01*
X2893443Y9365612D02*
G01*
X2957197Y9365612D01*
X2987169Y9365612D02*
G01*
X3050669Y9270108D01*
X3050669Y9365612D02*
G01*
X2987169Y9270108D01*
X2717167Y12260450D02*
G01*
X2799209Y12260450D01*
X2758061Y12219556D02*
G01*
X2758061Y12301344D01*
X2703705Y12385926D02*
G01*
X2703705Y12340460D01*
X2744599Y12335888D01*
X2740027Y12340460D01*
X2735455Y12354176D01*
X2735455Y12367638D01*
X2740027Y12381354D01*
X2749171Y12390498D01*
X2762633Y12395070D01*
X2771777Y12395070D01*
X2785493Y12390498D01*
X2794637Y12381354D01*
X2799209Y12367638D01*
X2799209Y12354176D01*
X2794637Y12340460D01*
X2790065Y12335888D01*
X2780921Y12331316D01*
X2735455Y12425042D02*
G01*
X2799209Y12452220D01*
X2735455Y12479652D02*
G01*
X2799209Y12452220D01*
X2485011Y12300328D02*
G01*
X2475867Y12296010D01*
X2466977Y12286866D01*
X2462405Y12277722D01*
X2462405Y12259434D01*
X2466977Y12250544D01*
X2475867Y12241400D01*
X2485011Y12236828D01*
X2498727Y12232256D01*
X2521333Y12232256D01*
X2535049Y12236828D01*
X2544193Y12241400D01*
X2553337Y12250544D01*
X2557909Y12259434D01*
X2557909Y12277722D01*
X2553337Y12286866D01*
X2544193Y12296010D01*
X2535049Y12300328D01*
X2521333Y12300328D01*
X2521333Y12277722D02*
G01*
X2521333Y12300328D01*
X2462405Y12330554D02*
G01*
X2557909Y12330554D01*
X2462405Y12330554D02*
G01*
X2557909Y12394054D01*
X2462405Y12394054D02*
G01*
X2557909Y12394054D01*
X2462405Y12424026D02*
G01*
X2557909Y12424026D01*
X2462405Y12424026D02*
G01*
X2462405Y12455776D01*
X2466977Y12469492D01*
X2475867Y12478636D01*
X2485011Y12483208D01*
X2498727Y12487780D01*
X2521333Y12487780D01*
X2535049Y12483208D01*
X2544193Y12478636D01*
X2553337Y12469492D01*
X2557909Y12455776D01*
X2557909Y12424026D01*
X2665097Y10238356D02*
G01*
X2712849Y10238356D01*
X2665097Y10238356D02*
G01*
X2665097Y10254358D01*
X2667383Y10260962D01*
X2671955Y10265534D01*
X2676527Y10267820D01*
X2683385Y10270106D01*
X2694815Y10270106D01*
X2701673Y10267820D01*
X2705991Y10265534D01*
X2710563Y10260962D01*
X2712849Y10254358D01*
X2712849Y10238356D01*
X2694815Y10285092D02*
G01*
X2694815Y10312524D01*
X2690243Y10312524D01*
X2685671Y10310238D01*
X2683385Y10307952D01*
X2681099Y10303380D01*
X2681099Y10296522D01*
X2683385Y10291950D01*
X2687957Y10287378D01*
X2694815Y10285092D01*
X2699387Y10285092D01*
X2705991Y10287378D01*
X2710563Y10291950D01*
X2712849Y10296522D01*
X2712849Y10303380D01*
X2710563Y10307952D01*
X2705991Y10312524D01*
X2687957Y10352402D02*
G01*
X2683385Y10350116D01*
X2681099Y10343258D01*
X2681099Y10336654D01*
X2683385Y10329796D01*
X2687957Y10327510D01*
X2692529Y10329796D01*
X2694815Y10334368D01*
X2697101Y10345544D01*
X2699387Y10350116D01*
X2703705Y10352402D01*
X2705991Y10352402D01*
X2710563Y10350116D01*
X2712849Y10343258D01*
X2712849Y10336654D01*
X2710563Y10329796D01*
X2705991Y10327510D01*
X2665097Y10367388D02*
G01*
X2667383Y10369674D01*
X2665097Y10371960D01*
X2662811Y10369674D01*
X2665097Y10367388D01*
X2681099Y10369674D02*
G01*
X2712849Y10369674D01*
X2681099Y10414378D02*
G01*
X2717421Y10414378D01*
X2724279Y10412092D01*
X2726565Y10409806D01*
X2728851Y10405234D01*
X2728851Y10398376D01*
X2726565Y10393804D01*
X2687957Y10414378D02*
G01*
X2683385Y10409806D01*
X2681099Y10405234D01*
X2681099Y10398376D01*
X2683385Y10393804D01*
X2687957Y10389232D01*
X2694815Y10386946D01*
X2699387Y10386946D01*
X2705991Y10389232D01*
X2710563Y10393804D01*
X2712849Y10398376D01*
X2712849Y10405234D01*
X2710563Y10409806D01*
X2705991Y10414378D01*
X2681099Y10429364D02*
G01*
X2712849Y10429364D01*
X2690243Y10429364D02*
G01*
X2683385Y10435968D01*
X2681099Y10440540D01*
X2681099Y10447398D01*
X2683385Y10451970D01*
X2690243Y10454256D01*
X2712849Y10454256D01*
X2694815Y10469242D02*
G01*
X2694815Y10496420D01*
X2690243Y10496420D01*
X2685671Y10494388D01*
X2683385Y10492102D01*
X2681099Y10487530D01*
X2681099Y10480672D01*
X2683385Y10476100D01*
X2687957Y10471528D01*
X2694815Y10469242D01*
X2699387Y10469242D01*
X2705991Y10471528D01*
X2710563Y10476100D01*
X2712849Y10480672D01*
X2712849Y10487530D01*
X2710563Y10492102D01*
X2705991Y10496420D01*
X2665097Y10538838D02*
G01*
X2712849Y10538838D01*
X2687957Y10538838D02*
G01*
X2683385Y10534266D01*
X2681099Y10529694D01*
X2681099Y10522836D01*
X2683385Y10518264D01*
X2687957Y10513692D01*
X2694815Y10511660D01*
X2699387Y10511660D01*
X2705991Y10513692D01*
X2710563Y10518264D01*
X2712849Y10522836D01*
X2712849Y10529694D01*
X2710563Y10534266D01*
X2705991Y10538838D01*
X2665097Y10588876D02*
G01*
X2712849Y10588876D01*
X2665097Y10588876D02*
G01*
X2665097Y10609196D01*
X2667383Y10616054D01*
X2669669Y10618340D01*
X2674241Y10620626D01*
X2678813Y10620626D01*
X2683385Y10618340D01*
X2685671Y10616054D01*
X2687957Y10609196D01*
X2687957Y10588876D02*
G01*
X2687957Y10609196D01*
X2690243Y10616054D01*
X2692529Y10618340D01*
X2697101Y10620626D01*
X2703705Y10620626D01*
X2708277Y10618340D01*
X2710563Y10616054D01*
X2712849Y10609196D01*
X2712849Y10588876D01*
X2681099Y10637898D02*
G01*
X2712849Y10651614D01*
X2681099Y10665076D02*
G01*
X2712849Y10651614D01*
X2721993Y10647042D01*
X2726565Y10642470D01*
X2728851Y10637898D01*
X2728851Y10635612D01*
X2766697Y10270106D02*
G01*
X2814449Y10238356D01*
X2766697Y10238356D02*
G01*
X2766697Y10270106D01*
X2814449Y10238356D02*
G01*
X2814449Y10270106D01*
X2796415Y10285092D02*
G01*
X2796415Y10312524D01*
X2791843Y10312524D01*
X2787271Y10310238D01*
X2784985Y10307952D01*
X2782699Y10303380D01*
X2782699Y10296522D01*
X2784985Y10291950D01*
X2789557Y10287378D01*
X2796415Y10285092D01*
X2800987Y10285092D01*
X2807591Y10287378D01*
X2812163Y10291950D01*
X2814449Y10296522D01*
X2814449Y10303380D01*
X2812163Y10307952D01*
X2807591Y10312524D01*
X2782699Y10327510D02*
G01*
X2814449Y10327510D01*
X2791843Y10327510D02*
G01*
X2784985Y10334368D01*
X2782699Y10338686D01*
X2782699Y10345544D01*
X2784985Y10350116D01*
X2791843Y10352402D01*
X2814449Y10352402D01*
X2782699Y10367388D02*
G01*
X2814449Y10367388D01*
X2791843Y10367388D02*
G01*
X2784985Y10374246D01*
X2782699Y10378818D01*
X2782699Y10385676D01*
X2784985Y10390248D01*
X2791843Y10392534D01*
X2814449Y10392534D01*
X2791843Y10392534D02*
G01*
X2784985Y10399138D01*
X2782699Y10403710D01*
X2782699Y10410568D01*
X2784985Y10415140D01*
X2791843Y10417426D01*
X2814449Y10417426D01*
X2782699Y10459844D02*
G01*
X2814449Y10459844D01*
X2789557Y10459844D02*
G01*
X2784985Y10455272D01*
X2782699Y10450700D01*
X2782699Y10443842D01*
X2784985Y10439270D01*
X2789557Y10434698D01*
X2796415Y10432412D01*
X2800987Y10432412D01*
X2807591Y10434698D01*
X2812163Y10439270D01*
X2814449Y10443842D01*
X2814449Y10450700D01*
X2812163Y10455272D01*
X2807591Y10459844D01*
X2782699Y10474830D02*
G01*
X2814449Y10474830D01*
X2791843Y10474830D02*
G01*
X2784985Y10481434D01*
X2782699Y10486006D01*
X2782699Y10492864D01*
X2784985Y10497436D01*
X2791843Y10499722D01*
X2814449Y10499722D01*
X2782699Y10544172D02*
G01*
X2789557Y10541886D01*
X2794129Y10537568D01*
X2796415Y10530710D01*
X2796415Y10528424D01*
X2794129Y10521566D01*
X2789557Y10516994D01*
X2782699Y10514708D01*
X2780413Y10514708D01*
X2773555Y10516994D01*
X2768983Y10521566D01*
X2766697Y10528424D01*
X2766697Y10530710D01*
X2768983Y10537568D01*
X2773555Y10541886D01*
X2782699Y10544172D01*
X2794129Y10544172D01*
X2805305Y10541886D01*
X2812163Y10537568D01*
X2814449Y10530710D01*
X2814449Y10526138D01*
X2812163Y10519280D01*
X2807591Y10516994D01*
X2766697Y10582018D02*
G01*
X2798701Y10559158D01*
X2798701Y10593448D01*
X2766697Y10582018D02*
G01*
X2814449Y10582018D01*
X2787271Y10688698D02*
G01*
X2784985Y10688698D01*
X2782699Y10686412D01*
X2782699Y10684380D01*
X2784985Y10682094D01*
X2789557Y10679808D01*
X2800987Y10675236D01*
X2807591Y10670664D01*
X2812163Y10666092D01*
X2814449Y10661520D01*
X2814449Y10652376D01*
X2812163Y10647804D01*
X2809877Y10645518D01*
X2805305Y10643232D01*
X2800987Y10643232D01*
X2796415Y10645518D01*
X2794129Y10647804D01*
X2784985Y10663806D01*
X2782699Y10666092D01*
X2778127Y10668378D01*
X2773555Y10668378D01*
X2768983Y10666092D01*
X2766697Y10661520D01*
X2768983Y10656948D01*
X2773555Y10654662D01*
X2778127Y10654662D01*
X2784985Y10656948D01*
X2791843Y10661520D01*
X2807591Y10672950D01*
X2812163Y10677522D01*
X2814449Y10682094D01*
X2814449Y10686412D01*
X2812163Y10688698D01*
X2809877Y10688698D01*
X2766697Y10757024D02*
G01*
X2814449Y10738736D01*
X2766697Y10757024D02*
G01*
X2814449Y10775058D01*
X2798701Y10745594D02*
G01*
X2798701Y10768454D01*
X2782699Y10815190D02*
G01*
X2814449Y10790298D01*
X2782699Y10790298D02*
G01*
X2782699Y10815190D01*
X2814449Y10790298D02*
G01*
X2814449Y10815190D01*
X2782699Y10830176D02*
G01*
X2814449Y10830176D01*
X2796415Y10830176D02*
G01*
X2789557Y10832462D01*
X2784985Y10837034D01*
X2782699Y10841606D01*
X2782699Y10848464D01*
X2782699Y10874626D02*
G01*
X2784985Y10870054D01*
X2789557Y10865736D01*
X2796415Y10863450D01*
X2800987Y10863450D01*
X2807591Y10865736D01*
X2812163Y10870054D01*
X2814449Y10874626D01*
X2814449Y10881484D01*
X2812163Y10886056D01*
X2807591Y10890628D01*
X2800987Y10892914D01*
X2796415Y10892914D01*
X2789557Y10890628D01*
X2784985Y10886056D01*
X2782699Y10881484D01*
X2782699Y10874626D01*
X2766697Y10935078D02*
G01*
X2814449Y10935078D01*
X2789557Y10935078D02*
G01*
X2784985Y10930506D01*
X2782699Y10926188D01*
X2782699Y10919330D01*
X2784985Y10914758D01*
X2789557Y10910186D01*
X2796415Y10907900D01*
X2800987Y10907900D01*
X2807591Y10910186D01*
X2812163Y10914758D01*
X2814449Y10919330D01*
X2814449Y10926188D01*
X2812163Y10930506D01*
X2807591Y10935078D01*
X2769999Y11063856D02*
G01*
X2801749Y11077572D01*
X2769999Y11091034D02*
G01*
X2801749Y11077572D01*
X2763141Y11106020D02*
G01*
X2760855Y11110592D01*
X2753997Y11117450D01*
X2801749Y11117450D01*
X2790573Y11134722D02*
G01*
X2792605Y11132436D01*
X2794891Y11134722D01*
X2792605Y11137008D01*
X2790573Y11134722D01*
X2753997Y11165710D02*
G01*
X2756283Y11158852D01*
X2763141Y11154280D01*
X2774571Y11151994D01*
X2781429Y11151994D01*
X2792605Y11154280D01*
X2799463Y11158852D01*
X2801749Y11165710D01*
X2801749Y11170282D01*
X2799463Y11177140D01*
X2792605Y11181458D01*
X2781429Y11183744D01*
X2774571Y11183744D01*
X2763141Y11181458D01*
X2756283Y11177140D01*
X2753997Y11170282D01*
X2753997Y11165710D01*
D11*
X2409573Y13325472D02*
G01*
X2357757Y13325472D01*
X2352423Y13278736D01*
X2357757Y13283816D01*
X2373251Y13289150D01*
X2388999Y13289150D01*
X2404493Y13283816D01*
X2414907Y13273656D01*
X2419987Y13257908D01*
X2419987Y13247494D01*
X2414907Y13232000D01*
X2404493Y13221586D01*
X2388999Y13216506D01*
X2373251Y13216506D01*
X2357757Y13221586D01*
X2352423Y13226666D01*
X2347343Y13237080D01*
X2454277Y13325472D02*
G01*
X2495933Y13216506D01*
X2537589Y13325472D02*
G01*
X2495933Y13216506D01*
X2571879Y13325472D02*
G01*
X2571879Y13216506D01*
X2571879Y13325472D02*
G01*
X2608201Y13325472D01*
X2623695Y13320392D01*
X2634109Y13309978D01*
X2639443Y13299564D01*
X2644523Y13283816D01*
X2644523Y13257908D01*
X2639443Y13242414D01*
X2634109Y13232000D01*
X2623695Y13221586D01*
X2608201Y13216506D01*
X2571879Y13216506D01*
X2756791Y13299564D02*
G01*
X2751457Y13309978D01*
X2741043Y13320392D01*
X2730883Y13325472D01*
X2710055Y13325472D01*
X2699641Y13320392D01*
X2689227Y13309978D01*
X2683893Y13299564D01*
X2678813Y13283816D01*
X2678813Y13257908D01*
X2683893Y13242414D01*
X2689227Y13232000D01*
X2699641Y13221586D01*
X2710055Y13216506D01*
X2730883Y13216506D01*
X2741043Y13221586D01*
X2751457Y13232000D01*
X2756791Y13242414D01*
X4634359Y9028300D02*
G01*
X4525393Y9069956D01*
X4634359Y9028300D02*
G01*
X4525393Y8986898D01*
X4561715Y9054462D02*
G01*
X4561715Y9002392D01*
X4634359Y8952608D02*
G01*
X4525393Y8952608D01*
X4634359Y8952608D02*
G01*
X4525393Y8879710D01*
X4634359Y8879710D02*
G01*
X4525393Y8879710D01*
X4634359Y8814432D02*
G01*
X4629279Y8829926D01*
X4613531Y8840340D01*
X4587623Y8845420D01*
X4572129Y8845420D01*
X4545967Y8840340D01*
X4530473Y8829926D01*
X4525393Y8814432D01*
X4525393Y8804018D01*
X4530473Y8788270D01*
X4545967Y8777856D01*
X4572129Y8772776D01*
X4587623Y8772776D01*
X4613531Y8777856D01*
X4629279Y8788270D01*
X4634359Y8804018D01*
X4634359Y8814432D01*
X5891659Y9028300D02*
G01*
X5782693Y9069956D01*
X5891659Y9028300D02*
G01*
X5782693Y8986898D01*
X5819015Y9054462D02*
G01*
X5819015Y9002392D01*
X5891659Y8952608D02*
G01*
X5782693Y8952608D01*
X5891659Y8952608D02*
G01*
X5782693Y8879710D01*
X5891659Y8879710D02*
G01*
X5782693Y8879710D01*
X5870831Y8845420D02*
G01*
X5876165Y8835006D01*
X5891659Y8819512D01*
X5782693Y8819512D01*
X7148959Y9028300D02*
G01*
X7039993Y9069956D01*
X7148959Y9028300D02*
G01*
X7039993Y8986898D01*
X7076315Y9054462D02*
G01*
X7076315Y9002392D01*
X7148959Y8952608D02*
G01*
X7039993Y8952608D01*
X7148959Y8952608D02*
G01*
X7039993Y8879710D01*
X7148959Y8879710D02*
G01*
X7039993Y8879710D01*
X7123051Y8840340D02*
G01*
X7128131Y8840340D01*
X7138545Y8835006D01*
X7143879Y8829926D01*
X7148959Y8819512D01*
X7148959Y8798684D01*
X7143879Y8788270D01*
X7138545Y8783190D01*
X7128131Y8777856D01*
X7117717Y8777856D01*
X7107303Y8783190D01*
X7091809Y8793604D01*
X7039993Y8845420D01*
X7039993Y8772776D01*
X8406259Y9028300D02*
G01*
X8297293Y9069956D01*
X8406259Y9028300D02*
G01*
X8297293Y8986898D01*
X8333615Y9054462D02*
G01*
X8333615Y9002392D01*
X8406259Y8952608D02*
G01*
X8297293Y8952608D01*
X8406259Y8952608D02*
G01*
X8297293Y8879710D01*
X8406259Y8879710D02*
G01*
X8297293Y8879710D01*
X8406259Y8835006D02*
G01*
X8406259Y8777856D01*
X8364603Y8809098D01*
X8364603Y8793604D01*
X8359523Y8783190D01*
X8354443Y8777856D01*
X8338695Y8772776D01*
X8328281Y8772776D01*
X8312787Y8777856D01*
X8302373Y8788270D01*
X8297293Y8804018D01*
X8297293Y8819512D01*
X8302373Y8835006D01*
X8307453Y8840340D01*
X8317867Y8845420D01*
X4651288Y13725014D02*
G01*
X4646208Y13735428D01*
X4635794Y13745842D01*
X4625380Y13751176D01*
X4609632Y13756256D01*
X4583724Y13756256D01*
X4568230Y13751176D01*
X4557816Y13745842D01*
X4547402Y13735428D01*
X4542322Y13725014D01*
X4542322Y13704186D01*
X4547402Y13694026D01*
X4557816Y13683612D01*
X4568230Y13678278D01*
X4583724Y13673198D01*
X4609632Y13673198D01*
X4625380Y13678278D01*
X4635794Y13683612D01*
X4646208Y13694026D01*
X4651288Y13704186D01*
X4651288Y13725014D01*
X4651288Y13638908D02*
G01*
X4542322Y13612746D01*
X4651288Y13586838D02*
G01*
X4542322Y13612746D01*
X4651288Y13586838D02*
G01*
X4542322Y13560930D01*
X4651288Y13535022D02*
G01*
X4542322Y13560930D01*
X4651288Y13469490D02*
G01*
X4646208Y13484984D01*
X4630460Y13495398D01*
X4604552Y13500732D01*
X4589058Y13500732D01*
X4562896Y13495398D01*
X4547402Y13484984D01*
X4542322Y13469490D01*
X4542322Y13459076D01*
X4547402Y13443582D01*
X4562896Y13433168D01*
X4589058Y13427834D01*
X4604552Y13427834D01*
X4630460Y13433168D01*
X4646208Y13443582D01*
X4651288Y13459076D01*
X4651288Y13469490D01*
X5907178Y13725014D02*
G01*
X5902098Y13735428D01*
X5891684Y13745842D01*
X5881270Y13751176D01*
X5865522Y13756256D01*
X5839614Y13756256D01*
X5824120Y13751176D01*
X5813706Y13745842D01*
X5803292Y13735428D01*
X5798212Y13725014D01*
X5798212Y13704186D01*
X5803292Y13694026D01*
X5813706Y13683612D01*
X5824120Y13678278D01*
X5839614Y13673198D01*
X5865522Y13673198D01*
X5881270Y13678278D01*
X5891684Y13683612D01*
X5902098Y13694026D01*
X5907178Y13704186D01*
X5907178Y13725014D01*
X5907178Y13638908D02*
G01*
X5798212Y13612746D01*
X5907178Y13586838D02*
G01*
X5798212Y13612746D01*
X5907178Y13586838D02*
G01*
X5798212Y13560930D01*
X5907178Y13535022D02*
G01*
X5798212Y13560930D01*
X5886350Y13500732D02*
G01*
X5891684Y13490318D01*
X5907178Y13474570D01*
X5798212Y13474570D01*
X7163069Y13725014D02*
G01*
X7157989Y13735428D01*
X7147575Y13745842D01*
X7137161Y13751176D01*
X7121413Y13756256D01*
X7095505Y13756256D01*
X7080011Y13751176D01*
X7069597Y13745842D01*
X7059183Y13735428D01*
X7054103Y13725014D01*
X7054103Y13704186D01*
X7059183Y13694026D01*
X7069597Y13683612D01*
X7080011Y13678278D01*
X7095505Y13673198D01*
X7121413Y13673198D01*
X7137161Y13678278D01*
X7147575Y13683612D01*
X7157989Y13694026D01*
X7163069Y13704186D01*
X7163069Y13725014D01*
X7163069Y13638908D02*
G01*
X7054103Y13612746D01*
X7163069Y13586838D02*
G01*
X7054103Y13612746D01*
X7163069Y13586838D02*
G01*
X7054103Y13560930D01*
X7163069Y13535022D02*
G01*
X7054103Y13560930D01*
X7137161Y13495398D02*
G01*
X7142241Y13495398D01*
X7152655Y13490318D01*
X7157989Y13484984D01*
X7163069Y13474570D01*
X7163069Y13453996D01*
X7157989Y13443582D01*
X7152655Y13438248D01*
X7142241Y13433168D01*
X7131827Y13433168D01*
X7121413Y13438248D01*
X7105919Y13448662D01*
X7054103Y13500732D01*
X7054103Y13427834D01*
X8418959Y13725014D02*
G01*
X8413879Y13735428D01*
X8403465Y13745842D01*
X8393051Y13751176D01*
X8377303Y13756256D01*
X8351395Y13756256D01*
X8335901Y13751176D01*
X8325487Y13745842D01*
X8315073Y13735428D01*
X8309993Y13725014D01*
X8309993Y13704186D01*
X8315073Y13694026D01*
X8325487Y13683612D01*
X8335901Y13678278D01*
X8351395Y13673198D01*
X8377303Y13673198D01*
X8393051Y13678278D01*
X8403465Y13683612D01*
X8413879Y13694026D01*
X8418959Y13704186D01*
X8418959Y13725014D01*
X8418959Y13638908D02*
G01*
X8309993Y13612746D01*
X8418959Y13586838D02*
G01*
X8309993Y13612746D01*
X8418959Y13586838D02*
G01*
X8309993Y13560930D01*
X8418959Y13535022D02*
G01*
X8309993Y13560930D01*
X8418959Y13490318D02*
G01*
X8418959Y13433168D01*
X8377303Y13464156D01*
X8377303Y13448662D01*
X8372223Y13438248D01*
X8367143Y13433168D01*
X8351395Y13427834D01*
X8340981Y13427834D01*
X8325487Y13433168D01*
X8315073Y13443582D01*
X8309993Y13459076D01*
X8309993Y13474570D01*
X8315073Y13490318D01*
X8320153Y13495398D01*
X8330567Y13500732D01*
X1514901Y12816367D02*
G01*
X1519981Y12805953D01*
X1535475Y12790459D01*
X1426509Y12790459D01*
D10*
X2772793Y8635870D02*
G01*
X2766443Y8642220D01*
X2757045Y8645268D01*
X2744345Y8645268D01*
X2734693Y8642220D01*
X2728343Y8635870D01*
X2728343Y8629266D01*
X2731645Y8622916D01*
X2734693Y8619868D01*
X2741043Y8616566D01*
X2760093Y8610216D01*
X2766443Y8607168D01*
X2769745Y8603866D01*
X2772793Y8597516D01*
X2772793Y8588118D01*
X2766443Y8581768D01*
X2757045Y8578466D01*
X2744345Y8578466D01*
X2734693Y8581768D01*
X2728343Y8588118D01*
X2841627Y8629266D02*
G01*
X2838325Y8635870D01*
X2831975Y8642220D01*
X2825625Y8645268D01*
X2812925Y8645268D01*
X2806575Y8642220D01*
X2800225Y8635870D01*
X2797177Y8629266D01*
X2793875Y8619868D01*
X2793875Y8603866D01*
X2797177Y8594468D01*
X2800225Y8588118D01*
X2806575Y8581768D01*
X2812925Y8578466D01*
X2825625Y8578466D01*
X2831975Y8581768D01*
X2838325Y8588118D01*
X2841627Y8594468D01*
X2862709Y8645268D02*
G01*
X2862709Y8578466D01*
X2862709Y8645268D02*
G01*
X2891157Y8645268D01*
X2900809Y8642220D01*
X2903857Y8638918D01*
X2907159Y8632568D01*
X2907159Y8626218D01*
X2903857Y8619868D01*
X2900809Y8616566D01*
X2891157Y8613518D01*
X2862709Y8613518D01*
X2884807Y8613518D02*
G01*
X2907159Y8578466D01*
X2928241Y8645268D02*
G01*
X2928241Y8578466D01*
X2928241Y8645268D02*
G01*
X2969643Y8645268D01*
X2928241Y8613518D02*
G01*
X2953641Y8613518D01*
X2928241Y8578466D02*
G01*
X2969643Y8578466D01*
X2990471Y8645268D02*
G01*
X2990471Y8578466D01*
X2990471Y8645268D02*
G01*
X3031873Y8645268D01*
X2990471Y8613518D02*
G01*
X3015871Y8613518D01*
X2990471Y8578466D02*
G01*
X3031873Y8578466D01*
X3052955Y8645268D02*
G01*
X3052955Y8578466D01*
X3052955Y8645268D02*
G01*
X3097405Y8578466D01*
X3097405Y8645268D02*
G01*
X3097405Y8578466D01*
D11*
X1547243Y12030072D02*
G01*
X1547243Y11921106D01*
X1547243Y11921106D02*
G01*
X1609473Y11921106D01*
X1716661Y12014578D02*
G01*
X1706247Y12024992D01*
X1690753Y12030072D01*
X1669925Y12030072D01*
X1654177Y12024992D01*
X1643763Y12014578D01*
X1643763Y12004164D01*
X1649097Y11993750D01*
X1654177Y11988416D01*
X1664591Y11983336D01*
X1695833Y11972922D01*
X1706247Y11967842D01*
X1711327Y11962508D01*
X1716661Y11952094D01*
X1716661Y11936600D01*
X1706247Y11926186D01*
X1690753Y11921106D01*
X1669925Y11921106D01*
X1654177Y11926186D01*
X1643763Y11936600D01*
X1750951Y11967842D02*
G01*
X1844423Y11967842D01*
X1930783Y12030072D02*
G01*
X1878713Y11957428D01*
X1956691Y11957428D01*
X1930783Y12030072D02*
G01*
X1930783Y11921106D01*
X2068959Y12004164D02*
G01*
X2063625Y12014578D01*
X2053211Y12024992D01*
X2042797Y12030072D01*
X2022223Y12030072D01*
X2011809Y12024992D01*
X2001395Y12014578D01*
X1996061Y12004164D01*
X1990981Y11988416D01*
X1990981Y11962508D01*
X1996061Y11947014D01*
X2001395Y11936600D01*
X2011809Y11926186D01*
X2022223Y11921106D01*
X2042797Y11921106D01*
X2053211Y11926186D01*
X2063625Y11936600D01*
X2068959Y11947014D01*
X2103249Y12030072D02*
G01*
X2103249Y11921106D01*
X2175893Y12030072D02*
G01*
X2175893Y11921106D01*
X2103249Y11978256D02*
G01*
X2175893Y11978256D01*
D12*
X2079881Y11673456D02*
G01*
X2152779Y11673456D01*
X2079881Y11721970D02*
G01*
X2152779Y11721970D01*
X2114679Y11673456D02*
G01*
X2114679Y11721970D01*
X2079881Y11744830D02*
G01*
X2152779Y11772516D01*
X2079881Y11800202D02*
G01*
X2152779Y11772516D01*
X2093851Y11823062D02*
G01*
X2090295Y11829920D01*
X2079881Y11840334D01*
X2152779Y11840334D01*
X1825881Y11673456D02*
G01*
X1898779Y11673456D01*
X1825881Y11721970D02*
G01*
X1898779Y11721970D01*
X1860679Y11673456D02*
G01*
X1860679Y11721970D01*
X1825881Y11744830D02*
G01*
X1898779Y11772516D01*
X1825881Y11800202D02*
G01*
X1898779Y11772516D01*
X1843153Y11826618D02*
G01*
X1839851Y11826618D01*
X1832993Y11829920D01*
X1829437Y11833476D01*
X1825881Y11840334D01*
X1825881Y11854304D01*
X1829437Y11861162D01*
X1832993Y11864718D01*
X1839851Y11868020D01*
X1846709Y11868020D01*
X1853567Y11864718D01*
X1863981Y11857606D01*
X1898779Y11823062D01*
X1898779Y11871576D01*
X1584581Y11673456D02*
G01*
X1657479Y11673456D01*
X1584581Y11721970D02*
G01*
X1657479Y11721970D01*
X1619379Y11673456D02*
G01*
X1619379Y11721970D01*
X1584581Y11744830D02*
G01*
X1657479Y11772516D01*
X1584581Y11800202D02*
G01*
X1657479Y11772516D01*
X1373253Y11928726D02*
G01*
X1366395Y11925170D01*
X1359537Y11918312D01*
X1355981Y11911200D01*
X1355981Y11897484D01*
X1359537Y11890626D01*
X1366395Y11883514D01*
X1373253Y11880212D01*
X1383667Y11876656D01*
X1401193Y11876656D01*
X1411353Y11880212D01*
X1418465Y11883514D01*
X1425323Y11890626D01*
X1428879Y11897484D01*
X1428879Y11911200D01*
X1425323Y11918312D01*
X1418465Y11925170D01*
X1411353Y11928726D01*
X1401193Y11928726D01*
X1401193Y11911200D02*
G01*
X1401193Y11928726D01*
X1355981Y11951586D02*
G01*
X1428879Y11951586D01*
X1355981Y11951586D02*
G01*
X1428879Y11999846D01*
X1355981Y11999846D02*
G01*
X1428879Y11999846D01*
X1355981Y12022706D02*
G01*
X1428879Y12022706D01*
X1355981Y12022706D02*
G01*
X1355981Y12047090D01*
X1359537Y12057504D01*
X1366395Y12064362D01*
X1373253Y12067918D01*
X1383667Y12071220D01*
X1401193Y12071220D01*
X1411353Y12067918D01*
X1418465Y12064362D01*
X1425323Y12057504D01*
X1428879Y12047090D01*
X1428879Y12022706D01*
X1063881Y11673456D02*
G01*
X1136779Y11673456D01*
X1063881Y11721970D02*
G01*
X1136779Y11721970D01*
X1098679Y11673456D02*
G01*
X1098679Y11721970D01*
X1063881Y11744830D02*
G01*
X1136779Y11772516D01*
X1063881Y11800202D02*
G01*
X1136779Y11772516D01*
X1063881Y11829920D02*
G01*
X1063881Y11868020D01*
X1091567Y11847446D01*
X1091567Y11857606D01*
X1095123Y11864718D01*
X1098679Y11868020D01*
X1109093Y11871576D01*
X1115951Y11871576D01*
X1126365Y11868020D01*
X1133223Y11861162D01*
X1136779Y11850748D01*
X1136779Y11840334D01*
X1133223Y11829920D01*
X1129667Y11826618D01*
X1122809Y11823062D01*
X809881Y11673456D02*
G01*
X882779Y11673456D01*
X809881Y11721970D02*
G01*
X882779Y11721970D01*
X844679Y11673456D02*
G01*
X844679Y11721970D01*
X809881Y11744830D02*
G01*
X882779Y11772516D01*
X809881Y11800202D02*
G01*
X882779Y11772516D01*
X809881Y11857606D02*
G01*
X858395Y11823062D01*
X858395Y11875132D01*
X809881Y11857606D02*
G01*
X882779Y11857606D01*
X2067181Y12105256D02*
G01*
X2140079Y12105256D01*
X2140079Y12105256D02*
G01*
X2140079Y12146912D01*
X2067181Y12169772D02*
G01*
X2140079Y12197458D01*
X2067181Y12225144D02*
G01*
X2140079Y12197458D01*
X2081151Y12248004D02*
G01*
X2077595Y12254862D01*
X2067181Y12265276D01*
X2140079Y12265276D01*
X1813181Y12105256D02*
G01*
X1886079Y12105256D01*
X1886079Y12105256D02*
G01*
X1886079Y12146912D01*
X1813181Y12169772D02*
G01*
X1886079Y12197458D01*
X1813181Y12225144D02*
G01*
X1886079Y12197458D01*
X1830453Y12251306D02*
G01*
X1827151Y12251306D01*
X1820293Y12254862D01*
X1816737Y12258418D01*
X1813181Y12265276D01*
X1813181Y12279246D01*
X1816737Y12286104D01*
X1820293Y12289406D01*
X1827151Y12292962D01*
X1834009Y12292962D01*
X1840867Y12289406D01*
X1851281Y12282548D01*
X1886079Y12248004D01*
X1886079Y12296518D01*
X1559181Y12105256D02*
G01*
X1632079Y12105256D01*
X1632079Y12105256D02*
G01*
X1632079Y12146912D01*
X1559181Y12169772D02*
G01*
X1632079Y12197458D01*
X1559181Y12225144D02*
G01*
X1632079Y12197458D01*
X1051181Y12105256D02*
G01*
X1124079Y12105256D01*
X1124079Y12105256D02*
G01*
X1124079Y12146912D01*
X1051181Y12169772D02*
G01*
X1124079Y12197458D01*
X1051181Y12225144D02*
G01*
X1124079Y12197458D01*
X1051181Y12254862D02*
G01*
X1051181Y12292962D01*
X1078867Y12272134D01*
X1078867Y12282548D01*
X1082423Y12289406D01*
X1085979Y12292962D01*
X1096393Y12296518D01*
X1103251Y12296518D01*
X1113665Y12292962D01*
X1120523Y12286104D01*
X1124079Y12275690D01*
X1124079Y12265276D01*
X1120523Y12254862D01*
X1116967Y12251306D01*
X1110109Y12248004D01*
X797181Y12105256D02*
G01*
X870079Y12105256D01*
X870079Y12105256D02*
G01*
X870079Y12146912D01*
X797181Y12169772D02*
G01*
X870079Y12197458D01*
X797181Y12225144D02*
G01*
X870079Y12197458D01*
X797181Y12282548D02*
G01*
X845695Y12248004D01*
X845695Y12299820D01*
X797181Y12282548D02*
G01*
X870079Y12282548D01*
D11*
X2475613Y12868272D02*
G01*
X2423543Y12795628D01*
X2501521Y12795628D01*
X2475613Y12868272D02*
G01*
X2475613Y12759306D01*
X2546225Y12779880D02*
G01*
X2540891Y12774800D01*
X2535811Y12779880D01*
X2540891Y12785214D01*
X2546225Y12779880D01*
X2546225Y12769466D01*
X2535811Y12759306D01*
X2653159Y12868272D02*
G01*
X2601343Y12759306D01*
X2580515Y12868272D02*
G01*
X2653159Y12868272D01*
X2687449Y12868272D02*
G01*
X2687449Y12759306D01*
X2760093Y12868272D02*
G01*
X2687449Y12795628D01*
X2713357Y12821536D02*
G01*
X2760093Y12759306D01*
X1187747Y12824084D02*
G01*
X1193081Y12824084D01*
X1203495Y12819004D01*
X1208575Y12813670D01*
X1213909Y12803256D01*
X1213909Y12782682D01*
X1208575Y12772268D01*
X1203495Y12766934D01*
X1193081Y12761854D01*
X1182667Y12761854D01*
X1172253Y12766934D01*
X1156759Y12777348D01*
X1104689Y12829418D01*
X1104689Y12756520D01*
X909114Y12818871D02*
G01*
X909114Y12761721D01*
X867458Y12792963D01*
X867458Y12777215D01*
X862378Y12767055D01*
X857044Y12761721D01*
X841550Y12756642D01*
X831136Y12756642D01*
X815642Y12761721D01*
X805228Y12772136D01*
X799894Y12787629D01*
X799894Y12803378D01*
X805228Y12818871D01*
X810308Y12824205D01*
X820722Y12829286D01*
X4108833Y11239116D02*
G01*
X4108833Y11130150D01*
X4108833Y11239116D02*
G01*
X4176397Y11239116D01*
X4108833Y11187300D02*
G01*
X4150489Y11187300D01*
X4108833Y11130150D02*
G01*
X4176397Y11130150D01*
X4283331Y11223622D02*
G01*
X4272917Y11234036D01*
X4257423Y11239116D01*
X4236595Y11239116D01*
X4221101Y11234036D01*
X4210687Y11223622D01*
X4210687Y11213208D01*
X4215767Y11202794D01*
X4221101Y11197460D01*
X4231515Y11192380D01*
X4262503Y11181966D01*
X4272917Y11176886D01*
X4278251Y11171552D01*
X4283331Y11161138D01*
X4283331Y11145644D01*
X4272917Y11135230D01*
X4257423Y11130150D01*
X4236595Y11130150D01*
X4221101Y11135230D01*
X4210687Y11145644D01*
X4317621Y11239116D02*
G01*
X4317621Y11130150D01*
X4317621Y11239116D02*
G01*
X4364357Y11239116D01*
X4380105Y11234036D01*
X4385185Y11228702D01*
X4390519Y11218288D01*
X4390519Y11202794D01*
X4385185Y11192380D01*
X4380105Y11187300D01*
X4364357Y11181966D01*
X4317621Y11181966D01*
X4435223Y11239116D02*
G01*
X4492373Y11239116D01*
X4461131Y11197460D01*
X4476625Y11197460D01*
X4487039Y11192380D01*
X4492373Y11187300D01*
X4497453Y11171552D01*
X4497453Y11161138D01*
X4492373Y11145644D01*
X4481959Y11135230D01*
X4466211Y11130150D01*
X4450717Y11130150D01*
X4435223Y11135230D01*
X4429889Y11140310D01*
X4424809Y11150724D01*
X4536823Y11213208D02*
G01*
X4536823Y11218288D01*
X4542157Y11228702D01*
X4547237Y11234036D01*
X4557651Y11239116D01*
X4578479Y11239116D01*
X4588893Y11234036D01*
X4593973Y11228702D01*
X4599307Y11218288D01*
X4599307Y11207874D01*
X4593973Y11197460D01*
X4583813Y11181966D01*
X4531743Y11130150D01*
X4604387Y11130150D01*
X1588899Y11064872D02*
G01*
X1547243Y10955906D01*
X1588899Y11064872D02*
G01*
X1630301Y10955906D01*
X1562737Y10992228D02*
G01*
X1614807Y10992228D01*
X1664591Y11064872D02*
G01*
X1664591Y10955906D01*
X1664591Y11064872D02*
G01*
X1700913Y11064872D01*
X1716661Y11059792D01*
X1727075Y11049378D01*
X1732155Y11038964D01*
X1737489Y11023216D01*
X1737489Y10997308D01*
X1732155Y10981814D01*
X1727075Y10971400D01*
X1716661Y10960986D01*
X1700913Y10955906D01*
X1664591Y10955906D01*
X1844423Y11049378D02*
G01*
X1834009Y11059792D01*
X1818515Y11064872D01*
X1797687Y11064872D01*
X1782193Y11059792D01*
X1771779Y11049378D01*
X1771779Y11038964D01*
X1776859Y11028550D01*
X1782193Y11023216D01*
X1792353Y11018136D01*
X1823595Y11007722D01*
X1834009Y11002642D01*
X1839343Y10997308D01*
X1844423Y10986894D01*
X1844423Y10971400D01*
X1834009Y10960986D01*
X1818515Y10955906D01*
X1797687Y10955906D01*
X1782193Y10960986D01*
X1771779Y10971400D01*
X1878713Y11044044D02*
G01*
X1889127Y11049378D01*
X1904621Y11064872D01*
X1904621Y10955906D01*
X1938911Y11044044D02*
G01*
X1949325Y11049378D01*
X1965073Y11064872D01*
X1965073Y10955906D01*
X1999363Y11044044D02*
G01*
X2009523Y11049378D01*
X2025271Y11064872D01*
X2025271Y10955906D01*
X2121791Y11064872D02*
G01*
X2069975Y11064872D01*
X2064641Y11018136D01*
X2069975Y11023216D01*
X2085469Y11028550D01*
X2100963Y11028550D01*
X2116711Y11023216D01*
X2127125Y11013056D01*
X2132205Y10997308D01*
X2132205Y10986894D01*
X2127125Y10971400D01*
X2116711Y10960986D01*
X2100963Y10955906D01*
X2085469Y10955906D01*
X2069975Y10960986D01*
X2064641Y10966066D01*
X2059561Y10976480D01*
X1102743Y11026518D02*
G01*
X1130429Y10953620D01*
X1158115Y11026518D02*
G01*
X1130429Y10953620D01*
X1180975Y11026518D02*
G01*
X1180975Y10953620D01*
X1180975Y11026518D02*
G01*
X1205359Y11026518D01*
X1215773Y11022962D01*
X1222631Y11016104D01*
X1225933Y11009246D01*
X1229489Y10998832D01*
X1229489Y10981306D01*
X1225933Y10971146D01*
X1222631Y10964034D01*
X1215773Y10957176D01*
X1205359Y10953620D01*
X1180975Y10953620D01*
X1252349Y11026518D02*
G01*
X1252349Y10953620D01*
X1252349Y11026518D02*
G01*
X1276733Y11026518D01*
X1286893Y11022962D01*
X1294005Y11016104D01*
X1297307Y11009246D01*
X1300863Y10998832D01*
X1300863Y10981306D01*
X1297307Y10971146D01*
X1294005Y10964034D01*
X1286893Y10957176D01*
X1276733Y10953620D01*
X1252349Y10953620D01*
X1154813Y10753834D02*
G01*
X1151257Y10760692D01*
X1144399Y10767550D01*
X1137287Y10771106D01*
X1123571Y10771106D01*
X1116713Y10767550D01*
X1109601Y10760692D01*
X1106299Y10753834D01*
X1102743Y10743420D01*
X1102743Y10725894D01*
X1106299Y10715734D01*
X1109601Y10708622D01*
X1116713Y10701764D01*
X1123571Y10698208D01*
X1137287Y10698208D01*
X1144399Y10701764D01*
X1151257Y10708622D01*
X1154813Y10715734D01*
X1154813Y10725894D01*
X1137287Y10725894D02*
G01*
X1154813Y10725894D01*
X1177673Y10771106D02*
G01*
X1177673Y10698208D01*
X1177673Y10771106D02*
G01*
X1225933Y10698208D01*
X1225933Y10771106D02*
G01*
X1225933Y10698208D01*
X1248793Y10771106D02*
G01*
X1248793Y10698208D01*
X1248793Y10771106D02*
G01*
X1273177Y10771106D01*
X1283591Y10767550D01*
X1290449Y10760692D01*
X1294005Y10753834D01*
X1297307Y10743420D01*
X1297307Y10725894D01*
X1294005Y10715734D01*
X1290449Y10708622D01*
X1283591Y10701764D01*
X1273177Y10698208D01*
X1248793Y10698208D01*
X1151257Y10505282D02*
G01*
X1144399Y10512140D01*
X1133985Y10515696D01*
X1120015Y10515696D01*
X1109601Y10512140D01*
X1102743Y10505282D01*
X1102743Y10498424D01*
X1106299Y10491312D01*
X1109601Y10488010D01*
X1116713Y10484454D01*
X1137287Y10477596D01*
X1144399Y10474040D01*
X1147701Y10470484D01*
X1151257Y10463626D01*
X1151257Y10453212D01*
X1144399Y10446354D01*
X1133985Y10442798D01*
X1120015Y10442798D01*
X1109601Y10446354D01*
X1102743Y10453212D01*
X1225933Y10498424D02*
G01*
X1222631Y10505282D01*
X1215773Y10512140D01*
X1208661Y10515696D01*
X1194945Y10515696D01*
X1187833Y10512140D01*
X1180975Y10505282D01*
X1177673Y10498424D01*
X1174117Y10488010D01*
X1174117Y10470484D01*
X1177673Y10460324D01*
X1180975Y10453212D01*
X1187833Y10446354D01*
X1194945Y10442798D01*
X1208661Y10442798D01*
X1215773Y10446354D01*
X1222631Y10453212D01*
X1225933Y10460324D01*
X1248793Y10515696D02*
G01*
X1248793Y10442798D01*
X1248793Y10442798D02*
G01*
X1290449Y10442798D01*
X1151257Y10249870D02*
G01*
X1144399Y10256728D01*
X1133985Y10260284D01*
X1120015Y10260284D01*
X1109601Y10256728D01*
X1102743Y10249870D01*
X1102743Y10243012D01*
X1106299Y10235900D01*
X1109601Y10232598D01*
X1116713Y10229042D01*
X1137287Y10222184D01*
X1144399Y10218628D01*
X1147701Y10215072D01*
X1151257Y10208214D01*
X1151257Y10197800D01*
X1144399Y10190942D01*
X1133985Y10187386D01*
X1120015Y10187386D01*
X1109601Y10190942D01*
X1102743Y10197800D01*
X1174117Y10260284D02*
G01*
X1174117Y10187386D01*
X1174117Y10260284D02*
G01*
X1198247Y10260284D01*
X1208661Y10256728D01*
X1215773Y10249870D01*
X1219075Y10243012D01*
X1222631Y10232598D01*
X1222631Y10215072D01*
X1219075Y10204912D01*
X1215773Y10197800D01*
X1208661Y10190942D01*
X1198247Y10187386D01*
X1174117Y10187386D01*
X1273177Y10260284D02*
G01*
X1245491Y10187386D01*
X1273177Y10260284D02*
G01*
X1300863Y10187386D01*
X1255905Y10211770D02*
G01*
X1290449Y10211770D01*
X1130429Y10004874D02*
G01*
X1102743Y9931976D01*
X1130429Y10004874D02*
G01*
X1158115Y9931976D01*
X1113157Y9956360D02*
G01*
X1147701Y9956360D01*
X1180975Y10004874D02*
G01*
X1180975Y9931976D01*
X1180975Y10004874D02*
G01*
X1205359Y10004874D01*
X1215773Y10001318D01*
X1222631Y9994460D01*
X1225933Y9987602D01*
X1229489Y9977188D01*
X1229489Y9959662D01*
X1225933Y9949502D01*
X1222631Y9942390D01*
X1215773Y9935532D01*
X1205359Y9931976D01*
X1180975Y9931976D01*
X1252349Y10004874D02*
G01*
X1252349Y9931976D01*
X1252349Y10004874D02*
G01*
X1276733Y10004874D01*
X1286893Y10001318D01*
X1294005Y9994460D01*
X1297307Y9987602D01*
X1300863Y9977188D01*
X1300863Y9959662D01*
X1297307Y9949502D01*
X1294005Y9942390D01*
X1286893Y9935532D01*
X1276733Y9931976D01*
X1252349Y9931976D01*
X1323723Y10004874D02*
G01*
X1323723Y9931976D01*
X1323723Y10004874D02*
G01*
X1354965Y10004874D01*
X1365379Y10001318D01*
X1368681Y9997762D01*
X1372237Y9990904D01*
X1372237Y9984046D01*
X1368681Y9977188D01*
X1365379Y9973632D01*
X1354965Y9970076D01*
X1323723Y9970076D01*
X1347853Y9970076D02*
G01*
X1372237Y9931976D01*
X1130429Y9749462D02*
G01*
X1102743Y9676564D01*
X1130429Y9749462D02*
G01*
X1158115Y9676564D01*
X1113157Y9700948D02*
G01*
X1147701Y9700948D01*
X1180975Y9749462D02*
G01*
X1180975Y9676564D01*
X1180975Y9676564D02*
G01*
X1222631Y9676564D01*
X1245491Y9749462D02*
G01*
X1245491Y9676564D01*
X1245491Y9749462D02*
G01*
X1276733Y9749462D01*
X1286893Y9745906D01*
X1290449Y9742350D01*
X1294005Y9735492D01*
X1294005Y9728634D01*
X1290449Y9721776D01*
X1286893Y9718220D01*
X1276733Y9714664D01*
X1245491Y9714664D01*
X1269621Y9714664D02*
G01*
X1294005Y9676564D01*
X1340995Y9749462D02*
G01*
X1340995Y9676564D01*
X1316865Y9749462D02*
G01*
X1365379Y9749462D01*
X1130429Y9494052D02*
G01*
X1102743Y9421154D01*
X1130429Y9494052D02*
G01*
X1158115Y9421154D01*
X1113157Y9445538D02*
G01*
X1147701Y9445538D01*
X1201803Y9494052D02*
G01*
X1191389Y9490496D01*
X1184531Y9480082D01*
X1180975Y9462810D01*
X1180975Y9452396D01*
X1184531Y9435124D01*
X1191389Y9424710D01*
X1201803Y9421154D01*
X1208661Y9421154D01*
X1219075Y9424710D01*
X1225933Y9435124D01*
X1229489Y9452396D01*
X1229489Y9462810D01*
X1225933Y9480082D01*
X1219075Y9490496D01*
X1208661Y9494052D01*
X1201803Y9494052D01*
X1130429Y9238640D02*
G01*
X1102743Y9165742D01*
X1130429Y9238640D02*
G01*
X1158115Y9165742D01*
X1113157Y9190126D02*
G01*
X1147701Y9190126D01*
X1180975Y9224670D02*
G01*
X1187833Y9228226D01*
X1198247Y9238640D01*
X1198247Y9165742D01*
X1130429Y8983230D02*
G01*
X1102743Y8910332D01*
X1130429Y8983230D02*
G01*
X1158115Y8910332D01*
X1113157Y8934716D02*
G01*
X1147701Y8934716D01*
X1184531Y8965958D02*
G01*
X1184531Y8969260D01*
X1187833Y8976118D01*
X1191389Y8979674D01*
X1198247Y8983230D01*
X1212217Y8983230D01*
X1219075Y8979674D01*
X1222631Y8976118D01*
X1225933Y8969260D01*
X1225933Y8962402D01*
X1222631Y8955544D01*
X1215773Y8945130D01*
X1180975Y8910332D01*
X1229489Y8910332D01*
X1130429Y8727818D02*
G01*
X1102743Y8654920D01*
X1130429Y8727818D02*
G01*
X1158115Y8654920D01*
X1113157Y8679304D02*
G01*
X1147701Y8679304D01*
X1187833Y8727818D02*
G01*
X1225933Y8727818D01*
X1205359Y8700132D01*
X1215773Y8700132D01*
X1222631Y8696576D01*
X1225933Y8693020D01*
X1229489Y8682606D01*
X1229489Y8675748D01*
X1225933Y8665334D01*
X1219075Y8658476D01*
X1208661Y8654920D01*
X1198247Y8654920D01*
X1187833Y8658476D01*
X1184531Y8662032D01*
X1180975Y8668890D01*
D13*
X2880743Y11863956D02*
G01*
X2563243Y11863956D01*
D14*
X2880743Y11863956D02*
G01*
X2880743Y11609956D01*
X2372743Y11609956D01*
X2372743Y11863956D01*
X2563243Y11863956D01*
D13*
X2880743Y12168756D02*
G01*
X2563243Y12168756D01*
D14*
X2880743Y12168756D02*
G01*
X2880743Y11914756D01*
X2372743Y11914756D01*
X2372743Y12168756D01*
X2563243Y12168756D01*
D13*
X2880743Y11559156D02*
G01*
X2563243Y11559156D01*
D14*
X2880743Y11559156D02*
G01*
X2880743Y11305156D01*
X2372743Y11305156D01*
X2372743Y11559156D01*
X2563243Y11559156D01*
D15*
X3037842Y13904955D02*
G01*
X3037842Y13004954D01*
X2037841Y13904955D02*
G01*
X3037842Y13904955D01*
X2037841Y13163024D02*
G01*
X3037842Y13163024D01*
X2037841Y13693884D02*
G01*
X3037842Y13693884D01*
X2037841Y13004957D02*
G01*
X3037842Y13004957D01*
X2037841Y13904955D02*
G01*
X2037841Y13004954D01*
X4421672Y8612756D02*
G01*
X4489861Y8612756D01*
X4421672Y8549256D02*
G01*
X4489861Y8549256D01*
X3558072Y8612756D02*
G01*
X3489876Y8612756D01*
X3558072Y8549256D02*
G01*
X3489876Y8549256D01*
X4489871Y8487056D02*
G01*
X3489876Y8487056D01*
X4314761Y8549256D02*
G01*
X4314761Y8487056D01*
X4162361Y8549256D02*
G01*
X4162361Y8487056D01*
X4489861Y9077055D02*
G01*
X4489861Y8487056D01*
X4489871Y9077055D02*
G01*
X3489876Y9077055D01*
X3814775Y8549256D02*
G01*
X3814775Y8487056D01*
X3662375Y8549256D02*
G01*
X3662375Y8487056D01*
X3489876Y9077055D02*
G01*
X3489876Y8487056D01*
X3560777Y9019156D02*
G01*
X4421685Y9019156D01*
X4421685Y8549256D01*
X3560777Y8549256D01*
X3560777Y9019156D01*
X5677562Y8612756D02*
G01*
X5745751Y8612756D01*
X5677562Y8549256D02*
G01*
X5745751Y8549256D01*
X4813962Y8612756D02*
G01*
X4745766Y8612756D01*
X4813962Y8549256D02*
G01*
X4745766Y8549256D01*
X5745761Y8487056D02*
G01*
X4745766Y8487056D01*
X5570651Y8549256D02*
G01*
X5570651Y8487056D01*
X5418251Y8549256D02*
G01*
X5418251Y8487056D01*
X5745751Y9077055D02*
G01*
X5745751Y8487056D01*
X5745761Y9077055D02*
G01*
X4745766Y9077055D01*
X5070665Y8549256D02*
G01*
X5070665Y8487056D01*
X4918265Y8549256D02*
G01*
X4918265Y8487056D01*
X4745766Y9077055D02*
G01*
X4745766Y8487056D01*
X4816668Y9019156D02*
G01*
X5677575Y9019156D01*
X5677575Y8549256D01*
X4816668Y8549256D01*
X4816668Y9019156D01*
X6933453Y8612756D02*
G01*
X7001642Y8612756D01*
X6933453Y8549256D02*
G01*
X7001642Y8549256D01*
X6069853Y8612756D02*
G01*
X6001656Y8612756D01*
X6069853Y8549256D02*
G01*
X6001656Y8549256D01*
X7001652Y8487056D02*
G01*
X6001656Y8487056D01*
X6826542Y8549256D02*
G01*
X6826542Y8487056D01*
X6674142Y8549256D02*
G01*
X6674142Y8487056D01*
X7001642Y9077055D02*
G01*
X7001642Y8487056D01*
X7001652Y9077055D02*
G01*
X6001656Y9077055D01*
X6326555Y8549256D02*
G01*
X6326555Y8487056D01*
X6174155Y8549256D02*
G01*
X6174155Y8487056D01*
X6001656Y9077055D02*
G01*
X6001656Y8487056D01*
X6072558Y9019156D02*
G01*
X6933465Y9019156D01*
X6933465Y8549256D01*
X6072558Y8549256D01*
X6072558Y9019156D01*
X8189343Y8612756D02*
G01*
X8257532Y8612756D01*
X8189343Y8549256D02*
G01*
X8257532Y8549256D01*
X7325743Y8612756D02*
G01*
X7257547Y8612756D01*
X7325743Y8549256D02*
G01*
X7257547Y8549256D01*
X8257542Y8487056D02*
G01*
X7257547Y8487056D01*
X8082432Y8549256D02*
G01*
X8082432Y8487056D01*
X7930032Y8549256D02*
G01*
X7930032Y8487056D01*
X8257532Y9077055D02*
G01*
X8257532Y8487056D01*
X8257542Y9077055D02*
G01*
X7257547Y9077055D01*
X7582446Y8549256D02*
G01*
X7582446Y8487056D01*
X7430046Y8549256D02*
G01*
X7430046Y8487056D01*
X7257547Y9077055D02*
G01*
X7257547Y8487056D01*
X7328448Y9019156D02*
G01*
X8189356Y9019156D01*
X8189356Y8549256D01*
X7328448Y8549256D01*
X7328448Y9019156D01*
X3558072Y13768956D02*
G01*
X3489883Y13768956D01*
X3558072Y13832456D02*
G01*
X3489883Y13832456D01*
X4421672Y13768956D02*
G01*
X4489869Y13768956D01*
X4421672Y13832456D02*
G01*
X4489869Y13832456D01*
X3489873Y13894655D02*
G01*
X4489869Y13894655D01*
X3664983Y13832456D02*
G01*
X3664983Y13894655D01*
X3817383Y13832456D02*
G01*
X3817383Y13894655D01*
X3489883Y13304657D02*
G01*
X3489883Y13894655D01*
X3489873Y13304657D02*
G01*
X4489869Y13304657D01*
X4164970Y13832456D02*
G01*
X4164970Y13894655D01*
X4317370Y13832456D02*
G01*
X4317370Y13894655D01*
X4489869Y13304657D02*
G01*
X4489869Y13894655D01*
X4418967Y13362556D02*
G01*
X3558059Y13362556D01*
X3558059Y13832456D01*
X4418967Y13832456D01*
X4418967Y13362556D01*
X4813962Y13768956D02*
G01*
X4745774Y13768956D01*
X4813962Y13832456D02*
G01*
X4745774Y13832456D01*
X5677562Y13768956D02*
G01*
X5745759Y13768956D01*
X5677562Y13832456D02*
G01*
X5745759Y13832456D01*
X4745763Y13894655D02*
G01*
X5745759Y13894655D01*
X4920874Y13832456D02*
G01*
X4920874Y13894655D01*
X5073274Y13832456D02*
G01*
X5073274Y13894655D01*
X4745774Y13304657D02*
G01*
X4745774Y13894655D01*
X4745763Y13304657D02*
G01*
X5745759Y13304657D01*
X5420860Y13832456D02*
G01*
X5420860Y13894655D01*
X5573260Y13832456D02*
G01*
X5573260Y13894655D01*
X5745759Y13304657D02*
G01*
X5745759Y13894655D01*
X5674857Y13362556D02*
G01*
X4813950Y13362556D01*
X4813950Y13832456D01*
X5674857Y13832456D01*
X5674857Y13362556D01*
X6069853Y13768956D02*
G01*
X6001664Y13768956D01*
X6069853Y13832456D02*
G01*
X6001664Y13832456D01*
X6933453Y13768956D02*
G01*
X7001649Y13768956D01*
X6933453Y13832456D02*
G01*
X7001649Y13832456D01*
X6001654Y13894655D02*
G01*
X7001649Y13894655D01*
X6176764Y13832456D02*
G01*
X6176764Y13894655D01*
X6329164Y13832456D02*
G01*
X6329164Y13894655D01*
X6001664Y13304657D02*
G01*
X6001664Y13894655D01*
X6001654Y13304657D02*
G01*
X7001649Y13304657D01*
X6676750Y13832456D02*
G01*
X6676750Y13894655D01*
X6829150Y13832456D02*
G01*
X6829150Y13894655D01*
X7001649Y13304657D02*
G01*
X7001649Y13894655D01*
X6930748Y13362556D02*
G01*
X6069840Y13362556D01*
X6069840Y13832456D01*
X6930748Y13832456D01*
X6930748Y13362556D01*
X7325743Y13768956D02*
G01*
X7257554Y13768956D01*
X7325743Y13832456D02*
G01*
X7257554Y13832456D01*
X8189343Y13768956D02*
G01*
X8257540Y13768956D01*
X8189343Y13832456D02*
G01*
X8257540Y13832456D01*
X7257544Y13894655D02*
G01*
X8257540Y13894655D01*
X7432654Y13832456D02*
G01*
X7432654Y13894655D01*
X7585054Y13832456D02*
G01*
X7585054Y13894655D01*
X7257554Y13304657D02*
G01*
X7257554Y13894655D01*
X7257544Y13304657D02*
G01*
X8257540Y13304657D01*
X7932640Y13832456D02*
G01*
X7932640Y13894655D01*
X8085040Y13832456D02*
G01*
X8085040Y13894655D01*
X8257540Y13304657D02*
G01*
X8257540Y13894655D01*
X8186638Y13362556D02*
G01*
X7325730Y13362556D01*
X7325730Y13832456D01*
X8186638Y13832456D01*
X8186638Y13362556D01*
D14*
X1610743Y12879956D02*
G01*
X1356743Y12879956D01*
X1356743Y13895956D01*
X1610743Y13895956D01*
X1610743Y13705456D01*
D13*
X1610743Y12879956D02*
G01*
X1610743Y13705456D01*
D14*
X2588643Y9704956D02*
G01*
X2842643Y9704956D01*
X2842643Y8688956D01*
X2588643Y8688956D01*
X2588646Y8879456D01*
D13*
X2588643Y9704956D02*
G01*
X2588646Y8879456D01*
D16*
X1191643Y12600556D02*
G01*
X1255143Y12537056D01*
X1318643Y12600556D01*
X1445643Y12600556D01*
X1509143Y12537056D01*
X1572643Y12600556D01*
X1699643Y12600556D01*
X1763143Y12537056D01*
X1826643Y12600556D01*
X1953643Y12600556D01*
X2017143Y12537056D01*
X2080643Y12600556D01*
X2207643Y12600556D01*
X2271143Y12537056D01*
X2271143Y12410056D01*
X2207643Y12346556D01*
X2080643Y12346556D01*
X2017143Y12410056D01*
X1953643Y12346556D01*
X1826643Y12346556D01*
X1763143Y12410056D01*
X1699643Y12346556D01*
X1572643Y12346556D01*
X1509143Y12410056D01*
X1445643Y12346556D01*
X1318643Y12346556D01*
X1255143Y12410056D01*
X1191643Y12346556D01*
X1064643Y12346556D01*
X1001143Y12410056D01*
X937643Y12346556D01*
X810643Y12346556D01*
X747143Y12410056D01*
X747143Y12537056D01*
X810643Y12600556D01*
X937643Y12600556D01*
X1001143Y12537056D01*
X1064643Y12600556D01*
X1191643Y12600556D01*
X1191643Y11330556D02*
G01*
X1064643Y11330556D01*
X1001143Y11394056D01*
X937643Y11330556D01*
X810643Y11330556D01*
X747143Y11394056D01*
X747143Y11521056D01*
X810643Y11584556D01*
X937643Y11584556D01*
X1001143Y11521056D01*
X1064643Y11584556D01*
X1191643Y11584556D01*
X1255143Y11521056D01*
X1318643Y11584556D01*
X1445643Y11584556D01*
X1509143Y11521056D01*
X1572643Y11584556D01*
X1699643Y11584556D01*
X1763143Y11521056D01*
X1826643Y11584556D01*
X1953643Y11584556D01*
X2017143Y11521056D01*
X2080643Y11584556D01*
X2207643Y11584556D01*
X2271143Y11521056D01*
X2271143Y11394056D01*
X2207643Y11330556D01*
X2080643Y11330556D01*
X2017143Y11394056D01*
X1953643Y11330556D01*
X1826643Y11330556D01*
X1763143Y11394056D01*
X1699643Y11330556D01*
X1572643Y11330556D01*
X1509143Y11394056D01*
X1445643Y11330556D01*
X1318643Y11330556D01*
X1255143Y11394056D01*
X1191643Y11330556D01*
X1382143Y11749656D02*
G01*
X1382143Y11648056D01*
X1382143Y12181456D02*
G01*
X1382143Y12283056D01*
X2296543Y12625956D02*
G01*
X2296543Y11305156D01*
X721743Y11305156D01*
X721743Y12625956D01*
X2296543Y12625956D01*
D15*
X2842643Y12816456D02*
G01*
X2868043Y12816456D01*
X2334643Y12816456D02*
G01*
X2309243Y12816456D01*
X2842643Y12816456D02*
G01*
X2842643Y12740256D01*
X2842643Y12892656D02*
G01*
X2842643Y12816456D01*
X2334643Y12892656D02*
G01*
X2842643Y12892656D01*
X2334643Y12816456D02*
G01*
X2334643Y12892656D01*
X2334643Y12740256D02*
G01*
X2334643Y12816456D01*
X2842643Y12740256D02*
G01*
X2334643Y12740256D01*
D14*
X1293243Y12879956D02*
G01*
X1039243Y12879956D01*
X1039243Y13895956D01*
X1293243Y13895956D01*
X1293243Y13705456D01*
D13*
X1293243Y12879956D02*
G01*
X1293243Y13705456D01*
D14*
X975743Y12879956D02*
G01*
X721743Y12879956D01*
X721743Y13895956D01*
X975743Y13895956D01*
X975743Y13705456D01*
D13*
X975743Y12879956D02*
G01*
X975743Y13705456D01*
D16*
X8424928Y9752962D02*
G01*
X2949958Y9752962D01*
X2949958Y12577950D01*
X8424928Y12577950D01*
X8424928Y9752962D01*
X3655443Y10403456D02*
G01*
X3655443Y11927456D01*
X5052443Y11927456D01*
X5052443Y10403456D01*
X3655443Y10403456D01*
X7973443Y10911456D02*
G01*
X7973443Y11546456D01*
X8481443Y11546456D01*
X8481443Y10911456D01*
X7973443Y10911456D01*
D15*
X6551043Y12765656D02*
G01*
X6424043Y12765656D01*
X6424043Y12765656D02*
G01*
X6360543Y12829156D01*
X6360543Y12956156D02*
G01*
X6424043Y13019656D01*
X6868543Y12829156D02*
G01*
X6805043Y12765656D01*
X6805043Y12765656D02*
G01*
X6678043Y12765656D01*
X6678043Y12765656D02*
G01*
X6614543Y12829156D01*
X6614543Y12956156D02*
G01*
X6678043Y13019656D01*
X6678043Y13019656D02*
G01*
X6805043Y13019656D01*
X6805043Y13019656D02*
G01*
X6868543Y12956156D01*
X6551043Y12765656D02*
G01*
X6614543Y12829156D01*
X6614543Y12956156D02*
G01*
X6551043Y13019656D01*
X6424043Y13019656D02*
G01*
X6551043Y13019656D01*
X7313043Y12765656D02*
G01*
X7186043Y12765656D01*
X7186043Y12765656D02*
G01*
X7122543Y12829156D01*
X7122543Y12956156D02*
G01*
X7186043Y13019656D01*
X7122543Y12829156D02*
G01*
X7059043Y12765656D01*
X7059043Y12765656D02*
G01*
X6932043Y12765656D01*
X6932043Y12765656D02*
G01*
X6868543Y12829156D01*
X6868543Y12956156D02*
G01*
X6932043Y13019656D01*
X6932043Y13019656D02*
G01*
X7059043Y13019656D01*
X7059043Y13019656D02*
G01*
X7122543Y12956156D01*
X7630543Y12829156D02*
G01*
X7567043Y12765656D01*
X7567043Y12765656D02*
G01*
X7440043Y12765656D01*
X7440043Y12765656D02*
G01*
X7376543Y12829156D01*
X7376543Y12956156D02*
G01*
X7440043Y13019656D01*
X7440043Y13019656D02*
G01*
X7567043Y13019656D01*
X7567043Y13019656D02*
G01*
X7630543Y12956156D01*
X7313043Y12765656D02*
G01*
X7376543Y12829156D01*
X7376543Y12956156D02*
G01*
X7313043Y13019656D01*
X7186043Y13019656D02*
G01*
X7313043Y13019656D01*
X8075043Y12765656D02*
G01*
X7948043Y12765656D01*
X7948043Y12765656D02*
G01*
X7884543Y12829156D01*
X7884543Y12956156D02*
G01*
X7948043Y13019656D01*
X7884543Y12829156D02*
G01*
X7821043Y12765656D01*
X7821043Y12765656D02*
G01*
X7694043Y12765656D01*
X7694043Y12765656D02*
G01*
X7630543Y12829156D01*
X7630543Y12956156D02*
G01*
X7694043Y13019656D01*
X7694043Y13019656D02*
G01*
X7821043Y13019656D01*
X7821043Y13019656D02*
G01*
X7884543Y12956156D01*
X8138543Y12829156D02*
G01*
X8138543Y12956156D01*
X8075043Y12765656D02*
G01*
X8138543Y12829156D01*
X8138543Y12956156D02*
G01*
X8075043Y13019656D01*
X7948043Y13019656D02*
G01*
X8075043Y13019656D01*
X4773043Y12765656D02*
G01*
X4646043Y12765656D01*
X4646043Y12765656D02*
G01*
X4582543Y12829156D01*
X4582543Y12956156D02*
G01*
X4646043Y13019656D01*
X5090543Y12829156D02*
G01*
X5027043Y12765656D01*
X5027043Y12765656D02*
G01*
X4900043Y12765656D01*
X4900043Y12765656D02*
G01*
X4836543Y12829156D01*
X4836543Y12956156D02*
G01*
X4900043Y13019656D01*
X4900043Y13019656D02*
G01*
X5027043Y13019656D01*
X5027043Y13019656D02*
G01*
X5090543Y12956156D01*
X4773043Y12765656D02*
G01*
X4836543Y12829156D01*
X4836543Y12956156D02*
G01*
X4773043Y13019656D01*
X4646043Y13019656D02*
G01*
X4773043Y13019656D01*
X5535043Y12765656D02*
G01*
X5408043Y12765656D01*
X5408043Y12765656D02*
G01*
X5344543Y12829156D01*
X5344543Y12956156D02*
G01*
X5408043Y13019656D01*
X5344543Y12829156D02*
G01*
X5281043Y12765656D01*
X5281043Y12765656D02*
G01*
X5154043Y12765656D01*
X5154043Y12765656D02*
G01*
X5090543Y12829156D01*
X5090543Y12956156D02*
G01*
X5154043Y13019656D01*
X5154043Y13019656D02*
G01*
X5281043Y13019656D01*
X5281043Y13019656D02*
G01*
X5344543Y12956156D01*
X5852543Y12829156D02*
G01*
X5789043Y12765656D01*
X5789043Y12765656D02*
G01*
X5662043Y12765656D01*
X5662043Y12765656D02*
G01*
X5598543Y12829156D01*
X5598543Y12956156D02*
G01*
X5662043Y13019656D01*
X5662043Y13019656D02*
G01*
X5789043Y13019656D01*
X5789043Y13019656D02*
G01*
X5852543Y12956156D01*
X5535043Y12765656D02*
G01*
X5598543Y12829156D01*
X5598543Y12956156D02*
G01*
X5535043Y13019656D01*
X5408043Y13019656D02*
G01*
X5535043Y13019656D01*
X6297043Y12765656D02*
G01*
X6170043Y12765656D01*
X6170043Y12765656D02*
G01*
X6106543Y12829156D01*
X6106543Y12956156D02*
G01*
X6170043Y13019656D01*
X6106543Y12829156D02*
G01*
X6043043Y12765656D01*
X6043043Y12765656D02*
G01*
X5916043Y12765656D01*
X5916043Y12765656D02*
G01*
X5852543Y12829156D01*
X5852543Y12956156D02*
G01*
X5916043Y13019656D01*
X5916043Y13019656D02*
G01*
X6043043Y13019656D01*
X6043043Y13019656D02*
G01*
X6106543Y12956156D01*
X6297043Y12765656D02*
G01*
X6360543Y12829156D01*
X6360543Y12956156D02*
G01*
X6297043Y13019656D01*
X6170043Y13019656D02*
G01*
X6297043Y13019656D01*
X4519043Y12765656D02*
G01*
X4582543Y12829156D01*
X4519043Y12765656D02*
G01*
X4392043Y12765656D01*
X4392043Y12765656D02*
G01*
X4328543Y12829156D01*
X4328543Y12956156D02*
G01*
X4392043Y13019656D01*
X4392043Y13019656D02*
G01*
X4519043Y13019656D01*
X4582543Y12956156D02*
G01*
X4519043Y13019656D01*
X4265043Y12765656D02*
G01*
X4328543Y12829156D01*
X4265043Y12765656D02*
G01*
X4138043Y12765656D01*
X4138043Y12765656D02*
G01*
X4074543Y12829156D01*
X4074543Y12956156D02*
G01*
X4138043Y13019656D01*
X4138043Y13019656D02*
G01*
X4265043Y13019656D01*
X4328543Y12956156D02*
G01*
X4265043Y13019656D01*
X4011043Y12765656D02*
G01*
X4074543Y12829156D01*
X4011043Y12765656D02*
G01*
X3884043Y12765656D01*
X3884043Y12765656D02*
G01*
X3820543Y12829156D01*
X3820543Y12956156D02*
G01*
X3884043Y13019656D01*
X3884043Y13019656D02*
G01*
X4011043Y13019656D01*
X4074543Y12956156D02*
G01*
X4011043Y13019656D01*
X3757043Y12765656D02*
G01*
X3820543Y12829156D01*
X3757043Y12765656D02*
G01*
X3630043Y12765656D01*
X3630043Y12765656D02*
G01*
X3566543Y12829156D01*
X3566543Y12956156D02*
G01*
X3630043Y13019656D01*
X3630043Y13019656D02*
G01*
X3757043Y13019656D01*
X3820543Y12956156D02*
G01*
X3757043Y13019656D01*
X3503043Y12765656D02*
G01*
X3566543Y12829156D01*
X3503043Y12765656D02*
G01*
X3376043Y12765656D01*
X3376043Y12765656D02*
G01*
X3312543Y12829156D01*
X3312543Y12956156D02*
G01*
X3376043Y13019656D01*
X3376043Y13019656D02*
G01*
X3503043Y13019656D01*
X3566543Y12956156D02*
G01*
X3503043Y13019656D01*
X3312543Y12829156D02*
G01*
X3312543Y12956156D01*
X721743Y8447656D02*
G01*
X721743Y11241656D01*
X2499743Y11241656D01*
X2499743Y8447656D01*
X721743Y8447656D01*
X1039243Y9654156D02*
G01*
X975743Y9590656D01*
X1039243Y9527156D01*
X1039243Y9400156D01*
X975743Y9336656D01*
X1039243Y9273156D01*
X1039243Y9146156D01*
X975743Y9082656D01*
X1039243Y9019156D01*
X1039243Y8892156D01*
X975743Y8828656D01*
X1039243Y8765156D01*
X1039243Y8638156D01*
X975743Y8574656D01*
X848743Y8574656D01*
X785243Y8638156D01*
X785243Y8765156D01*
X848743Y8828656D01*
X785243Y8892156D01*
X785243Y9019156D01*
X848743Y9082656D01*
X785243Y9146156D01*
X785243Y9273156D01*
X848743Y9336656D01*
X785243Y9400156D01*
X785243Y9527156D01*
X848743Y9590656D01*
X785243Y9654156D01*
X785243Y9781156D01*
X848743Y9844656D01*
X785243Y9908156D01*
X785243Y10035156D01*
X848743Y10098656D01*
X785243Y10162156D01*
X785243Y10289156D01*
X848743Y10352656D01*
X785243Y10416156D01*
X785243Y10543156D01*
X848743Y10606656D01*
X785243Y10670156D01*
X785243Y10797156D01*
X848743Y10860656D01*
X785243Y10924156D01*
X785243Y11051156D01*
X848743Y11114656D01*
X975743Y11114656D01*
X1039243Y11051156D01*
X1039243Y10924156D01*
X975743Y10860656D01*
X1039243Y10797156D01*
X1039243Y10670156D01*
X975743Y10606656D01*
X1039243Y10543156D01*
X1039243Y10416156D01*
X975743Y10352656D01*
X1039243Y10289156D01*
X1039243Y10162156D01*
X975743Y10098656D01*
X1039243Y10035156D01*
X1039243Y9908156D01*
X975743Y9844656D01*
X1039243Y9781156D01*
X1039243Y9654156D01*
X6538343Y9323956D02*
G01*
X6411343Y9323956D01*
X6411343Y9323956D02*
G01*
X6347843Y9387456D01*
X6347843Y9514456D02*
G01*
X6411343Y9577956D01*
X6855843Y9387456D02*
G01*
X6792343Y9323956D01*
X6792343Y9323956D02*
G01*
X6665343Y9323956D01*
X6665343Y9323956D02*
G01*
X6601843Y9387456D01*
X6601843Y9514456D02*
G01*
X6665343Y9577956D01*
X6665343Y9577956D02*
G01*
X6792343Y9577956D01*
X6792343Y9577956D02*
G01*
X6855843Y9514456D01*
X6538343Y9323956D02*
G01*
X6601843Y9387456D01*
X6601843Y9514456D02*
G01*
X6538343Y9577956D01*
X6411343Y9577956D02*
G01*
X6538343Y9577956D01*
X7300343Y9323956D02*
G01*
X7173343Y9323956D01*
X7173343Y9323956D02*
G01*
X7109843Y9387456D01*
X7109843Y9514456D02*
G01*
X7173343Y9577956D01*
X7109843Y9387456D02*
G01*
X7046343Y9323956D01*
X7046343Y9323956D02*
G01*
X6919343Y9323956D01*
X6919343Y9323956D02*
G01*
X6855843Y9387456D01*
X6855843Y9514456D02*
G01*
X6919343Y9577956D01*
X6919343Y9577956D02*
G01*
X7046343Y9577956D01*
X7046343Y9577956D02*
G01*
X7109843Y9514456D01*
X7617843Y9387456D02*
G01*
X7554343Y9323956D01*
X7554343Y9323956D02*
G01*
X7427343Y9323956D01*
X7427343Y9323956D02*
G01*
X7363843Y9387456D01*
X7363843Y9514456D02*
G01*
X7427343Y9577956D01*
X7427343Y9577956D02*
G01*
X7554343Y9577956D01*
X7554343Y9577956D02*
G01*
X7617843Y9514456D01*
X7300343Y9323956D02*
G01*
X7363843Y9387456D01*
X7363843Y9514456D02*
G01*
X7300343Y9577956D01*
X7173343Y9577956D02*
G01*
X7300343Y9577956D01*
X8062343Y9323956D02*
G01*
X7935343Y9323956D01*
X7935343Y9323956D02*
G01*
X7871843Y9387456D01*
X7871843Y9514456D02*
G01*
X7935343Y9577956D01*
X7871843Y9387456D02*
G01*
X7808343Y9323956D01*
X7808343Y9323956D02*
G01*
X7681343Y9323956D01*
X7681343Y9323956D02*
G01*
X7617843Y9387456D01*
X7617843Y9514456D02*
G01*
X7681343Y9577956D01*
X7681343Y9577956D02*
G01*
X7808343Y9577956D01*
X7808343Y9577956D02*
G01*
X7871843Y9514456D01*
X8125843Y9387456D02*
G01*
X8125843Y9514456D01*
X8062343Y9323956D02*
G01*
X8125843Y9387456D01*
X8125843Y9514456D02*
G01*
X8062343Y9577956D01*
X7935343Y9577956D02*
G01*
X8062343Y9577956D01*
X4760343Y9323956D02*
G01*
X4633343Y9323956D01*
X4633343Y9323956D02*
G01*
X4569843Y9387456D01*
X4569843Y9514456D02*
G01*
X4633343Y9577956D01*
X5077843Y9387456D02*
G01*
X5014343Y9323956D01*
X5014343Y9323956D02*
G01*
X4887343Y9323956D01*
X4887343Y9323956D02*
G01*
X4823843Y9387456D01*
X4823843Y9514456D02*
G01*
X4887343Y9577956D01*
X4887343Y9577956D02*
G01*
X5014343Y9577956D01*
X5014343Y9577956D02*
G01*
X5077843Y9514456D01*
X4760343Y9323956D02*
G01*
X4823843Y9387456D01*
X4823843Y9514456D02*
G01*
X4760343Y9577956D01*
X4633343Y9577956D02*
G01*
X4760343Y9577956D01*
X5522343Y9323956D02*
G01*
X5395343Y9323956D01*
X5395343Y9323956D02*
G01*
X5331843Y9387456D01*
X5331843Y9514456D02*
G01*
X5395343Y9577956D01*
X5331843Y9387456D02*
G01*
X5268343Y9323956D01*
X5268343Y9323956D02*
G01*
X5141343Y9323956D01*
X5141343Y9323956D02*
G01*
X5077843Y9387456D01*
X5077843Y9514456D02*
G01*
X5141343Y9577956D01*
X5141343Y9577956D02*
G01*
X5268343Y9577956D01*
X5268343Y9577956D02*
G01*
X5331843Y9514456D01*
X5839843Y9387456D02*
G01*
X5776343Y9323956D01*
X5776343Y9323956D02*
G01*
X5649343Y9323956D01*
X5649343Y9323956D02*
G01*
X5585843Y9387456D01*
X5585843Y9514456D02*
G01*
X5649343Y9577956D01*
X5649343Y9577956D02*
G01*
X5776343Y9577956D01*
X5776343Y9577956D02*
G01*
X5839843Y9514456D01*
X5522343Y9323956D02*
G01*
X5585843Y9387456D01*
X5585843Y9514456D02*
G01*
X5522343Y9577956D01*
X5395343Y9577956D02*
G01*
X5522343Y9577956D01*
X6284343Y9323956D02*
G01*
X6157343Y9323956D01*
X6157343Y9323956D02*
G01*
X6093843Y9387456D01*
X6093843Y9514456D02*
G01*
X6157343Y9577956D01*
X6093843Y9387456D02*
G01*
X6030343Y9323956D01*
X6030343Y9323956D02*
G01*
X5903343Y9323956D01*
X5903343Y9323956D02*
G01*
X5839843Y9387456D01*
X5839843Y9514456D02*
G01*
X5903343Y9577956D01*
X5903343Y9577956D02*
G01*
X6030343Y9577956D01*
X6030343Y9577956D02*
G01*
X6093843Y9514456D01*
X6284343Y9323956D02*
G01*
X6347843Y9387456D01*
X6347843Y9514456D02*
G01*
X6284343Y9577956D01*
X6157343Y9577956D02*
G01*
X6284343Y9577956D01*
X4506343Y9323956D02*
G01*
X4569843Y9387456D01*
X4506343Y9323956D02*
G01*
X4379343Y9323956D01*
X4379343Y9323956D02*
G01*
X4315843Y9387456D01*
X4315843Y9514456D02*
G01*
X4379343Y9577956D01*
X4379343Y9577956D02*
G01*
X4506343Y9577956D01*
X4569843Y9514456D02*
G01*
X4506343Y9577956D01*
X4252343Y9323956D02*
G01*
X4315843Y9387456D01*
X4252343Y9323956D02*
G01*
X4125343Y9323956D01*
X4125343Y9323956D02*
G01*
X4061843Y9387456D01*
X4061843Y9514456D02*
G01*
X4125343Y9577956D01*
X4125343Y9577956D02*
G01*
X4252343Y9577956D01*
X4315843Y9514456D02*
G01*
X4252343Y9577956D01*
X3998343Y9323956D02*
G01*
X4061843Y9387456D01*
X3998343Y9323956D02*
G01*
X3871343Y9323956D01*
X3871343Y9323956D02*
G01*
X3807843Y9387456D01*
X3807843Y9514456D02*
G01*
X3871343Y9577956D01*
X3871343Y9577956D02*
G01*
X3998343Y9577956D01*
X4061843Y9514456D02*
G01*
X3998343Y9577956D01*
X3744343Y9323956D02*
G01*
X3807843Y9387456D01*
X3744343Y9323956D02*
G01*
X3617343Y9323956D01*
X3617343Y9323956D02*
G01*
X3553843Y9387456D01*
X3553843Y9514456D02*
G01*
X3617343Y9577956D01*
X3617343Y9577956D02*
G01*
X3744343Y9577956D01*
X3807843Y9514456D02*
G01*
X3744343Y9577956D01*
X3490343Y9323956D02*
G01*
X3553843Y9387456D01*
X3490343Y9323956D02*
G01*
X3363343Y9323956D01*
X3363343Y9323956D02*
G01*
X3299843Y9387456D01*
X3299843Y9514456D02*
G01*
X3363343Y9577956D01*
X3363343Y9577956D02*
G01*
X3490343Y9577956D01*
X3553843Y9514456D02*
G01*
X3490343Y9577956D01*
X3299843Y9387456D02*
G01*
X3299843Y9514456D01*
X718565Y13908659D02*
G01*
X1969515Y13908659D01*
X1969515Y12714859D01*
X718565Y12714859D01*
X718565Y13908659D01*
X721740Y12879959D02*
G01*
X1966340Y12879959D01*
X1966340Y12714859D01*
X721740Y12714859D01*
X721740Y12879959D01*
G36*
X1280540Y13908659D02*
G01*
X1369440Y13908659D01*
X1369440Y12714859D01*
X1280540Y12714859D01*
G37*
G36*
X1604390Y12886309D02*
G01*
X1617090Y12886309D01*
X1617090Y12721209D01*
X1604390Y12721209D01*
G37*
G36*
X988440Y12879959D02*
G01*
X1001140Y12879959D01*
X1001140Y12714859D01*
X988440Y12714859D01*
G37*
G36*
X963040Y13895959D02*
G01*
X1051940Y13895959D01*
X1051940Y12702159D01*
X963040Y12702159D01*
G37*
X2588640Y9704959D02*
G01*
X3210940Y9704959D01*
X3210940Y8536559D01*
X2588640Y8536559D01*
X2588640Y9704959D01*
X2842640Y9704959D02*
G01*
X3210940Y9704959D01*
X3210940Y8688959D01*
X2842640Y8688959D01*
X2842640Y9704959D01*
X2372740Y12625959D02*
G01*
X2880740Y12625959D01*
X2880740Y11305159D01*
X2372740Y11305159D01*
X2372740Y12625959D01*
M02*
