G04 Layer: BottomSolderMaskLayer*
G04 EasyEDA v6.5.23, 2023-06-08 09:20:47*
G04 55327712f0a3441bad1e631ee7ba6bcd,133cb59a28494424a397ab70695d2c60,10*
G04 Gerber Generator version 0.2*
G04 Scale: 100 percent, Rotated: No, Reflected: No *
G04 Dimensions in millimeters *
G04 leading zeros omitted , absolute positions ,4 integer and 5 decimal *
%FSLAX45Y45*%
%MOMM*%

%AMMACRO1*1,1,$1,$2,$3*1,1,$1,$4,$5*1,1,$1,0-$2,0-$3*1,1,$1,0-$4,0-$5*20,1,$1,$2,$3,$4,$5,0*20,1,$1,$4,$5,0-$2,0-$3,0*20,1,$1,0-$2,0-$3,0-$4,0-$5,0*20,1,$1,0-$4,0-$5,$2,$3,0*4,1,4,$2,$3,$4,$5,0-$2,0-$3,0-$4,0-$5,$2,$3,0*%
%ADD10C,1.8020*%
%ADD11MACRO1,0.102X-0.85X0.85X0.85X0.85*%
%ADD12C,2.4016*%
%ADD13MACRO1,0.102X-1.15X1.15X1.15X1.15*%
%ADD14C,1.6240*%
%ADD15MACRO1,0.1X-0.762X0.762X0.762X0.762*%
%ADD16C,1.6770*%
%ADD17MACRO1,0.102X0.7875X0.7875X0.7875X-0.7875*%
%ADD18C,1.6764*%
%ADD19MACRO1,0.1016X-0.7874X-0.7874X-0.7874X0.7874*%
%ADD20MACRO1,0.1016X0.8382X0.8382X0.8382X-0.8382*%
%ADD21C,1.7780*%
%ADD22C,1.9812*%
%ADD23MACRO1,0.1016X-0.78X-0.78X-0.78X0.78*%
%ADD24C,1.6620*%
%ADD25MACRO1,0.1016X-0.6998X0.6998X0.6998X0.6998*%
%ADD26C,1.5011*%
%ADD27MACRO1,0.1016X0.9398X0.9398X0.9398X-0.9398*%

%LPD*%
D10*
G01*
X2499740Y11736959D03*
D11*
G01*
X2753734Y11736955D03*
D10*
G01*
X2499740Y12041759D03*
D11*
G01*
X2753734Y12041755D03*
D10*
G01*
X2499740Y11432159D03*
D11*
G01*
X2753734Y11432155D03*
D12*
G01*
X2287854Y13514959D03*
D13*
G01*
X2787818Y13514957D03*
D14*
G01*
X3739895Y8727059D03*
D15*
G01*
X3989898Y8727056D03*
D14*
G01*
X4239895Y8727059D03*
G01*
X4995773Y8727059D03*
D15*
G01*
X5245788Y8727056D03*
D14*
G01*
X5495772Y8727059D03*
G01*
X6251676Y8727059D03*
D15*
G01*
X6501678Y8727056D03*
D14*
G01*
X6751675Y8727059D03*
G01*
X7507554Y8727059D03*
D15*
G01*
X7757568Y8727056D03*
D14*
G01*
X8007553Y8727059D03*
G01*
X4239895Y13654659D03*
G01*
X3989857Y13654659D03*
G01*
X3739870Y13654659D03*
G01*
X5495772Y13654659D03*
G01*
X5245734Y13654659D03*
G01*
X4995748Y13654659D03*
G01*
X6751675Y13654659D03*
G01*
X6501638Y13654659D03*
G01*
X6251651Y13654659D03*
G01*
X8007553Y13654659D03*
G01*
X7757515Y13654659D03*
G01*
X7507528Y13654659D03*
D16*
G01*
X1483740Y13768959D03*
D17*
G01*
X1483723Y13514958D03*
D18*
G01*
X1483740Y13260959D03*
G01*
X1483740Y13006959D03*
D19*
G01*
X2715643Y8815956D03*
D18*
G01*
X2715640Y9069959D03*
G01*
X2715640Y9323959D03*
G01*
X2715640Y9577959D03*
D20*
G01*
X2144143Y11457556D03*
D21*
G01*
X1890140Y11457559D03*
D20*
G01*
X1636143Y11457556D03*
D21*
G01*
X1382140Y11457559D03*
G01*
X1128140Y11457559D03*
G01*
X874140Y11457559D03*
D20*
G01*
X2144143Y12473556D03*
D21*
G01*
X1890140Y12473559D03*
G01*
X1636140Y12473559D03*
G01*
X1382140Y12473559D03*
G01*
X1128140Y12473559D03*
G01*
X874140Y12473559D03*
D22*
G01*
X2969640Y12816459D03*
G01*
X2207640Y12816459D03*
D16*
G01*
X1166240Y13768959D03*
D17*
G01*
X1166243Y13514958D03*
D18*
G01*
X1166240Y13260959D03*
G01*
X1166240Y13006959D03*
D16*
G01*
X848740Y13768959D03*
D17*
G01*
X848743Y13514958D03*
D18*
G01*
X848740Y13260959D03*
G01*
X848740Y13006959D03*
D23*
G01*
X3423439Y9892459D03*
D24*
G01*
X3677437Y9892461D03*
G01*
X3931437Y9892461D03*
G01*
X4185437Y9892461D03*
G01*
X4439437Y9892461D03*
G01*
X4693437Y9892461D03*
G01*
X4947437Y9892461D03*
G01*
X5201437Y9892461D03*
G01*
X5455437Y9892461D03*
G01*
X5709437Y9892461D03*
G01*
X5963437Y9892461D03*
G01*
X6217437Y9892461D03*
G01*
X6471437Y9892461D03*
G01*
X6725437Y9892461D03*
G01*
X6979437Y9892461D03*
G01*
X7233437Y9892461D03*
G01*
X7487437Y9892461D03*
G01*
X7741437Y9892461D03*
D23*
G01*
X7995439Y9892459D03*
D24*
G01*
X3423437Y12435459D03*
G01*
X3677437Y12435459D03*
G01*
X3931437Y12435459D03*
G01*
X4185437Y12435459D03*
G01*
X4439437Y12435459D03*
G01*
X4693437Y12435459D03*
G01*
X4947437Y12435459D03*
G01*
X5201437Y12435459D03*
G01*
X5455437Y12435459D03*
G01*
X5709437Y12435459D03*
G01*
X5963437Y12435459D03*
G01*
X6217437Y12435459D03*
G01*
X6471437Y12435459D03*
G01*
X6725437Y12435459D03*
G01*
X6979437Y12435459D03*
G01*
X7233437Y12435459D03*
G01*
X7487437Y12435459D03*
G01*
X7741437Y12435459D03*
G01*
X7995437Y12435459D03*
D22*
G01*
X8011540Y12892659D03*
G01*
X7757540Y12892659D03*
G01*
X7503540Y12892659D03*
G01*
X7249540Y12892659D03*
G01*
X6995540Y12892659D03*
G01*
X6741540Y12892659D03*
G01*
X6487540Y12892659D03*
G01*
X6233540Y12892659D03*
G01*
X5979540Y12892659D03*
G01*
X5725540Y12892659D03*
G01*
X5471540Y12892659D03*
G01*
X5217540Y12892659D03*
G01*
X4963540Y12892659D03*
G01*
X4709540Y12892659D03*
G01*
X4455540Y12892659D03*
G01*
X4201540Y12892659D03*
G01*
X3947540Y12892659D03*
G01*
X3693540Y12892659D03*
G01*
X3439540Y12892659D03*
D25*
G01*
X912243Y10987656D03*
D26*
G01*
X912240Y10733659D03*
G01*
X912240Y10479659D03*
G01*
X912240Y10225659D03*
G01*
X912240Y9971659D03*
G01*
X912240Y9717659D03*
G01*
X912240Y9463659D03*
G01*
X912240Y9209659D03*
G01*
X912240Y8955659D03*
G01*
X912240Y8701659D03*
D27*
G01*
X7998843Y9450956D03*
D22*
G01*
X7744840Y9450959D03*
G01*
X7490840Y9450959D03*
G01*
X7236840Y9450959D03*
G01*
X6982840Y9450959D03*
G01*
X6728840Y9450959D03*
G01*
X6474840Y9450959D03*
G01*
X6220840Y9450959D03*
G01*
X5966840Y9450959D03*
G01*
X5712840Y9450959D03*
G01*
X5458840Y9450959D03*
G01*
X5204840Y9450959D03*
G01*
X4950840Y9450959D03*
G01*
X4696840Y9450959D03*
G01*
X4442840Y9450959D03*
G01*
X4188840Y9450959D03*
G01*
X3934840Y9450959D03*
G01*
X3680840Y9450959D03*
G01*
X3426840Y9450959D03*
M02*
